<?xml version="1.0" encoding="iso-8859-1" standalone="no"?> 
<?xml-stylesheet href="latex-mZbL2k.css" type="text/css"?> 
<svg xmlns="http://www.w3.org/2000/svg" xmlns:xlink="http://www.w3.org/1999/xlink" width="527.34914pt" height="455.64407pt" viewBox="-227.82204 -227.82204 527.34914 455.64407 "> 
<g transform="translate(0, 227.82204 ) scale(1,-1) translate(0,227.82204 )"> 
                                                                        <g stroke="#000" fill="#000">
 <g stroke-width="0.4">
 <g stroke="#ff0" fill="#ff0">
 <path d=" M 0.0 0.0 M 85.35826 0.0 C 85.35826 47.14267 47.14267 85.35826 0.0 85.35826 C -47.14267 85.35826 -85.35826 47.14267 -85.35826 0.0 C -85.35826 -47.14267 -47.14267 -85.35826 0.0 -85.35826 C 47.14267 -85.35826 85.35826 -47.14267 85.35826 0.0 Z M 0.0 0.0  " stroke="none"/>
 </g>
 <g stroke-dasharray="3.0,3.0" stroke-dashoffset="0.0">
 <path d=" M 0.0 0.0 M 227.62204 0.0 C 227.62204 125.71379 125.71379 227.62204 0.0 227.62204 C -125.71379 227.62204 -227.62204 125.71379 -227.62204 0.0 C -227.62204 -125.71379 -125.71379 -227.62204 0.0 -227.62204 C 125.71379 -227.62204 227.62204 -125.71379 227.62204 0.0 Z M 0.0 0.0  " fill="none"/>
 </g>
 <g stroke="#66f" fill="#66f">
 <path d=" M 113.81102 197.12701 M 142.26376 197.12701 C 142.26376 212.84123 129.52524 225.57976 113.81102 225.57976 C 98.0968 225.57976 85.35828 212.84123 85.35828 197.12701 C 85.35828 181.4128 98.0968 168.67427 113.81102 168.67427 C 129.52524 168.67427 142.26376 181.4128 142.26376 197.12701 Z M 113.81102 197.12701  " stroke="none"/>
 </g>
 <path d=" M 114.27101 197.12701 L 256.07474 197.12701  " fill="none"/>
 <g transform="matrix(-1.0,0.0,0.0,-1.0,114.27101,197.12701)">
 <g stroke-width="0.31999">
 <g stroke-dasharray="none" stroke-dashoffset="0.0">
 <g stroke-linecap="round">
 <g stroke-linejoin="round">
 <path d=" M -1.19998 1.59998 C -1.09998 0.99998 0.0 0.09999 0.29999 0.0 C 0.0 -0.09999 -1.09998 -0.99998 -1.19998 -1.59998  " fill="none"/>
 </g>
 </g>
 </g>
 </g>
  </g>
 <g stroke="#000" fill="#000">
 <g stroke="#000" fill="#000">
 </g>
 <g transform="translate(244.51918,193.71036)">
 <g fill="#000">
 <text style="stroke:none" transform="scale(1,-1) translate(11.55556,0)" text-anchor="middle"  font-size="10"> 
<g fill="#000">
 <g stroke="none"> Terre</g> </g>
 </text> 
</g>
 </g>
 </g>
 <path d=" M 0.45999 0.0 L 284.52744 0.0  " fill="none"/>
 <g transform="matrix(-1.0,0.0,0.0,-1.0,0.45999,0.0)">
 <g stroke-width="0.31999">
 <g stroke-dasharray="none" stroke-dashoffset="0.0">
 <g stroke-linecap="round">
 <g stroke-linejoin="round">
 <path d=" M -1.19998 1.59998 C -1.09998 0.99998 0.0 0.09999 0.29999 0.0 C 0.0 -0.09999 -1.09998 -0.99998 -1.19998 -1.59998  " fill="none"/>
 </g>
 </g>
 </g>
 </g>
  </g>
 <g stroke="#000" fill="#000">
 <g stroke="#000" fill="#000">
 </g>
 <g transform="translate(272.86075,-3.47221)">
 <g fill="#000">
 <text style="stroke:none" transform="scale(1,-1) translate(11.66669,0)" text-anchor="middle"  font-size="10"> 
<g fill="#000">
 <g stroke="none"> Soleil</g> </g>
 </text> 
</g>
 </g>
 </g>
 <path d=" M 123.66438 71.13188 L 208.56262 71.13188  " fill="none"/>
 <g transform="matrix(-1.0,0.0,0.0,-1.0,123.66438,71.13188)">
 <g stroke-width="0.31999">
 <g stroke-dasharray="none" stroke-dashoffset="0.0">
 <g stroke-linecap="round">
 <g stroke-linejoin="round">
 <path d=" M -1.19998 1.59998 C -1.09998 0.99998 0.0 0.09999 0.29999 0.0 C 0.0 -0.09999 -1.09998 -0.99998 -1.19998 -1.59998  " fill="none"/>
 </g>
 </g>
 </g>
 </g>
  </g>
 <g stroke="#000" fill="#000">
 <g stroke="#000" fill="#000">
 </g>
 <g transform="translate(157.56256,67.65967)">
 <g fill="#000">
 <text style="stroke:none" transform="scale(1,-1) translate(51.00006,0)" text-anchor="middle"  font-size="10"> 
<g fill="#000">
 <g stroke="none"> Mouvement de la Terre</g> </g>
 </text> 
</g>
 </g>
 </g>
 </g>
 </g>
 
                                                                                                                                                              </g> 
</svg> 
