<?xml version="1.0" encoding="UTF-8" standalone="no"?>
<!DOCTYPE svg PUBLIC "-//W3C//DTD SVG 1.1//EN"
 "http://www.w3.org/Graphics/SVG/1.1/DTD/svg11.dtd">
<!-- Generated by graphviz version 2.43.0 (0)
 -->
<!-- Title: mindMap Pages: 1 -->
<svg width="1724pt" height="1468pt"
 viewBox="0.00 0.00 1724.31 1467.73" xmlns="http://www.w3.org/2000/svg" xmlns:xlink="http://www.w3.org/1999/xlink">
<g id="graph0" class="graph" transform="scale(1 1) rotate(0) translate(4 1463.73)">
<title>mindMap</title>
<polygon fill="white" stroke="transparent" points="-4,4 -4,-1463.73 1720.31,-1463.73 1720.31,4 -4,4"/>
<g id="clust1" class="cluster">
<title>clusterGP</title>
<polygon fill="white" stroke="white" points="0,0 0,-772.71 952.42,-772.71 952.42,0 0,0"/>
</g>
<g id="clust5" class="cluster">
<title>clusterTr</title>
<polygon fill="white" stroke="white" points="732.7,-570.9 732.7,-1459.73 1716.31,-1459.73 1716.31,-570.9 732.7,-570.9"/>
</g>
<!-- M -->
<g id="node1" class="node">
<title>M</title>
<g id="a_node1"><a xlink:href="#" xlink:title="Les mouvements">
<polygon fill="coral" stroke="coral" stroke-width="2" points="952.42,-736.48 764.42,-736.48 764.42,-700.48 952.42,-700.48 952.42,-736.48"/>
<text text-anchor="middle" x="858.42" y="-713.48" font-family="Times,serif" font-size="20.00">Les mouvements</text>
</a>
</g>
</g>
<!-- GP -->
<g id="node2" class="node">
<title>GP</title>
<polygon fill="mintcream" stroke="limegreen" stroke-width="2" points="666.41,-521.43 673.58,-521.53 680.67,-521.68 687.66,-521.88 694.51,-522.12 701.21,-522.41 707.72,-522.75 714.03,-523.13 720.09,-523.56 725.9,-524.03 731.43,-524.55 736.67,-525.1 741.59,-525.69 746.18,-526.32 750.43,-526.99 754.32,-527.69 757.84,-528.42 760.99,-529.19 763.77,-529.98 766.16,-530.79 768.17,-531.63 769.79,-532.49 771.04,-533.37 771.91,-534.27 772.4,-535.18 772.54,-536.1 772.32,-537.03 771.75,-537.97 770.85,-538.91 769.63,-539.86 768.11,-540.8 766.28,-541.74 764.18,-542.67 761.82,-543.59 759.21,-544.5 756.37,-545.4 753.31,-546.28 750.05,-547.14 746.61,-547.98 743,-548.79 739.23,-549.58 735.32,-550.35 731.29,-551.08 727.15,-551.78 722.9,-552.45 718.57,-553.08 714.15,-553.67 709.67,-554.22 705.13,-554.74 700.54,-555.21 695.91,-555.64 691.24,-556.02 686.54,-556.36 681.82,-556.65 677.07,-556.89 672.32,-557.09 667.55,-557.24 662.77,-557.34 657.98,-557.39 653.2,-557.39 648.42,-557.34 643.64,-557.24 638.87,-557.09 634.11,-556.89 629.37,-556.65 624.64,-556.36 619.94,-556.02 615.28,-555.64 610.64,-555.21 606.05,-554.74 601.51,-554.22 597.03,-553.67 592.62,-553.08 588.29,-552.45 584.04,-551.78 579.89,-551.08 575.86,-550.35 571.96,-549.58 568.19,-548.79 564.58,-547.98 561.13,-547.14 557.88,-546.28 554.82,-545.4 551.97,-544.5 549.36,-543.59 547,-542.67 544.9,-541.74 543.08,-540.8 541.55,-539.86 540.33,-538.91 539.43,-537.97 538.87,-537.03 538.65,-536.1 538.78,-535.18 539.28,-534.27 540.15,-533.37 541.39,-532.49 543.02,-531.63 545.03,-530.79 547.42,-529.98 550.19,-529.19 553.35,-528.42 556.87,-527.69 560.76,-526.99 565.01,-526.32 569.6,-525.69 574.52,-525.1 579.75,-524.55 585.28,-524.03 591.09,-523.56 597.16,-523.13 603.46,-522.75 609.97,-522.41 616.67,-522.12 623.53,-521.88 630.52,-521.68 637.61,-521.53 644.77,-521.43 651.98,-521.39 659.2,-521.39 666.41,-521.43"/>
<text text-anchor="middle" x="655.59" y="-535.69" font-family="Times,serif" font-size="14.00">Grandeurs physqiues</text>
</g>
<!-- M&#45;&gt;GP -->
<g id="edge1" class="edge">
<title>M&#45;&gt;GP</title>
<path fill="none" stroke="limegreen" stroke-width="5" d="M838.56,-700.32C741.61,-611.67 721.03,-593.05 685.09,-563.46"/>
<polygon fill="limegreen" stroke="limegreen" stroke-width="5" points="687.66,-559.91 677.16,-556.95 682.11,-566.68 687.66,-559.91"/>
</g>
<!-- TM -->
<g id="node10" class="node">
<title>TM</title>
<polygon fill="lightcyan" stroke="lightblue" stroke-width="2" points="1072.75,-885.84 1080.2,-885.94 1087.58,-886.09 1094.85,-886.28 1101.98,-886.53 1108.95,-886.82 1115.72,-887.16 1122.27,-887.54 1128.58,-887.97 1134.63,-888.44 1140.38,-888.95 1145.82,-889.51 1150.94,-890.1 1155.72,-890.73 1160.13,-891.4 1164.18,-892.1 1167.84,-892.83 1171.12,-893.59 1174.01,-894.38 1176.5,-895.2 1178.59,-896.04 1180.28,-896.9 1181.57,-897.78 1182.48,-898.68 1182.99,-899.59 1183.13,-900.51 1182.9,-901.44 1182.31,-902.38 1181.38,-903.32 1180.11,-904.26 1178.52,-905.2 1176.63,-906.14 1174.44,-907.07 1171.99,-907.99 1169.27,-908.91 1166.31,-909.8 1163.13,-910.68 1159.74,-911.54 1156.16,-912.38 1152.41,-913.2 1148.49,-913.99 1144.42,-914.75 1140.23,-915.49 1135.92,-916.19 1131.5,-916.85 1126.99,-917.48 1122.4,-918.08 1117.74,-918.63 1113.02,-919.14 1108.25,-919.62 1103.43,-920.04 1098.57,-920.43 1093.69,-920.76 1088.77,-921.06 1083.84,-921.3 1078.89,-921.5 1073.93,-921.64 1068.96,-921.74 1063.98,-921.79 1059.01,-921.79 1054.03,-921.74 1049.06,-921.64 1044.1,-921.5 1039.15,-921.3 1034.22,-921.06 1029.31,-920.76 1024.42,-920.43 1019.56,-920.04 1014.74,-919.62 1009.97,-919.14 1005.25,-918.63 1000.59,-918.08 996,-917.48 991.49,-916.85 987.07,-916.19 982.76,-915.49 978.57,-914.75 974.5,-913.99 970.59,-913.2 966.83,-912.38 963.25,-911.54 959.86,-910.68 956.68,-909.8 953.72,-908.91 951.01,-907.99 948.55,-907.07 946.37,-906.14 944.47,-905.2 942.88,-904.26 941.61,-903.32 940.68,-902.38 940.09,-901.44 939.86,-900.51 940,-899.59 940.52,-898.68 941.42,-897.78 942.72,-896.9 944.41,-896.04 946.5,-895.2 948.98,-894.38 951.87,-893.59 955.15,-892.83 958.81,-892.1 962.86,-891.4 967.28,-890.73 972.05,-890.1 977.17,-889.51 982.61,-888.95 988.37,-888.44 994.41,-887.97 1000.72,-887.54 1007.27,-887.16 1014.05,-886.82 1021.01,-886.53 1028.14,-886.28 1035.41,-886.09 1042.79,-885.94 1050.24,-885.84 1057.74,-885.79 1065.25,-885.79 1072.75,-885.84"/>
<text text-anchor="middle" x="1061.5" y="-900.09" font-family="Times,serif" font-size="14.00">Types de mouvements</text>
</g>
<!-- M&#45;&gt;TM -->
<g id="edge10" class="edge">
<title>M&#45;&gt;TM</title>
<path fill="none" stroke="lightblue" stroke-width="5" d="M878.96,-736.53C981.23,-826.39 1001.11,-844.08 1036.07,-878.54"/>
<polygon fill="lightblue" stroke="lightblue" stroke-width="5" points="1033.11,-881.76 1043.3,-885.68 1039.26,-875.54 1033.11,-881.76"/>
</g>
<!-- gD -->
<g id="node3" class="node">
<title>gD</title>
<polygon fill="mintcream" stroke="limegreen" stroke-width="2" points="385.63,-545.88 388.99,-545.98 392.32,-546.12 395.6,-546.32 398.81,-546.56 401.95,-546.85 405.01,-547.19 407.96,-547.58 410.81,-548 413.54,-548.47 416.13,-548.99 418.59,-549.54 420.89,-550.14 423.05,-550.77 425.04,-551.43 426.86,-552.13 428.52,-552.87 430,-553.63 431.3,-554.42 432.42,-555.24 433.36,-556.08 434.13,-556.94 434.71,-557.82 435.12,-558.71 435.35,-559.62 435.41,-560.55 435.31,-561.48 435.04,-562.41 434.62,-563.36 434.05,-564.3 433.33,-565.24 432.48,-566.18 431.49,-567.11 430.39,-568.03 429.16,-568.94 427.83,-569.84 426.39,-570.72 424.86,-571.58 423.25,-572.42 421.55,-573.24 419.79,-574.03 417.96,-574.79 416.06,-575.52 414.12,-576.22 412.13,-576.89 410.09,-577.52 408.02,-578.11 405.92,-578.67 403.79,-579.18 401.64,-579.65 399.47,-580.08 397.28,-580.46 395.07,-580.8 392.86,-581.09 390.63,-581.34 388.4,-581.53 386.16,-581.68 383.92,-581.78 381.68,-581.83 379.43,-581.83 377.19,-581.78 374.95,-581.68 372.71,-581.53 370.48,-581.34 368.25,-581.09 366.03,-580.8 363.83,-580.46 361.64,-580.08 359.47,-579.65 357.31,-579.18 355.18,-578.67 353.08,-578.11 351.01,-577.52 348.98,-576.89 346.99,-576.22 345.04,-575.52 343.15,-574.79 341.32,-574.03 339.55,-573.24 337.86,-572.42 336.24,-571.58 334.71,-570.72 333.28,-569.84 331.95,-568.94 330.72,-568.03 329.61,-567.11 328.63,-566.18 327.77,-565.24 327.06,-564.3 326.48,-563.36 326.06,-562.41 325.8,-561.48 325.69,-560.55 325.76,-559.62 325.99,-558.71 326.4,-557.82 326.98,-556.94 327.74,-556.08 328.69,-555.24 329.81,-554.42 331.11,-553.63 332.59,-552.87 334.24,-552.13 336.07,-551.43 338.06,-550.77 340.21,-550.14 342.52,-549.54 344.98,-548.99 347.57,-548.47 350.3,-548 353.14,-547.58 356.1,-547.19 359.15,-546.85 362.29,-546.56 365.51,-546.32 368.79,-546.12 372.12,-545.98 375.48,-545.88 378.86,-545.83 382.25,-545.83 385.63,-545.88"/>
<text text-anchor="middle" x="380.55" y="-560.13" font-family="Times,serif" font-size="14.00">Distance</text>
</g>
<!-- GP&#45;&gt;gD -->
<g id="edge2" class="edge">
<title>GP&#45;&gt;gD</title>
<path fill="none" stroke="limegreen" stroke-width="5" d="M541.96,-532.02C484.63,-529.54 459.85,-532.73 425.6,-545.34"/>
<polygon fill="limegreen" stroke="limegreen" stroke-width="5" points="423.94,-541.29 416.17,-548.95 427.07,-549.47 423.94,-541.29"/>
</g>
<!-- gT -->
<g id="node6" class="node">
<title>gT</title>
<polygon fill="mintcream" stroke="limegreen" stroke-width="2" points="648.35,-246.1 650.9,-246.2 653.42,-246.34 655.9,-246.54 658.33,-246.78 660.71,-247.08 663.03,-247.41 665.27,-247.8 667.42,-248.22 669.49,-248.7 671.45,-249.21 673.32,-249.76 675.06,-250.36 676.69,-250.99 678.2,-251.65 679.59,-252.35 680.84,-253.09 681.96,-253.85 682.94,-254.64 683.79,-255.46 684.51,-256.3 685.09,-257.16 685.53,-258.04 685.84,-258.93 686.01,-259.85 686.06,-260.77 685.98,-261.7 685.78,-262.64 685.46,-263.58 685.03,-264.52 684.49,-265.46 683.84,-266.4 683.09,-267.33 682.25,-268.25 681.33,-269.16 680.32,-270.06 679.23,-270.94 678.07,-271.8 676.85,-272.64 675.56,-273.46 674.22,-274.25 672.84,-275.01 671.4,-275.74 669.93,-276.44 668.42,-277.11 666.88,-277.74 665.31,-278.33 663.72,-278.89 662.11,-279.4 660.48,-279.87 658.83,-280.3 657.17,-280.68 655.5,-281.02 653.82,-281.31 652.14,-281.56 650.45,-281.75 648.75,-281.9 647.05,-282 645.35,-282.05 643.65,-282.05 641.95,-282 640.26,-281.9 638.56,-281.75 636.87,-281.56 635.18,-281.31 633.51,-281.02 631.84,-280.68 630.18,-280.3 628.53,-279.87 626.9,-279.4 625.29,-278.89 623.69,-278.33 622.13,-277.74 620.59,-277.11 619.08,-276.44 617.6,-275.74 616.17,-275.01 614.78,-274.25 613.44,-273.46 612.16,-272.64 610.94,-271.8 609.78,-270.94 608.69,-270.06 607.68,-269.16 606.75,-268.25 605.91,-267.33 605.17,-266.4 604.52,-265.46 603.98,-264.52 603.55,-263.58 603.23,-262.64 603.02,-261.7 602.95,-260.77 602.99,-259.85 603.17,-258.93 603.48,-258.04 603.92,-257.16 604.5,-256.3 605.21,-255.46 606.06,-254.64 607.05,-253.85 608.17,-253.09 609.42,-252.35 610.8,-251.65 612.31,-250.99 613.94,-250.36 615.69,-249.76 617.55,-249.21 619.52,-248.7 621.58,-248.22 623.74,-247.8 625.98,-247.41 628.29,-247.08 630.67,-246.78 633.11,-246.54 635.59,-246.34 638.11,-246.2 640.66,-246.1 643.22,-246.05 645.79,-246.05 648.35,-246.1"/>
<text text-anchor="middle" x="644.5" y="-260.35" font-family="Times,serif" font-size="14.00">Durée</text>
</g>
<!-- GP&#45;&gt;gT -->
<g id="edge3" class="edge">
<title>GP&#45;&gt;gT</title>
<path fill="none" stroke="limegreen" stroke-width="5" d="M652.17,-521.38C624.22,-374.32 621.59,-354.98 637.38,-291.59"/>
<polygon fill="limegreen" stroke="limegreen" stroke-width="5" points="641.62,-292.67 639.84,-281.9 633.13,-290.52 641.62,-292.67"/>
</g>
<!-- dM -->
<g id="node4" class="node">
<title>dM</title>
<polygon fill="mintcream" stroke="limegreen" stroke-width="2" points="135.35,-493.05 142.93,-493.15 150.44,-493.29 157.84,-493.49 165.09,-493.73 172.18,-494.03 179.08,-494.36 185.75,-494.75 192.17,-495.18 198.32,-495.65 204.17,-496.16 209.72,-496.71 214.92,-497.31 219.78,-497.94 224.28,-498.6 228.39,-499.31 232.13,-500.04 235.46,-500.8 238.4,-501.59 240.93,-502.41 243.06,-503.25 244.78,-504.11 246.1,-504.99 247.02,-505.89 247.54,-506.8 247.68,-507.72 247.45,-508.65 246.85,-509.59 245.9,-510.53 244.61,-511.47 242.99,-512.41 241.06,-513.35 238.84,-514.28 236.34,-515.2 233.58,-516.11 230.57,-517.01 227.33,-517.89 223.88,-518.75 220.24,-519.59 216.41,-520.41 212.43,-521.2 208.29,-521.96 204.02,-522.69 199.63,-523.39 195.14,-524.06 190.55,-524.69 185.88,-525.28 181.14,-525.84 176.33,-526.35 171.47,-526.82 166.57,-527.25 161.63,-527.63 156.65,-527.97 151.65,-528.26 146.63,-528.51 141.6,-528.7 136.55,-528.85 131.49,-528.95 126.43,-529 121.36,-529 116.3,-528.95 111.24,-528.85 106.19,-528.7 101.16,-528.51 96.13,-528.26 91.13,-527.97 86.16,-527.63 81.22,-527.25 76.31,-526.82 71.46,-526.35 66.65,-525.84 61.91,-525.28 57.24,-524.69 52.65,-524.06 48.15,-523.39 43.77,-522.69 39.5,-521.96 35.36,-521.2 31.38,-520.41 27.55,-519.59 23.91,-518.75 20.46,-517.89 17.22,-517.01 14.21,-516.11 11.45,-515.2 8.95,-514.28 6.73,-513.35 4.8,-512.41 3.18,-511.47 1.89,-510.53 0.94,-509.59 0.34,-508.65 0.11,-507.72 0.25,-506.8 0.77,-505.89 1.69,-504.99 3.01,-504.11 4.73,-503.25 6.86,-502.41 9.39,-501.59 12.33,-500.8 15.66,-500.04 19.4,-499.31 23.51,-498.6 28.01,-497.94 32.87,-497.31 38.07,-496.71 43.61,-496.16 49.47,-495.65 55.62,-495.18 62.04,-494.75 68.71,-494.36 75.61,-494.03 82.7,-493.73 89.95,-493.49 97.35,-493.29 104.86,-493.15 112.44,-493.05 120.07,-493 127.72,-493 135.35,-493.05"/>
<text text-anchor="middle" x="123.89" y="-507.3" font-family="Times,serif" font-size="14.00">Mesure avec une règle</text>
</g>
<!-- gD&#45;&gt;dM -->
<g id="edge8" class="edge">
<title>gD&#45;&gt;dM</title>
<path fill="none" stroke="limegreen" stroke-width="5" d="M333.18,-552.6C272.57,-538.26 238.4,-530.32 212.27,-525.01"/>
<polygon fill="limegreen" stroke="limegreen" stroke-width="5" points="212.91,-520.67 202.25,-523.02 211.2,-529.25 212.91,-520.67"/>
</g>
<!-- dU -->
<g id="node5" class="node">
<title>dU</title>
<polygon fill="mintcream" stroke="limegreen" stroke-width="2" points="217.76,-736.75 223.27,-736.85 228.72,-737 234.1,-737.2 239.37,-737.44 244.52,-737.73 249.53,-738.07 254.38,-738.45 259.05,-738.88 263.52,-739.35 267.77,-739.87 271.8,-740.42 275.58,-741.01 279.11,-741.64 282.38,-742.31 285.37,-743.01 288.08,-743.74 290.51,-744.51 292.64,-745.3 294.48,-746.11 296.03,-746.95 297.28,-747.81 298.24,-748.69 298.9,-749.59 299.29,-750.5 299.39,-751.42 299.22,-752.35 298.78,-753.29 298.09,-754.23 297.15,-755.18 295.98,-756.12 294.58,-757.06 292.96,-757.99 291.15,-758.91 289.14,-759.82 286.95,-760.72 284.6,-761.6 282.09,-762.46 279.44,-763.3 276.66,-764.11 273.77,-764.9 270.76,-765.67 267.66,-766.4 264.47,-767.1 261.21,-767.77 257.87,-768.4 254.48,-768.99 251.03,-769.54 247.54,-770.06 244.01,-770.53 240.44,-770.96 236.85,-771.34 233.24,-771.68 229.6,-771.97 225.96,-772.21 222.3,-772.41 218.63,-772.56 214.95,-772.66 211.27,-772.71 207.59,-772.71 203.91,-772.66 200.24,-772.56 196.57,-772.41 192.91,-772.21 189.26,-771.97 185.62,-771.68 182.01,-771.34 178.42,-770.96 174.85,-770.53 171.32,-770.06 167.83,-769.54 164.39,-768.99 160.99,-768.4 157.66,-767.77 154.39,-767.1 151.2,-766.4 148.1,-765.67 145.1,-764.9 142.2,-764.11 139.42,-763.3 136.77,-762.46 134.26,-761.6 131.91,-760.72 129.72,-759.82 127.72,-758.91 125.9,-757.99 124.28,-757.06 122.88,-756.12 121.71,-755.18 120.77,-754.23 120.08,-753.29 119.64,-752.35 119.47,-751.42 119.58,-750.5 119.96,-749.59 120.63,-748.69 121.58,-747.81 122.84,-746.95 124.38,-746.11 126.22,-745.3 128.35,-744.51 130.78,-743.74 133.49,-743.01 136.48,-742.31 139.75,-741.64 143.28,-741.01 147.06,-740.42 151.09,-739.87 155.35,-739.35 159.82,-738.88 164.48,-738.45 169.33,-738.07 174.34,-737.73 179.49,-737.44 184.77,-737.2 190.14,-737 195.6,-736.85 201.11,-736.75 206.65,-736.71 212.21,-736.71 217.76,-736.75"/>
<text text-anchor="middle" x="209.43" y="-751.01" font-family="Times,serif" font-size="14.00">Unité : le mètre</text>
</g>
<!-- gD&#45;&gt;dU -->
<g id="edge9" class="edge">
<title>gD&#45;&gt;dU</title>
<path fill="none" stroke="limegreen" stroke-width="5" d="M356.88,-579.3C256.23,-645.26 243.72,-657.08 219.12,-726.59"/>
<polygon fill="limegreen" stroke="limegreen" stroke-width="5" points="214.89,-725.43 215.72,-736.32 223.15,-728.32 214.89,-725.43"/>
</g>
<!-- calV -->
<g id="node9" class="node">
<title>calV</title>
<g id="a_node9"><a xlink:title="Unité dérivé de la distance et de la durée">
<polygon fill="mintcream" stroke="limegreen" stroke-width="2" points="398.58,-277.6 406.14,-277.75 413.63,-277.96 421.01,-278.26 428.25,-278.62 435.32,-279.05 442.2,-279.55 448.85,-280.12 455.26,-280.76 461.39,-281.46 467.24,-282.22 472.76,-283.05 477.96,-283.93 482.81,-284.87 487.29,-285.86 491.4,-286.9 495.12,-287.99 498.45,-289.12 501.38,-290.3 503.9,-291.51 506.02,-292.76 507.74,-294.04 509.06,-295.35 509.97,-296.68 510.5,-298.04 510.64,-299.41 510.41,-300.79 509.81,-302.18 508.86,-303.58 507.57,-304.99 505.96,-306.38 504.04,-307.78 501.82,-309.16 499.32,-310.53 496.57,-311.89 493.57,-313.22 490.34,-314.53 486.89,-315.81 483.26,-317.06 479.44,-318.27 475.47,-319.45 471.34,-320.58 467.08,-321.67 462.71,-322.71 458.22,-323.7 453.65,-324.64 448.99,-325.52 444.25,-326.35 439.46,-327.11 434.61,-327.81 429.72,-328.45 424.79,-329.02 419.83,-329.52 414.84,-329.95 409.83,-330.31 404.81,-330.6 399.77,-330.82 394.73,-330.97 389.67,-331.04 384.62,-331.04 379.57,-330.97 374.53,-330.82 369.49,-330.6 364.46,-330.31 359.46,-329.95 354.47,-329.52 349.51,-329.02 344.57,-328.45 339.68,-327.81 334.84,-327.11 330.04,-326.35 325.31,-325.52 320.65,-324.64 316.07,-323.7 311.59,-322.71 307.21,-321.67 302.95,-320.58 298.83,-319.45 294.85,-318.27 291.04,-317.06 287.4,-315.81 283.96,-314.53 280.73,-313.22 277.73,-311.89 274.97,-310.53 272.48,-309.16 270.26,-307.78 268.34,-306.38 266.73,-304.99 265.44,-303.58 264.49,-302.18 263.89,-300.79 263.66,-299.41 263.8,-298.04 264.32,-296.68 265.24,-295.35 266.56,-294.04 268.27,-292.76 270.39,-291.51 272.92,-290.3 275.85,-289.12 279.18,-287.99 282.9,-286.9 287.01,-285.86 291.49,-284.87 296.34,-283.93 301.53,-283.05 307.06,-282.22 312.9,-281.46 319.04,-280.76 325.44,-280.12 332.1,-279.55 338.98,-279.05 346.05,-278.62 353.29,-278.26 360.67,-277.96 368.16,-277.75 375.72,-277.6 383.33,-277.53 390.96,-277.53 398.58,-277.6"/>
<text text-anchor="middle" x="387.15" y="-308.08" font-family="Times,serif" font-size="14.00">Calcul de la vitesse :</text>
<text text-anchor="middle" x="387.15" y="-293.08" font-family="Times,serif" font-size="14.00">distance : durée</text>
</a>
</g>
</g>
<!-- gD&#45;&gt;calV -->
<g id="edge4" class="edge">
<title>gD&#45;&gt;calV</title>
<path fill="none" stroke="limegreen" stroke-width="5" d="M375.85,-545.68C344.84,-425.67 341.91,-406.16 370.78,-340.22"/>
<polygon fill="limegreen" stroke="limegreen" stroke-width="5" points="374.79,-341.96 374.86,-331.05 366.8,-338.41 374.79,-341.96"/>
</g>
<!-- tM -->
<g id="node7" class="node">
<title>tM</title>
<polygon fill="mintcream" stroke="limegreen" stroke-width="2" points="569.81,-0.05 579.39,-0.15 588.87,-0.3 598.21,-0.49 607.38,-0.74 616.33,-1.03 625.04,-1.36 633.46,-1.75 641.58,-2.18 649.34,-2.65 656.74,-3.16 663.74,-3.71 670.32,-4.31 676.45,-4.94 682.13,-5.61 687.33,-6.31 692.04,-7.04 696.26,-7.8 699.96,-8.59 703.16,-9.41 705.85,-10.25 708.02,-11.11 709.69,-11.99 710.85,-12.89 711.51,-13.8 711.69,-14.72 711.4,-15.65 710.64,-16.59 709.44,-17.53 707.81,-18.47 705.77,-19.41 703.33,-20.35 700.52,-21.28 697.36,-22.2 693.87,-23.11 690.07,-24.01 685.98,-24.89 681.63,-25.75 677.03,-26.59 672.2,-27.41 667.16,-28.2 661.94,-28.96 656.55,-29.69 651,-30.39 645.33,-31.06 639.53,-31.69 633.63,-32.29 627.64,-32.84 621.57,-33.35 615.44,-33.82 609.24,-34.25 603,-34.64 596.72,-34.97 590.4,-35.26 584.06,-35.51 577.7,-35.7 571.32,-35.85 564.93,-35.95 558.54,-36 552.14,-36 545.75,-35.95 539.36,-35.85 532.98,-35.7 526.62,-35.51 520.28,-35.26 513.96,-34.97 507.68,-34.64 501.44,-34.25 495.25,-33.82 489.11,-33.35 483.04,-32.84 477.05,-32.29 471.15,-31.69 465.36,-31.06 459.68,-30.39 454.14,-29.69 448.75,-28.96 443.52,-28.2 438.49,-27.41 433.66,-26.59 429.06,-25.75 424.7,-24.89 420.61,-24.01 416.81,-23.11 413.32,-22.2 410.16,-21.28 407.35,-20.35 404.92,-19.41 402.88,-18.47 401.24,-17.53 400.04,-16.59 399.29,-15.65 398.99,-14.72 399.17,-13.8 399.84,-12.89 401,-11.99 402.66,-11.11 404.83,-10.25 407.52,-9.41 410.72,-8.59 414.43,-7.8 418.64,-7.04 423.35,-6.31 428.56,-5.61 434.23,-4.94 440.37,-4.31 446.95,-3.71 453.94,-3.16 461.34,-2.65 469.11,-2.18 477.22,-1.75 485.64,-1.36 494.35,-1.03 503.31,-0.74 512.47,-0.49 521.81,-0.3 531.29,-0.15 540.87,-0.05 550.51,0 560.17,0 569.81,-0.05"/>
<text text-anchor="middle" x="555.34" y="-14.3" font-family="Times,serif" font-size="14.00">Mesure avec un chronomètre</text>
</g>
<!-- gT&#45;&gt;tM -->
<g id="edge6" class="edge">
<title>gT&#45;&gt;tM</title>
<path fill="none" stroke="limegreen" stroke-width="5" d="M637.65,-246.17C587.5,-115.48 579.54,-94.39 564.18,-46.06"/>
<polygon fill="limegreen" stroke="limegreen" stroke-width="5" points="568.29,-44.55 561.1,-36.34 559.95,-47.19 568.29,-44.55"/>
</g>
<!-- tU -->
<g id="node8" class="node">
<title>tU</title>
<polygon fill="mintcream" stroke="limegreen" stroke-width="2" points="820.26,-51.03 826.4,-51.13 832.48,-51.28 838.47,-51.48 844.34,-51.72 850.08,-52.01 855.67,-52.35 861.07,-52.73 866.27,-53.16 871.24,-53.63 875.99,-54.15 880.47,-54.7 884.69,-55.29 888.62,-55.92 892.26,-56.59 895.59,-57.29 898.62,-58.02 901.32,-58.79 903.69,-59.58 905.74,-60.39 907.47,-61.23 908.86,-62.09 909.93,-62.97 910.67,-63.87 911.1,-64.78 911.21,-65.7 911.02,-66.63 910.54,-67.57 909.77,-68.51 908.72,-69.46 907.41,-70.4 905.85,-71.33 904.05,-72.27 902.03,-73.19 899.79,-74.1 897.35,-75 894.73,-75.88 891.94,-76.74 888.99,-77.58 885.89,-78.39 882.67,-79.18 879.32,-79.95 875.86,-80.68 872.31,-81.38 868.67,-82.05 864.96,-82.68 861.17,-83.27 857.33,-83.82 853.44,-84.34 849.51,-84.81 845.54,-85.24 841.54,-85.62 837.51,-85.96 833.46,-86.25 829.4,-86.49 825.32,-86.69 821.23,-86.84 817.14,-86.94 813.04,-86.98 808.94,-86.98 804.84,-86.94 800.74,-86.84 796.66,-86.69 792.58,-86.49 788.51,-86.25 784.47,-85.96 780.44,-85.62 776.44,-85.24 772.47,-84.81 768.53,-84.34 764.64,-83.82 760.8,-83.27 757.02,-82.68 753.31,-82.05 749.67,-81.38 746.11,-80.68 742.66,-79.95 739.31,-79.18 736.08,-78.39 732.99,-77.58 730.04,-76.74 727.24,-75.88 724.62,-75 722.19,-74.1 719.95,-73.19 717.92,-72.27 716.13,-71.33 714.56,-70.4 713.26,-69.46 712.21,-68.51 711.44,-67.57 710.95,-66.63 710.77,-65.7 710.88,-64.78 711.31,-63.87 712.05,-62.97 713.12,-62.09 714.51,-61.23 716.23,-60.39 718.28,-59.58 720.66,-58.79 723.36,-58.02 726.38,-57.29 729.72,-56.59 733.36,-55.92 737.29,-55.29 741.51,-54.7 745.99,-54.15 750.73,-53.63 755.71,-53.16 760.91,-52.73 766.31,-52.35 771.89,-52.01 777.63,-51.72 783.51,-51.48 789.5,-51.28 795.57,-51.13 801.71,-51.03 807.89,-50.98 814.08,-50.98 820.26,-51.03"/>
<text text-anchor="middle" x="810.99" y="-65.28" font-family="Times,serif" font-size="14.00">Unité : la seconde</text>
</g>
<!-- gT&#45;&gt;tU -->
<g id="edge7" class="edge">
<title>gT&#45;&gt;tU</title>
<path fill="none" stroke="limegreen" stroke-width="5" d="M653.17,-246.23C704.83,-140.11 716.8,-119.49 769.11,-90.59"/>
<polygon fill="limegreen" stroke="limegreen" stroke-width="5" points="771.51,-94.26 778.24,-85.66 767.36,-86.56 771.51,-94.26"/>
</g>
<!-- gT&#45;&gt;calV -->
<g id="edge5" class="edge">
<title>gT&#45;&gt;calV</title>
<path fill="none" stroke="limegreen" stroke-width="5" d="M603.02,-258.63C510.76,-246.9 484.62,-247.33 437.39,-273.55"/>
<polygon fill="limegreen" stroke="limegreen" stroke-width="5" points="435.14,-269.8 428.63,-278.56 439.49,-277.39 435.14,-269.8"/>
</g>
<!-- tF -->
<g id="node11" class="node">
<title>tF</title>
<polygon fill="lightcyan" stroke="lightblue" stroke-width="2" points="1018.05,-1164.32 1021.02,-1164.41 1023.95,-1164.56 1026.84,-1164.76 1029.68,-1165 1032.45,-1165.29 1035.15,-1165.63 1037.76,-1166.01 1040.27,-1166.44 1042.67,-1166.91 1044.96,-1167.43 1047.13,-1167.98 1049.16,-1168.58 1051.06,-1169.21 1052.82,-1169.87 1054.43,-1170.57 1055.89,-1171.31 1057.19,-1172.07 1058.34,-1172.86 1059.33,-1173.68 1060.16,-1174.52 1060.84,-1175.38 1061.35,-1176.26 1061.71,-1177.15 1061.92,-1178.06 1061.97,-1178.99 1061.88,-1179.92 1061.65,-1180.85 1061.28,-1181.8 1060.77,-1182.74 1060.14,-1183.68 1059.38,-1184.62 1058.52,-1185.55 1057.54,-1186.47 1056.46,-1187.38 1055.28,-1188.28 1054.02,-1189.16 1052.67,-1190.02 1051.24,-1190.86 1049.75,-1191.68 1048.19,-1192.47 1046.57,-1193.23 1044.9,-1193.96 1043.19,-1194.66 1041.43,-1195.33 1039.64,-1195.96 1037.81,-1196.55 1035.95,-1197.11 1034.08,-1197.62 1032.18,-1198.09 1030.26,-1198.52 1028.33,-1198.9 1026.38,-1199.24 1024.43,-1199.53 1022.46,-1199.78 1020.49,-1199.97 1018.52,-1200.12 1016.54,-1200.22 1014.56,-1200.27 1012.58,-1200.27 1010.6,-1200.22 1008.63,-1200.12 1006.65,-1199.97 1004.68,-1199.78 1002.72,-1199.53 1000.76,-1199.24 998.82,-1198.9 996.89,-1198.52 994.97,-1198.09 993.07,-1197.62 991.19,-1197.11 989.34,-1196.55 987.51,-1195.96 985.72,-1195.33 983.96,-1194.66 982.24,-1193.96 980.57,-1193.23 978.96,-1192.47 977.4,-1191.68 975.9,-1190.86 974.48,-1190.02 973.13,-1189.16 971.86,-1188.28 970.69,-1187.38 969.61,-1186.47 968.63,-1185.55 967.76,-1184.62 967.01,-1183.68 966.37,-1182.74 965.87,-1181.8 965.5,-1180.85 965.26,-1179.92 965.17,-1178.99 965.23,-1178.06 965.43,-1177.15 965.79,-1176.26 966.31,-1175.38 966.98,-1174.52 967.81,-1173.68 968.8,-1172.86 969.95,-1172.07 971.25,-1171.31 972.71,-1170.57 974.32,-1169.87 976.08,-1169.21 977.98,-1168.58 980.02,-1167.98 982.18,-1167.43 984.47,-1166.91 986.88,-1166.44 989.39,-1166.01 992,-1165.63 994.69,-1165.29 997.46,-1165 1000.3,-1164.76 1003.19,-1164.56 1006.13,-1164.41 1009.09,-1164.32 1012.08,-1164.27 1015.07,-1164.27 1018.05,-1164.32"/>
<text text-anchor="middle" x="1013.57" y="-1178.57" font-family="Times,serif" font-size="14.00">Formes</text>
</g>
<!-- TM&#45;&gt;tF -->
<g id="edge11" class="edge">
<title>TM&#45;&gt;tF</title>
<path fill="none" stroke="lightblue" stroke-width="5" d="M1061.89,-921.93C1065.15,-1072.76 1064.21,-1092.23 1028.95,-1155.36"/>
<polygon fill="lightblue" stroke="lightblue" stroke-width="5" points="1025.1,-1153.28 1023.99,-1164.14 1032.72,-1157.58 1025.1,-1153.28"/>
</g>
<!-- tV -->
<g id="node15" class="node">
<title>tV</title>
<polygon fill="lightcyan" stroke="lightblue" stroke-width="2" points="1344.71,-810.49 1352.16,-810.59 1359.54,-810.74 1366.81,-810.93 1373.94,-811.18 1380.9,-811.47 1387.68,-811.81 1394.23,-812.19 1400.54,-812.62 1406.59,-813.09 1412.34,-813.6 1417.78,-814.16 1422.9,-814.75 1427.67,-815.38 1432.09,-816.05 1436.14,-816.75 1439.8,-817.48 1443.08,-818.24 1445.97,-819.03 1448.46,-819.85 1450.54,-820.69 1452.24,-821.55 1453.53,-822.43 1454.43,-823.33 1454.95,-824.24 1455.09,-825.16 1454.86,-826.09 1454.27,-827.03 1453.34,-827.97 1452.07,-828.91 1450.48,-829.85 1448.59,-830.79 1446.4,-831.72 1443.94,-832.64 1441.23,-833.56 1438.27,-834.45 1435.09,-835.33 1431.7,-836.19 1428.12,-837.03 1424.36,-837.85 1420.45,-838.64 1416.38,-839.4 1412.19,-840.14 1407.88,-840.84 1403.46,-841.5 1398.95,-842.13 1394.36,-842.73 1389.7,-843.28 1384.98,-843.79 1380.21,-844.27 1375.39,-844.69 1370.53,-845.08 1365.65,-845.41 1360.73,-845.71 1355.8,-845.95 1350.85,-846.15 1345.89,-846.29 1340.92,-846.39 1335.94,-846.44 1330.97,-846.44 1325.99,-846.39 1321.02,-846.29 1316.06,-846.15 1311.11,-845.95 1306.18,-845.71 1301.26,-845.41 1296.38,-845.08 1291.52,-844.69 1286.7,-844.27 1281.93,-843.79 1277.21,-843.28 1272.55,-842.73 1267.96,-842.13 1263.45,-841.5 1259.03,-840.84 1254.72,-840.14 1250.53,-839.4 1246.46,-838.64 1242.55,-837.85 1238.79,-837.03 1235.21,-836.19 1231.82,-835.33 1228.64,-834.45 1225.68,-833.56 1222.97,-832.64 1220.51,-831.72 1218.32,-830.79 1216.43,-829.85 1214.84,-828.91 1213.57,-827.97 1212.64,-827.03 1212.05,-826.09 1211.82,-825.16 1211.96,-824.24 1212.48,-823.33 1213.38,-822.43 1214.67,-821.55 1216.36,-820.69 1218.45,-819.85 1220.94,-819.03 1223.83,-818.24 1227.11,-817.48 1230.77,-816.75 1234.82,-816.05 1239.24,-815.38 1244.01,-814.75 1249.13,-814.16 1254.57,-813.6 1260.32,-813.09 1266.37,-812.62 1272.68,-812.19 1279.23,-811.81 1286.01,-811.47 1292.97,-811.18 1300.1,-810.93 1307.37,-810.74 1314.75,-810.59 1322.2,-810.49 1329.7,-810.44 1337.21,-810.44 1344.71,-810.49"/>
<text text-anchor="middle" x="1333.45" y="-824.74" font-family="Times,serif" font-size="14.00">En lien avec la vitesse</text>
</g>
<!-- TM&#45;&gt;tV -->
<g id="edge12" class="edge">
<title>TM&#45;&gt;tV</title>
<path fill="none" stroke="lightblue" stroke-width="5" d="M1170.39,-893.4C1237.74,-885.59 1261.27,-877.08 1299.95,-851.56"/>
<polygon fill="lightblue" stroke="lightblue" stroke-width="5" points="1302.59,-855.05 1308.45,-845.84 1297.71,-847.79 1302.59,-855.05"/>
</g>
<!-- fR -->
<g id="node12" class="node">
<title>fR</title>
<polygon fill="lightcyan" stroke="lightblue" stroke-width="2" points="800.01,-1300.56 803.79,-1300.66 807.53,-1300.8 811.22,-1301 814.84,-1301.24 818.37,-1301.53 821.81,-1301.87 825.13,-1302.26 828.33,-1302.68 831.4,-1303.16 834.32,-1303.67 837.08,-1304.22 839.67,-1304.82 842.1,-1305.45 844.34,-1306.11 846.39,-1306.81 848.25,-1307.55 849.91,-1308.31 851.38,-1309.1 852.64,-1309.92 853.7,-1310.76 854.55,-1311.62 855.21,-1312.5 855.67,-1313.39 855.93,-1314.3 856,-1315.23 855.89,-1316.16 855.59,-1317.1 855.11,-1318.04 854.47,-1318.98 853.66,-1319.92 852.7,-1320.86 851.6,-1321.79 850.35,-1322.71 848.97,-1323.62 847.47,-1324.52 845.86,-1325.4 844.14,-1326.26 842.32,-1327.1 840.42,-1327.92 838.43,-1328.71 836.37,-1329.47 834.24,-1330.2 832.05,-1330.9 829.81,-1331.57 827.53,-1332.2 825.2,-1332.79 822.83,-1333.35 820.44,-1333.86 818.02,-1334.33 815.57,-1334.76 813.11,-1335.14 810.63,-1335.48 808.14,-1335.77 805.64,-1336.02 803.12,-1336.21 800.61,-1336.36 798.09,-1336.46 795.56,-1336.51 793.04,-1336.51 790.52,-1336.46 787.99,-1336.36 785.48,-1336.21 782.97,-1336.02 780.46,-1335.77 777.97,-1335.48 775.49,-1335.14 773.03,-1334.76 770.58,-1334.33 768.16,-1333.86 765.77,-1333.35 763.4,-1332.79 761.08,-1332.2 758.79,-1331.57 756.55,-1330.9 754.36,-1330.2 752.23,-1329.47 750.17,-1328.71 748.19,-1327.92 746.28,-1327.1 744.46,-1326.26 742.74,-1325.4 741.13,-1324.52 739.63,-1323.62 738.25,-1322.71 737.01,-1321.79 735.9,-1320.86 734.94,-1319.92 734.13,-1318.98 733.49,-1318.04 733.01,-1317.1 732.72,-1316.16 732.6,-1315.23 732.67,-1314.3 732.93,-1313.39 733.39,-1312.5 734.05,-1311.62 734.9,-1310.76 735.96,-1309.92 737.23,-1309.1 738.69,-1308.31 740.35,-1307.55 742.21,-1306.81 744.27,-1306.11 746.51,-1305.45 748.93,-1304.82 751.52,-1304.22 754.29,-1303.67 757.2,-1303.16 760.27,-1302.68 763.47,-1302.26 766.8,-1301.87 770.23,-1301.53 773.77,-1301.24 777.38,-1301 781.07,-1300.8 784.81,-1300.66 788.59,-1300.56 792.39,-1300.51 796.21,-1300.51 800.01,-1300.56"/>
<text text-anchor="middle" x="794.3" y="-1314.81" font-family="Times,serif" font-size="14.00">Rectiligne</text>
</g>
<!-- tF&#45;&gt;fR -->
<g id="edge16" class="edge">
<title>tF&#45;&gt;fR</title>
<path fill="none" stroke="lightblue" stroke-width="5" d="M998.9,-1198.94C931.99,-1274.85 911.55,-1295.2 861.85,-1307.01"/>
<polygon fill="lightblue" stroke="lightblue" stroke-width="5" points="860.69,-1302.79 851.86,-1309.21 862.56,-1311.34 860.69,-1302.79"/>
</g>
<!-- fC -->
<g id="node13" class="node">
<title>fC</title>
<polygon fill="lightcyan" stroke="lightblue" stroke-width="2" points="1215.05,-1337.1 1218.75,-1337.2 1222.42,-1337.35 1226.03,-1337.54 1229.57,-1337.79 1233.03,-1338.08 1236.4,-1338.42 1239.66,-1338.8 1242.79,-1339.23 1245.79,-1339.7 1248.65,-1340.21 1251.36,-1340.77 1253.9,-1341.36 1256.27,-1341.99 1258.47,-1342.66 1260.48,-1343.36 1262.3,-1344.09 1263.93,-1344.85 1265.36,-1345.64 1266.6,-1346.46 1267.64,-1347.3 1268.48,-1348.16 1269.12,-1349.04 1269.57,-1349.94 1269.82,-1350.85 1269.89,-1351.77 1269.78,-1352.7 1269.49,-1353.64 1269.02,-1354.58 1268.39,-1355.52 1267.6,-1356.47 1266.66,-1357.4 1265.58,-1358.33 1264.36,-1359.26 1263.01,-1360.17 1261.54,-1361.06 1259.96,-1361.94 1258.27,-1362.8 1256.49,-1363.64 1254.63,-1364.46 1252.68,-1365.25 1250.66,-1366.01 1248.58,-1366.75 1246.44,-1367.45 1244.24,-1368.11 1242,-1368.74 1239.72,-1369.34 1237.41,-1369.89 1235.06,-1370.41 1232.69,-1370.88 1230.29,-1371.3 1227.88,-1371.69 1225.45,-1372.03 1223.01,-1372.32 1220.56,-1372.56 1218.1,-1372.76 1215.64,-1372.9 1213.17,-1373 1210.7,-1373.05 1208.22,-1373.05 1205.75,-1373 1203.28,-1372.9 1200.82,-1372.76 1198.36,-1372.56 1195.91,-1372.32 1193.47,-1372.03 1191.04,-1371.69 1188.62,-1371.3 1186.23,-1370.88 1183.86,-1370.41 1181.51,-1369.89 1179.2,-1369.34 1176.92,-1368.74 1174.68,-1368.11 1172.48,-1367.45 1170.34,-1366.75 1168.26,-1366.01 1166.24,-1365.25 1164.29,-1364.46 1162.42,-1363.64 1160.65,-1362.8 1158.96,-1361.94 1157.38,-1361.06 1155.91,-1360.17 1154.56,-1359.26 1153.34,-1358.33 1152.26,-1357.4 1151.32,-1356.47 1150.53,-1355.52 1149.9,-1354.58 1149.43,-1353.64 1149.14,-1352.7 1149.02,-1351.77 1149.09,-1350.85 1149.35,-1349.94 1149.8,-1349.04 1150.44,-1348.16 1151.28,-1347.3 1152.32,-1346.46 1153.56,-1345.64 1154.99,-1344.85 1156.62,-1344.09 1158.44,-1343.36 1160.45,-1342.66 1162.65,-1341.99 1165.02,-1341.36 1167.56,-1340.77 1170.27,-1340.21 1173.12,-1339.7 1176.13,-1339.23 1179.26,-1338.8 1182.52,-1338.42 1185.88,-1338.08 1189.35,-1337.79 1192.89,-1337.54 1196.5,-1337.35 1200.16,-1337.2 1203.87,-1337.1 1207.59,-1337.05 1211.33,-1337.05 1215.05,-1337.1"/>
<text text-anchor="middle" x="1209.46" y="-1351.35" font-family="Times,serif" font-size="14.00">Circulaire</text>
</g>
<!-- tF&#45;&gt;fC -->
<g id="edge17" class="edge">
<title>tF&#45;&gt;fC</title>
<path fill="none" stroke="lightblue" stroke-width="5" d="M1028.74,-1199.13C1110.46,-1289.96 1130.59,-1311.2 1169.48,-1333.71"/>
<polygon fill="lightblue" stroke="lightblue" stroke-width="5" points="1167.8,-1337.78 1178.66,-1338.87 1172.09,-1330.15 1167.8,-1337.78"/>
</g>
<!-- fQ -->
<g id="node14" class="node">
<title>fQ</title>
<polygon fill="lightcyan" stroke="lightblue" stroke-width="2" points="996.49,-1423.78 1000.77,-1423.88 1005,-1424.03 1009.17,-1424.23 1013.26,-1424.47 1017.26,-1424.76 1021.15,-1425.1 1024.91,-1425.48 1028.53,-1425.91 1032,-1426.38 1035.3,-1426.9 1038.43,-1427.45 1041.37,-1428.04 1044.11,-1428.67 1046.64,-1429.34 1048.96,-1430.04 1051.07,-1430.77 1052.95,-1431.54 1054.61,-1432.33 1056.03,-1433.14 1057.23,-1433.98 1058.2,-1434.84 1058.95,-1435.72 1059.47,-1436.62 1059.76,-1437.53 1059.84,-1438.45 1059.71,-1439.38 1059.37,-1440.32 1058.84,-1441.26 1058.11,-1442.21 1057.2,-1443.15 1056.11,-1444.08 1054.86,-1445.02 1053.45,-1445.94 1051.89,-1446.85 1050.19,-1447.75 1048.36,-1448.63 1046.42,-1449.49 1044.36,-1450.33 1042.21,-1451.14 1039.96,-1451.93 1037.63,-1452.7 1035.22,-1453.43 1032.74,-1454.13 1030.21,-1454.8 1027.62,-1455.43 1024.99,-1456.02 1022.31,-1456.57 1019.6,-1457.09 1016.86,-1457.56 1014.1,-1457.99 1011.31,-1458.37 1008.5,-1458.71 1005.68,-1459 1002.85,-1459.24 1000.01,-1459.44 997.16,-1459.59 994.31,-1459.69 991.46,-1459.73 988.6,-1459.73 985.75,-1459.69 982.89,-1459.59 980.05,-1459.44 977.2,-1459.24 974.37,-1459 971.55,-1458.71 968.75,-1458.37 965.96,-1457.99 963.19,-1457.56 960.45,-1457.09 957.74,-1456.57 955.07,-1456.02 952.44,-1455.43 949.85,-1454.8 947.31,-1454.13 944.84,-1453.43 942.43,-1452.7 940.1,-1451.93 937.85,-1451.14 935.69,-1450.33 933.64,-1449.49 931.69,-1448.63 929.87,-1447.75 928.17,-1446.85 926.61,-1445.94 925.2,-1445.02 923.95,-1444.08 922.86,-1443.15 921.95,-1442.21 921.22,-1441.26 920.68,-1440.32 920.35,-1439.38 920.21,-1438.45 920.29,-1437.53 920.59,-1436.62 921.11,-1435.72 921.85,-1434.84 922.82,-1433.98 924.02,-1433.14 925.45,-1432.33 927.11,-1431.54 928.99,-1430.77 931.09,-1430.04 933.42,-1429.34 935.95,-1428.67 938.69,-1428.04 941.63,-1427.45 944.75,-1426.9 948.06,-1426.38 951.52,-1425.91 955.15,-1425.48 958.91,-1425.1 962.8,-1424.76 966.79,-1424.47 970.89,-1424.23 975.06,-1424.03 979.29,-1423.88 983.57,-1423.78 987.87,-1423.73 992.19,-1423.73 996.49,-1423.78"/>
<text text-anchor="middle" x="990.03" y="-1438.03" font-family="Times,serif" font-size="14.00">Quelconque</text>
</g>
<!-- tF&#45;&gt;fQ -->
<g id="edge18" class="edge">
<title>tF&#45;&gt;fQ</title>
<path fill="none" stroke="lightblue" stroke-width="5" d="M1013.64,-1200.63C1014.17,-1340.37 1013.63,-1361.61 998.47,-1413.77"/>
<polygon fill="lightblue" stroke="lightblue" stroke-width="5" points="994.22,-1412.7 995.58,-1423.53 1002.61,-1415.19 994.22,-1412.7"/>
</g>
<!-- mU -->
<g id="node16" class="node">
<title>mU</title>
<polygon fill="lightcyan" stroke="lightblue" stroke-width="2" points="1601.51,-757.97 1609.27,-758.11 1616.94,-758.33 1624.5,-758.62 1631.91,-758.99 1639.16,-759.42 1646.2,-759.92 1653.02,-760.49 1659.59,-761.13 1665.87,-761.83 1671.86,-762.59 1677.52,-763.42 1682.84,-764.3 1687.81,-765.24 1692.4,-766.23 1696.61,-767.27 1700.42,-768.36 1703.83,-769.49 1706.83,-770.67 1709.42,-771.88 1711.59,-773.13 1713.35,-774.41 1714.7,-775.72 1715.64,-777.05 1716.18,-778.4 1716.32,-779.78 1716.08,-781.16 1715.47,-782.55 1714.5,-783.95 1713.18,-785.35 1711.53,-786.75 1709.56,-788.15 1707.28,-789.53 1704.73,-790.9 1701.9,-792.26 1698.83,-793.59 1695.52,-794.9 1692,-796.18 1688.27,-797.43 1684.36,-798.64 1680.29,-799.81 1676.06,-800.95 1671.7,-802.04 1667.22,-803.08 1662.62,-804.07 1657.93,-805.01 1653.16,-805.89 1648.31,-806.71 1643.4,-807.48 1638.43,-808.18 1633.42,-808.81 1628.37,-809.38 1623.29,-809.89 1618.18,-810.32 1613.05,-810.68 1607.9,-810.97 1602.74,-811.19 1597.57,-811.34 1592.39,-811.41 1587.22,-811.41 1582.04,-811.34 1576.88,-811.19 1571.71,-810.97 1566.57,-810.68 1561.43,-810.32 1556.32,-809.89 1551.24,-809.38 1546.19,-808.81 1541.18,-808.18 1536.21,-807.48 1531.3,-806.71 1526.45,-805.89 1521.68,-805.01 1516.99,-804.07 1512.4,-803.08 1507.91,-802.04 1503.55,-800.95 1499.33,-799.81 1495.25,-798.64 1491.34,-797.43 1487.62,-796.18 1484.09,-794.9 1480.78,-793.59 1477.71,-792.26 1474.88,-790.9 1472.33,-789.53 1470.06,-788.15 1468.09,-786.75 1466.43,-785.35 1465.11,-783.95 1464.14,-782.55 1463.53,-781.16 1463.29,-779.78 1463.44,-778.4 1463.97,-777.05 1464.91,-775.72 1466.26,-774.41 1468.02,-773.13 1470.19,-771.88 1472.78,-770.67 1475.78,-769.49 1479.19,-768.36 1483,-767.27 1487.21,-766.23 1491.81,-765.24 1496.77,-764.3 1502.09,-763.42 1507.76,-762.59 1513.74,-761.83 1520.03,-761.13 1526.59,-760.49 1533.41,-759.92 1540.45,-759.42 1547.7,-758.99 1555.12,-758.62 1562.68,-758.33 1570.35,-758.11 1578.1,-757.97 1585.9,-757.89 1593.71,-757.89 1601.51,-757.97"/>
<text text-anchor="middle" x="1589.81" y="-788.45" font-family="Times,serif" font-size="14.00">Uniforme</text>
<text text-anchor="middle" x="1589.81" y="-773.45" font-family="Times,serif" font-size="14.00">(si vitesse constante)</text>
</g>
<!-- tV&#45;&gt;mU -->
<g id="edge13" class="edge">
<title>tV&#45;&gt;mU</title>
<path fill="none" stroke="lightblue" stroke-width="5" d="M1444.36,-818.55C1476.97,-815.27 1498.18,-812.34 1516.43,-808.35"/>
<polygon fill="lightblue" stroke="lightblue" stroke-width="5" points="1517.59,-812.57 1526.32,-806.01 1515.58,-804.05 1517.59,-812.57"/>
</g>
<!-- mA -->
<g id="node17" class="node">
<title>mA</title>
<polygon fill="lightcyan" stroke="lightblue" stroke-width="2" points="1462.05,-571.1 1469.9,-571.24 1477.66,-571.46 1485.31,-571.75 1492.82,-572.12 1500.15,-572.55 1507.28,-573.05 1514.18,-573.62 1520.82,-574.26 1527.18,-574.96 1533.24,-575.72 1538.97,-576.55 1544.35,-577.43 1549.38,-578.37 1554.02,-579.36 1558.28,-580.4 1562.14,-581.49 1565.59,-582.62 1568.63,-583.8 1571.25,-585.01 1573.45,-586.26 1575.23,-587.54 1576.59,-588.85 1577.54,-590.18 1578.09,-591.53 1578.23,-592.9 1577.99,-594.29 1577.37,-595.68 1576.39,-597.08 1575.05,-598.48 1573.38,-599.88 1571.39,-601.28 1569.09,-602.66 1566.5,-604.03 1563.64,-605.39 1560.53,-606.72 1557.18,-608.03 1553.62,-609.31 1549.85,-610.56 1545.89,-611.77 1541.77,-612.94 1537.49,-614.08 1533.08,-615.17 1528.54,-616.21 1523.89,-617.2 1519.15,-618.14 1514.32,-619.02 1509.41,-619.84 1504.44,-620.61 1499.42,-621.31 1494.34,-621.94 1489.23,-622.51 1484.09,-623.02 1478.92,-623.45 1473.72,-623.81 1468.51,-624.1 1463.29,-624.32 1458.06,-624.47 1452.82,-624.54 1447.59,-624.54 1442.35,-624.47 1437.12,-624.32 1431.9,-624.1 1426.69,-623.81 1421.5,-623.45 1416.32,-623.02 1411.18,-622.51 1406.07,-621.94 1401,-621.31 1395.97,-620.61 1391,-619.84 1386.1,-619.02 1381.27,-618.14 1376.52,-617.2 1371.87,-616.21 1367.33,-615.17 1362.92,-614.08 1358.64,-612.94 1354.52,-611.77 1350.56,-610.56 1346.8,-609.31 1343.23,-608.03 1339.88,-606.72 1336.77,-605.39 1333.91,-604.03 1331.32,-602.66 1329.02,-601.28 1327.03,-599.88 1325.36,-598.48 1324.02,-597.08 1323.04,-595.68 1322.42,-594.29 1322.18,-592.9 1322.32,-591.53 1322.87,-590.18 1323.82,-588.85 1325.18,-587.54 1326.96,-586.26 1329.16,-585.01 1331.78,-583.8 1334.82,-582.62 1338.27,-581.49 1342.13,-580.4 1346.39,-579.36 1351.03,-578.37 1356.06,-577.43 1361.45,-576.55 1367.18,-575.72 1373.23,-574.96 1379.59,-574.26 1386.24,-573.62 1393.13,-573.05 1400.26,-572.55 1407.6,-572.12 1415.1,-571.75 1422.75,-571.46 1430.51,-571.24 1438.36,-571.1 1446.25,-571.02 1454.16,-571.02 1462.05,-571.1"/>
<text text-anchor="middle" x="1450.21" y="-601.58" font-family="Times,serif" font-size="14.00">Accéléré</text>
<text text-anchor="middle" x="1450.21" y="-586.58" font-family="Times,serif" font-size="14.00">(si vitesse augmente)</text>
</g>
<!-- tV&#45;&gt;mA -->
<g id="edge14" class="edge">
<title>tV&#45;&gt;mA</title>
<path fill="none" stroke="lightblue" stroke-width="5" d="M1350.54,-810.27C1431.45,-724.02 1442.22,-708.37 1447.83,-634.95"/>
<polygon fill="lightblue" stroke="lightblue" stroke-width="5" points="1452.21,-634.99 1448.56,-624.7 1443.48,-634.37 1452.21,-634.99"/>
</g>
<!-- mR -->
<g id="node18" class="node">
<title>mR</title>
<polygon fill="lightcyan" stroke="lightblue" stroke-width="2" points="1532.41,-983.05 1539.61,-983.19 1546.73,-983.41 1553.75,-983.7 1560.63,-984.07 1567.36,-984.5 1573.9,-985 1580.23,-985.57 1586.32,-986.21 1592.16,-986.91 1597.71,-987.67 1602.97,-988.5 1607.91,-989.38 1612.52,-990.32 1616.78,-991.31 1620.69,-992.35 1624.23,-993.44 1627.39,-994.57 1630.18,-995.75 1632.58,-996.96 1634.6,-998.21 1636.23,-999.49 1637.48,-1000.8 1638.36,-1002.13 1638.86,-1003.48 1638.99,-1004.86 1638.77,-1006.24 1638.2,-1007.63 1637.3,-1009.03 1636.07,-1010.43 1634.54,-1011.83 1632.71,-1013.23 1630.6,-1014.61 1628.23,-1015.98 1625.61,-1017.34 1622.75,-1018.67 1619.68,-1019.98 1616.41,-1021.26 1612.95,-1022.51 1609.32,-1023.72 1605.54,-1024.9 1601.62,-1026.03 1597.57,-1027.12 1593.4,-1028.16 1589.14,-1029.15 1584.79,-1030.09 1580.36,-1030.97 1575.86,-1031.79 1571.3,-1032.56 1566.69,-1033.26 1562.03,-1033.89 1557.35,-1034.46 1552.63,-1034.97 1547.88,-1035.4 1543.12,-1035.76 1538.34,-1036.05 1533.55,-1036.27 1528.75,-1036.42 1523.95,-1036.49 1519.14,-1036.49 1514.34,-1036.42 1509.54,-1036.27 1504.75,-1036.05 1499.97,-1035.76 1495.21,-1035.4 1490.47,-1034.97 1485.75,-1034.46 1481.06,-1033.89 1476.41,-1033.26 1471.8,-1032.56 1467.24,-1031.79 1462.74,-1030.97 1458.31,-1030.09 1453.95,-1029.15 1449.69,-1028.16 1445.53,-1027.12 1441.48,-1026.03 1437.55,-1024.9 1433.77,-1023.72 1430.14,-1022.51 1426.69,-1021.26 1423.41,-1019.98 1420.34,-1018.67 1417.49,-1017.34 1414.87,-1015.98 1412.49,-1014.61 1410.38,-1013.23 1408.56,-1011.83 1407.02,-1010.43 1405.8,-1009.03 1404.89,-1007.63 1404.32,-1006.24 1404.1,-1004.86 1404.24,-1003.48 1404.74,-1002.13 1405.61,-1000.8 1406.86,-999.49 1408.49,-998.21 1410.51,-996.96 1412.91,-995.75 1415.7,-994.57 1418.86,-993.44 1422.4,-992.35 1426.31,-991.31 1430.57,-990.32 1435.18,-989.38 1440.12,-988.5 1445.38,-987.67 1450.94,-986.91 1456.77,-986.21 1462.86,-985.57 1469.19,-985 1475.73,-984.5 1482.46,-984.07 1489.34,-983.7 1496.36,-983.41 1503.48,-983.19 1510.68,-983.05 1517.92,-982.97 1525.17,-982.97 1532.41,-983.05"/>
<text text-anchor="middle" x="1521.55" y="-1013.53" font-family="Times,serif" font-size="14.00">Ralenti</text>
<text text-anchor="middle" x="1521.55" y="-998.53" font-family="Times,serif" font-size="14.00">(si vitesse diminue)</text>
</g>
<!-- tV&#45;&gt;mR -->
<g id="edge15" class="edge">
<title>tV&#45;&gt;mR</title>
<path fill="none" stroke="lightblue" stroke-width="5" d="M1356.89,-845.93C1453,-917.71 1473.89,-934.74 1499.75,-974.29"/>
<polygon fill="lightblue" stroke="lightblue" stroke-width="5" points="1496.31,-977.02 1505.38,-983.1 1503.68,-972.31 1496.31,-977.02"/>
</g>
</g>
</svg>
