<?xml version="1.0" encoding="UTF-8" standalone="no"?>
<!DOCTYPE svg PUBLIC "-//W3C//DTD SVG 1.1//EN"
 "http://www.w3.org/Graphics/SVG/1.1/DTD/svg11.dtd">
<!-- Generated by graphviz version 2.43.0 (0)
 -->
<!-- Title: myGraph Pages: 1 -->
<svg width="171pt" height="132pt"
 viewBox="0.00 0.00 171.40 132.01" xmlns="http://www.w3.org/2000/svg" xmlns:xlink="http://www.w3.org/1999/xlink">
<g id="graph0" class="graph" transform="scale(1 1) rotate(0) translate(4 128.01)">
<title>myGraph</title>
<polygon fill="white" stroke="transparent" points="-4,4 -4,-128.01 167.4,-128.01 167.4,4 -4,4"/>
<!-- G -->
<g id="node1" class="node">
<title>G</title>
<ellipse fill="none" stroke="black" cx="74.55" cy="-18" rx="63.89" ry="18"/>
<text text-anchor="middle" x="74.55" y="-14.3" font-family="Times,serif" font-size="14.00">Générateur</text>
</g>
<!-- DEL -->
<g id="node3" class="node">
<title>DEL</title>
<ellipse fill="none" stroke="black" cx="30.55" cy="-62" rx="30.59" ry="18"/>
<text text-anchor="middle" x="30.55" y="-58.3" font-family="Times,serif" font-size="14.00">DEL</text>
</g>
<!-- G&#45;&gt;DEL -->
<g id="edge1" class="edge">
<title>G&#45;&gt;DEL</title>
<path fill="none" stroke="black" d="M45.19,-34.19C44.73,-34.69 44.29,-35.2 43.85,-35.73"/>
<polygon fill="black" stroke="black" points="40.88,-33.89 38.54,-44.22 46.81,-37.6 40.88,-33.89"/>
</g>
<!-- M -->
<g id="node2" class="node">
<title>M</title>
<ellipse fill="none" stroke="black" cx="118.56" cy="-62" rx="44.69" ry="18"/>
<text text-anchor="middle" x="118.56" y="-58.3" font-family="Times,serif" font-size="14.00">Moteur</text>
</g>
<!-- M&#45;&gt;G -->
<g id="edge4" class="edge">
<title>M&#45;&gt;G</title>
<path fill="none" stroke="black" d="M110.44,-43.99C110.25,-43.61 110.05,-43.24 109.86,-42.88"/>
<polygon fill="black" stroke="black" points="112.56,-40.62 104.04,-34.32 106.77,-44.56 112.56,-40.62"/>
</g>
<!-- Interrupteur -->
<g id="node4" class="node">
<title>Interrupteur</title>
<ellipse fill="none" stroke="black" cx="74.55" cy="-106.01" rx="69.59" ry="18"/>
<text text-anchor="middle" x="74.55" y="-102.31" font-family="Times,serif" font-size="14.00">Interrupteur</text>
</g>
<!-- DEL&#45;&gt;Interrupteur -->
<g id="edge2" class="edge">
<title>DEL&#45;&gt;Interrupteur</title>
<path fill="none" stroke="black" d="M38.44,-79.59C38.71,-80.11 38.97,-80.61 39.23,-81.1"/>
<polygon fill="black" stroke="black" points="36.4,-83.16 44.89,-89.49 42.2,-79.25 36.4,-83.16"/>
</g>
<!-- Interrupteur&#45;&gt;M -->
<g id="edge3" class="edge">
<title>Interrupteur&#45;&gt;M</title>
<path fill="none" stroke="black" d="M104.16,-89.55C104.45,-89.23 104.73,-88.9 105.01,-88.57"/>
<polygon fill="black" stroke="black" points="108.07,-90.28 110.47,-79.97 102.16,-86.53 108.07,-90.28"/>
</g>
</g>
</svg>
