<?xml version="1.0" encoding="UTF-8" standalone="no"?>
<!DOCTYPE svg PUBLIC "-//W3C//DTD SVG 1.1//EN"
 "http://www.w3.org/Graphics/SVG/1.1/DTD/svg11.dtd">
<!-- Generated by graphviz version 2.43.0 (0)
 -->
<!-- Title: myGraph Pages: 1 -->
<svg width="563pt" height="715pt"
 viewBox="0.00 0.00 563.05 714.97" xmlns="http://www.w3.org/2000/svg" xmlns:xlink="http://www.w3.org/1999/xlink">
<g id="graph0" class="graph" transform="scale(1 1) rotate(0) translate(4 710.97)">
<title>myGraph</title>
<polygon fill="white" stroke="transparent" points="-4,4 -4,-710.97 559.05,-710.97 559.05,4 -4,4"/>
<g id="clust1" class="cluster">
<title>clusterF</title>
<polygon fill="white" stroke="white" points="25.72,-452.43 25.72,-706.97 342.1,-706.97 342.1,-452.43 25.72,-452.43"/>
</g>
<g id="clust3" class="cluster">
<title>clusterC</title>
<polygon fill="white" stroke="white" points="0,0 0,-488.43 555.05,-488.43 555.05,0 0,0"/>
</g>
<!-- Sb -->
<g id="node1" class="node">
<title>Sb</title>
<g id="a_node1"><a xlink:title="Au centre, peut être illustré avec une image">
<polygon fill="coral" stroke="coral" points="270.73,-488.43 148.73,-488.43 148.73,-452.43 270.73,-452.43 270.73,-488.43"/>
<text text-anchor="middle" x="209.73" y="-466.73" font-family="Times,serif" font-size="14.00">Sujet principal</text>
</a>
</g>
</g>
<!-- Fo -->
<g id="node2" class="node">
<title>Fo</title>
<polygon fill="lightgrey" stroke="black" points="193.8,-576.64 197.18,-576.74 200.53,-576.89 203.83,-577.08 207.07,-577.33 210.24,-577.62 213.31,-577.95 216.29,-578.34 219.16,-578.77 221.9,-579.24 224.51,-579.75 226.99,-580.3 229.31,-580.9 231.48,-581.53 233.49,-582.2 235.32,-582.9 236.99,-583.63 238.48,-584.39 239.79,-585.18 240.92,-586 241.87,-586.84 242.63,-587.7 243.22,-588.58 243.63,-589.48 243.87,-590.39 243.93,-591.31 243.83,-592.24 243.56,-593.18 243.13,-594.12 242.56,-595.06 241.84,-596 240.98,-596.94 239.99,-597.87 238.87,-598.79 237.64,-599.7 236.29,-600.6 234.85,-601.48 233.31,-602.34 231.68,-603.18 229.98,-604 228.2,-604.79 226.35,-605.55 224.45,-606.28 222.49,-606.98 220.48,-607.65 218.44,-608.28 216.35,-608.88 214.23,-609.43 212.09,-609.94 209.92,-610.41 207.73,-610.84 205.53,-611.23 203.31,-611.56 201.08,-611.85 198.84,-612.1 196.59,-612.29 194.33,-612.44 192.08,-612.54 189.82,-612.59 187.56,-612.59 185.3,-612.54 183.04,-612.44 180.79,-612.29 178.54,-612.1 176.3,-611.85 174.07,-611.56 171.85,-611.23 169.64,-610.84 167.45,-610.41 165.29,-609.94 163.14,-609.43 161.02,-608.88 158.94,-608.28 156.89,-607.65 154.89,-606.98 152.93,-606.28 151.02,-605.55 149.18,-604.79 147.4,-604 145.69,-603.18 144.07,-602.34 142.53,-601.48 141.08,-600.6 139.74,-599.7 138.51,-598.79 137.39,-597.87 136.4,-596.94 135.54,-596 134.82,-595.06 134.24,-594.12 133.82,-593.18 133.55,-592.24 133.44,-591.31 133.51,-590.39 133.74,-589.48 134.15,-588.58 134.74,-587.7 135.51,-586.84 136.46,-586 137.59,-585.18 138.9,-584.39 140.39,-583.63 142.05,-582.9 143.89,-582.2 145.9,-581.53 148.06,-580.9 150.39,-580.3 152.86,-579.75 155.47,-579.24 158.22,-578.77 161.08,-578.34 164.06,-577.95 167.14,-577.62 170.3,-577.33 173.54,-577.08 176.84,-576.89 180.19,-576.74 183.58,-576.64 186.98,-576.59 190.39,-576.59 193.8,-576.64"/>
<text text-anchor="middle" x="188.69" y="-590.89" font-family="Times,serif" font-size="14.00">La forme</text>
</g>
<!-- Sb&#45;&gt;Fo -->
<g id="edge1" class="edge">
<title>Sb&#45;&gt;Fo</title>
<path fill="none" stroke="limegreen" stroke-width="5" d="M205.37,-488.46C194.43,-533.77 190.84,-549.84 189.54,-566.47"/>
<polygon fill="limegreen" stroke="limegreen" stroke-width="5" points="185.17,-566.34 189,-576.56 193.9,-566.8 185.17,-566.34"/>
</g>
<!-- Cu -->
<g id="node5" class="node">
<title>Cu</title>
<polygon fill="lightgrey" stroke="black" points="228.94,-330.42 232.96,-330.52 236.93,-330.66 240.84,-330.86 244.69,-331.1 248.44,-331.4 252.09,-331.73 255.62,-332.12 259.01,-332.54 262.27,-333.02 265.37,-333.53 268.3,-334.08 271.06,-334.68 273.63,-335.31 276,-335.97 278.18,-336.67 280.16,-337.41 281.92,-338.17 283.48,-338.96 284.82,-339.78 285.94,-340.62 286.85,-341.48 287.55,-342.36 288.04,-343.25 288.32,-344.17 288.39,-345.09 288.27,-346.02 287.95,-346.96 287.45,-347.9 286.76,-348.84 285.91,-349.78 284.89,-350.72 283.71,-351.65 282.39,-352.57 280.93,-353.48 279.33,-354.38 277.62,-355.26 275.8,-356.12 273.87,-356.96 271.84,-357.78 269.73,-358.57 267.55,-359.33 265.29,-360.06 262.96,-360.76 260.59,-361.43 258.16,-362.06 255.69,-362.65 253.18,-363.21 250.63,-363.72 248.06,-364.19 245.47,-364.62 242.85,-365 240.22,-365.34 237.57,-365.63 234.92,-365.88 232.25,-366.07 229.58,-366.22 226.9,-366.32 224.22,-366.37 221.54,-366.37 218.86,-366.32 216.19,-366.22 213.52,-366.07 210.85,-365.88 208.19,-365.63 205.55,-365.34 202.91,-365 200.3,-364.62 197.7,-364.19 195.13,-363.72 192.59,-363.21 190.08,-362.65 187.61,-362.06 185.18,-361.43 182.8,-360.76 180.48,-360.06 178.22,-359.33 176.03,-358.57 173.92,-357.78 171.9,-356.96 169.97,-356.12 168.15,-355.26 166.43,-354.38 164.84,-353.48 163.38,-352.57 162.05,-351.65 160.88,-350.72 159.86,-349.78 159,-348.84 158.32,-347.9 157.81,-346.96 157.5,-346.02 157.37,-345.09 157.45,-344.17 157.73,-343.25 158.21,-342.36 158.91,-341.48 159.82,-340.62 160.95,-339.78 162.29,-338.96 163.84,-338.17 165.61,-337.41 167.58,-336.67 169.76,-335.97 172.14,-335.31 174.71,-334.68 177.47,-334.08 180.4,-333.53 183.5,-333.02 186.75,-332.54 190.15,-332.12 193.68,-331.73 197.33,-331.4 201.08,-331.1 204.92,-330.86 208.84,-330.66 212.81,-330.52 216.82,-330.42 220.86,-330.37 224.91,-330.37 228.94,-330.42"/>
<text text-anchor="middle" x="222.88" y="-344.67" font-family="Times,serif" font-size="14.00">Le contenu</text>
</g>
<!-- Sb&#45;&gt;Cu -->
<g id="edge4" class="edge">
<title>Sb&#45;&gt;Cu</title>
<path fill="none" stroke="orange" stroke-width="5" d="M205.21,-452.38C199.82,-428.63 201.24,-417.6 214.14,-376.02"/>
<polygon fill="orange" stroke="orange" stroke-width="5" points="218.35,-377.21 217.17,-366.36 210,-374.59 218.35,-377.21"/>
</g>
<!-- Co -->
<g id="node3" class="node">
<title>Co</title>
<g id="a_node3"><a xlink:title="Utilisation d&#39;un code couleur pour organiser les informations">
<polygon fill="lightgrey" stroke="black" points="80.93,-638.85 84.03,-638.95 87.09,-639.1 90.11,-639.3 93.08,-639.54 95.97,-639.83 98.79,-640.17 101.51,-640.55 104.13,-640.98 106.64,-641.45 109.04,-641.97 111.3,-642.52 113.43,-643.11 115.41,-643.74 117.24,-644.41 118.93,-645.11 120.45,-645.84 121.81,-646.61 123.01,-647.4 124.05,-648.21 124.91,-649.05 125.62,-649.91 126.16,-650.79 126.53,-651.69 126.75,-652.6 126.8,-653.52 126.71,-654.46 126.46,-655.39 126.08,-656.33 125.55,-657.28 124.89,-658.22 124.1,-659.16 123.19,-660.09 122.17,-661.01 121.04,-661.92 119.81,-662.82 118.49,-663.7 117.08,-664.56 115.59,-665.4 114.03,-666.21 112.41,-667 110.72,-667.77 108.97,-668.5 107.18,-669.2 105.35,-669.87 103.47,-670.5 101.56,-671.09 99.63,-671.64 97.67,-672.16 95.68,-672.63 93.68,-673.06 91.66,-673.44 89.63,-673.78 87.59,-674.07 85.54,-674.31 83.48,-674.51 81.42,-674.66 79.35,-674.76 77.28,-674.81 75.22,-674.81 73.15,-674.76 71.08,-674.66 69.02,-674.51 66.96,-674.31 64.91,-674.07 62.87,-673.78 60.84,-673.44 58.82,-673.06 56.82,-672.63 54.84,-672.16 52.87,-671.64 50.94,-671.09 49.03,-670.5 47.15,-669.87 45.32,-669.2 43.53,-668.5 41.78,-667.77 40.1,-667 38.47,-666.21 36.91,-665.4 35.42,-664.56 34.01,-663.7 32.69,-662.82 31.46,-661.92 30.33,-661.01 29.31,-660.09 28.4,-659.16 27.61,-658.22 26.95,-657.28 26.43,-656.33 26.04,-655.39 25.79,-654.46 25.7,-653.52 25.75,-652.6 25.97,-651.69 26.35,-650.79 26.88,-649.91 27.59,-649.05 28.45,-648.21 29.49,-647.4 30.69,-646.61 32.05,-645.84 33.57,-645.11 35.26,-644.41 37.09,-643.74 39.08,-643.11 41.2,-642.52 43.47,-641.97 45.86,-641.45 48.37,-640.98 50.99,-640.55 53.71,-640.17 56.53,-639.83 59.43,-639.54 62.39,-639.3 65.41,-639.1 68.48,-638.95 71.57,-638.85 74.69,-638.81 77.81,-638.81 80.93,-638.85"/>
<text text-anchor="middle" x="76.25" y="-653.11" font-family="Times,serif" font-size="14.00">Couleur</text>
</a>
</g>
</g>
<!-- Fo&#45;&gt;Co -->
<g id="edge2" class="edge">
<title>Fo&#45;&gt;Co</title>
<path fill="none" stroke="limegreen" stroke-width="5" d="M168.26,-610.64C150.05,-624.87 138.08,-633.86 128.13,-639.95"/>
<polygon fill="limegreen" stroke="limegreen" stroke-width="5" points="125.71,-636.29 119.09,-644.97 129.95,-643.94 125.71,-636.29"/>
</g>
<!-- Ilu -->
<g id="node4" class="node">
<title>Ilu</title>
<g id="a_node4"><a xlink:title="Il est possible d&#39;ajouter une illustration">
<polygon fill="lightgrey" stroke="black" points="281.8,-671.02 285.87,-671.12 289.9,-671.27 293.86,-671.46 297.75,-671.71 301.56,-672 305.25,-672.34 308.83,-672.72 312.28,-673.15 315.57,-673.62 318.72,-674.13 321.69,-674.69 324.48,-675.28 327.09,-675.91 329.5,-676.58 331.7,-677.28 333.71,-678.01 335.5,-678.77 337.07,-679.56 338.43,-680.38 339.57,-681.22 340.49,-682.08 341.2,-682.96 341.69,-683.86 341.97,-684.77 342.05,-685.69 341.93,-686.62 341.6,-687.56 341.09,-688.5 340.4,-689.44 339.53,-690.39 338.5,-691.32 337.31,-692.25 335.97,-693.18 334.48,-694.09 332.87,-694.98 331.13,-695.86 329.28,-696.72 327.33,-697.56 325.28,-698.38 323.14,-699.17 320.92,-699.93 318.63,-700.67 316.28,-701.37 313.87,-702.03 311.41,-702.66 308.9,-703.26 306.36,-703.81 303.78,-704.33 301.18,-704.8 298.55,-705.22 295.9,-705.61 293.23,-705.95 290.55,-706.24 287.85,-706.48 285.15,-706.68 282.44,-706.82 279.73,-706.92 277.02,-706.97 274.3,-706.97 271.58,-706.92 268.87,-706.82 266.16,-706.68 263.46,-706.48 260.77,-706.24 258.09,-705.95 255.42,-705.61 252.77,-705.22 250.14,-704.8 247.53,-704.33 244.96,-703.81 242.41,-703.26 239.91,-702.66 237.45,-702.03 235.04,-701.37 232.68,-700.67 230.39,-699.93 228.18,-699.17 226.04,-698.38 223.99,-697.56 222.03,-696.72 220.18,-695.86 218.45,-694.98 216.83,-694.09 215.35,-693.18 214.01,-692.25 212.82,-691.32 211.78,-690.39 210.92,-689.44 210.22,-688.5 209.71,-687.56 209.39,-686.62 209.27,-685.69 209.34,-684.77 209.62,-683.86 210.12,-682.96 210.82,-682.08 211.75,-681.22 212.89,-680.38 214.25,-679.56 215.82,-678.77 217.61,-678.01 219.61,-677.28 221.82,-676.58 224.23,-675.91 226.84,-675.28 229.63,-674.69 232.6,-674.13 235.74,-673.62 239.04,-673.15 242.48,-672.72 246.06,-672.34 249.76,-672 253.56,-671.71 257.45,-671.46 261.42,-671.27 265.45,-671.12 269.51,-671.02 273.61,-670.97 277.71,-670.97 281.8,-671.02"/>
<text text-anchor="middle" x="275.66" y="-685.27" font-family="Times,serif" font-size="14.00">Illustration</text>
</a>
</g>
</g>
<!-- Fo&#45;&gt;Ilu -->
<g id="edge3" class="edge">
<title>Fo&#45;&gt;Ilu</title>
<path fill="none" stroke="limegreen" stroke-width="5" d="M198.44,-612.46C214.95,-642.52 223.58,-656.64 235.11,-666.54"/>
<polygon fill="limegreen" stroke="limegreen" stroke-width="5" points="232.59,-670.11 243.22,-672.55 237.8,-663.08 232.59,-670.11"/>
</g>
<!-- Ig -->
<g id="node6" class="node">
<title>Ig</title>
<g id="a_node6"><a xlink:title="Proches du centre">
<polygon fill="lightgrey" stroke="black" points="230.67,-201.99 236.13,-202.09 241.53,-202.24 246.85,-202.43 252.07,-202.68 257.18,-202.97 262.14,-203.31 266.94,-203.69 271.56,-204.12 275.98,-204.59 280.2,-205.1 284.18,-205.66 287.93,-206.25 291.43,-206.88 294.66,-207.55 297.62,-208.25 300.31,-208.98 302.71,-209.74 304.82,-210.53 306.64,-211.35 308.17,-212.19 309.41,-213.05 310.36,-213.93 311.02,-214.83 311.4,-215.74 311.5,-216.66 311.33,-217.59 310.9,-218.53 310.22,-219.47 309.29,-220.41 308.13,-221.35 306.74,-222.29 305.14,-223.22 303.34,-224.15 301.35,-225.06 299.19,-225.95 296.86,-226.83 294.38,-227.69 291.75,-228.53 289,-229.35 286.13,-230.14 283.16,-230.9 280.09,-231.64 276.93,-232.34 273.69,-233 270.39,-233.63 267.03,-234.23 263.62,-234.78 260.16,-235.29 256.67,-235.77 253.14,-236.19 249.58,-236.58 246,-236.91 242.4,-237.21 238.79,-237.45 235.17,-237.65 231.53,-237.79 227.89,-237.89 224.25,-237.94 220.61,-237.94 216.96,-237.89 213.32,-237.79 209.69,-237.65 206.07,-237.45 202.45,-237.21 198.86,-236.91 195.28,-236.58 191.72,-236.19 188.19,-235.77 184.7,-235.29 181.24,-234.78 177.83,-234.23 174.46,-233.63 171.16,-233 167.93,-232.34 164.77,-231.64 161.7,-230.9 158.72,-230.14 155.86,-229.35 153.1,-228.53 150.48,-227.69 148,-226.83 145.67,-225.95 143.51,-225.06 141.52,-224.15 139.72,-223.22 138.12,-222.29 136.73,-221.35 135.57,-220.41 134.64,-219.47 133.95,-218.53 133.52,-217.59 133.35,-216.66 133.46,-215.74 133.84,-214.83 134.5,-213.93 135.44,-213.05 136.68,-212.19 138.21,-211.35 140.04,-210.53 142.15,-209.74 144.55,-208.98 147.23,-208.25 150.2,-207.55 153.43,-206.88 156.93,-206.25 160.67,-205.66 164.66,-205.1 168.88,-204.59 173.3,-204.12 177.92,-203.69 182.72,-203.31 187.68,-202.97 192.78,-202.68 198.01,-202.43 203.33,-202.24 208.73,-202.09 214.19,-201.99 219.68,-201.94 225.18,-201.94 230.67,-201.99"/>
<text text-anchor="middle" x="222.43" y="-216.24" font-family="Times,serif" font-size="14.00">Idées générales</text>
</a>
</g>
</g>
<!-- Cu&#45;&gt;Ig -->
<g id="edge5" class="edge">
<title>Cu&#45;&gt;Ig</title>
<path fill="none" stroke="orange" stroke-width="5" d="M219.39,-330.08C210.4,-282.66 208.41,-267.51 213.3,-247.89"/>
<polygon fill="orange" stroke="orange" stroke-width="5" points="217.56,-248.9 216.15,-238.08 209.16,-246.47 217.56,-248.9"/>
</g>
<!-- Ip1 -->
<g id="node7" class="node">
<title>Ip1</title>
<g id="a_node7"><a xlink:title="Plus éloignées">
<polygon fill="lightgrey" stroke="black" points="113.41,-143.16 119.76,-143.26 126.05,-143.41 132.24,-143.61 138.32,-143.85 144.25,-144.14 150.02,-144.48 155.61,-144.86 160.99,-145.29 166.14,-145.76 171.04,-146.28 175.68,-146.83 180.04,-147.42 184.11,-148.05 187.87,-148.72 191.32,-149.42 194.44,-150.15 197.23,-150.92 199.69,-151.71 201.81,-152.52 203.59,-153.36 205.03,-154.22 206.14,-155.1 206.91,-156 207.35,-156.91 207.47,-157.83 207.27,-158.76 206.77,-159.7 205.97,-160.64 204.89,-161.59 203.54,-162.53 201.92,-163.46 200.06,-164.4 197.97,-165.32 195.66,-166.23 193.14,-167.13 190.43,-168.01 187.54,-168.87 184.49,-169.71 181.28,-170.52 177.95,-171.31 174.48,-172.08 170.91,-172.81 167.24,-173.51 163.47,-174.18 159.63,-174.81 155.72,-175.4 151.75,-175.95 147.73,-176.47 143.66,-176.94 139.55,-177.37 135.42,-177.75 131.25,-178.09 127.06,-178.38 122.86,-178.62 118.64,-178.82 114.42,-178.97 110.18,-179.07 105.94,-179.11 101.7,-179.11 97.46,-179.07 93.23,-178.97 89,-178.82 84.78,-178.62 80.58,-178.38 76.39,-178.09 72.23,-177.75 68.09,-177.37 63.98,-176.94 59.92,-176.47 55.89,-175.95 51.92,-175.4 48.01,-174.81 44.17,-174.18 40.41,-173.51 36.73,-172.81 33.16,-172.08 29.7,-171.31 26.36,-170.52 23.16,-169.71 20.11,-168.87 17.22,-168.01 14.51,-167.13 11.99,-166.23 9.68,-165.32 7.58,-164.4 5.72,-163.46 4.11,-162.53 2.75,-161.59 1.67,-160.64 0.87,-159.7 0.37,-158.76 0.18,-157.83 0.3,-156.91 0.74,-156 1.51,-155.1 2.61,-154.22 4.05,-153.36 5.83,-152.52 7.95,-151.71 10.41,-150.92 13.2,-150.15 16.33,-149.42 19.78,-148.72 23.54,-148.05 27.61,-147.42 31.97,-146.83 36.61,-146.28 41.51,-145.76 46.66,-145.29 52.04,-144.86 57.62,-144.48 63.39,-144.14 69.33,-143.85 75.4,-143.61 81.6,-143.41 87.88,-143.26 94.23,-143.16 100.62,-143.11 107.02,-143.11 113.41,-143.16"/>
<text text-anchor="middle" x="103.82" y="-157.41" font-family="Times,serif" font-size="14.00">Idées particulières</text>
</a>
</g>
</g>
<!-- Ig&#45;&gt;Ip1 -->
<g id="edge6" class="edge">
<title>Ig&#45;&gt;Ip1</title>
<path fill="none" stroke="orange" stroke-width="5" d="M196.74,-202.38C182.51,-192.72 171.96,-185.77 163.23,-180.6"/>
<polygon fill="orange" stroke="orange" stroke-width="5" points="165.26,-176.71 154.39,-175.64 160.98,-184.35 165.26,-176.71"/>
</g>
<!-- Ip2 -->
<g id="node8" class="node">
<title>Ip2</title>
<g id="a_node8"><a xlink:title="Plusieurs relations possibles">
<polygon fill="lightgrey" stroke="black" points="332.13,-118.76 338.66,-118.86 345.13,-119.01 351.51,-119.21 357.76,-119.45 363.87,-119.74 369.81,-120.08 375.56,-120.46 381.1,-120.89 386.4,-121.36 391.44,-121.87 396.22,-122.43 400.71,-123.02 404.89,-123.65 408.77,-124.32 412.31,-125.02 415.53,-125.75 418.41,-126.51 420.94,-127.31 423.12,-128.12 424.95,-128.96 426.43,-129.82 427.57,-130.7 428.36,-131.6 428.82,-132.51 428.94,-133.43 428.74,-134.36 428.22,-135.3 427.4,-136.24 426.29,-137.19 424.89,-138.13 423.23,-139.06 421.32,-140 419.16,-140.92 416.78,-141.83 414.19,-142.72 411.4,-143.6 408.42,-144.47 405.28,-145.31 401.99,-146.12 398.55,-146.91 394.99,-147.68 391.31,-148.41 387.53,-149.11 383.66,-149.77 379.7,-150.41 375.68,-151 371.59,-151.55 367.45,-152.07 363.26,-152.54 359.04,-152.97 354.78,-153.35 350.49,-153.69 346.18,-153.98 341.85,-154.22 337.51,-154.42 333.16,-154.57 328.8,-154.66 324.44,-154.71 320.07,-154.71 315.71,-154.66 311.35,-154.57 307,-154.42 302.66,-154.22 298.33,-153.98 294.02,-153.69 289.74,-153.35 285.48,-152.97 281.25,-152.54 277.07,-152.07 272.92,-151.55 268.84,-151 264.81,-150.41 260.86,-149.77 256.98,-149.11 253.2,-148.41 249.52,-147.68 245.96,-146.91 242.52,-146.12 239.23,-145.31 236.09,-144.47 233.12,-143.6 230.33,-142.72 227.73,-141.83 225.35,-140.92 223.2,-140 221.28,-139.06 219.62,-138.13 218.23,-137.19 217.11,-136.24 216.29,-135.3 215.78,-134.36 215.58,-133.43 215.7,-132.51 216.15,-131.6 216.94,-130.7 218.08,-129.82 219.56,-128.96 221.4,-128.12 223.58,-127.31 226.11,-126.51 228.98,-125.75 232.2,-125.02 235.75,-124.32 239.62,-123.65 243.81,-123.02 248.3,-122.43 253.07,-121.87 258.12,-121.36 263.42,-120.89 268.95,-120.46 274.7,-120.08 280.64,-119.74 286.75,-119.45 293.01,-119.21 299.38,-119.01 305.85,-118.86 312.38,-118.76 318.96,-118.71 325.55,-118.71 332.13,-118.76"/>
<text text-anchor="middle" x="322.26" y="-133.01" font-family="Times,serif" font-size="14.00">Croisement d&#39;idées</text>
</a>
</g>
</g>
<!-- Ig&#45;&gt;Ip2 -->
<g id="edge7" class="edge">
<title>Ig&#45;&gt;Ip2</title>
<path fill="none" stroke="orange" stroke-width="5" d="M235.51,-201.99C252.07,-179.43 262.04,-166.81 272.25,-158.44"/>
<polygon fill="orange" stroke="orange" stroke-width="5" points="274.98,-161.87 280.62,-152.53 269.93,-154.72 274.98,-161.87"/>
</g>
<!-- CI1 -->
<g id="node9" class="node">
<title>CI1</title>
<polygon fill="lightgrey" stroke="black" points="358.05,-0.05 362.46,-0.15 366.83,-0.3 371.13,-0.49 375.35,-0.74 379.47,-1.03 383.48,-1.36 387.35,-1.75 391.09,-2.18 394.66,-2.65 398.07,-3.16 401.29,-3.71 404.32,-4.31 407.14,-4.94 409.75,-5.61 412.15,-6.31 414.32,-7.04 416.26,-7.8 417.96,-8.59 419.44,-9.41 420.67,-10.25 421.67,-11.11 422.44,-11.99 422.97,-12.89 423.28,-13.8 423.36,-14.72 423.23,-15.65 422.88,-16.59 422.32,-17.53 421.57,-18.47 420.63,-19.41 419.51,-20.35 418.22,-21.28 416.77,-22.2 415.16,-23.11 413.41,-24.01 411.53,-24.89 409.52,-25.75 407.4,-26.59 405.18,-27.41 402.86,-28.2 400.46,-28.96 397.98,-29.69 395.43,-30.39 392.81,-31.06 390.15,-31.69 387.43,-32.29 384.67,-32.84 381.88,-33.35 379.06,-33.82 376.21,-34.25 373.33,-34.64 370.44,-34.97 367.53,-35.26 364.61,-35.51 361.69,-35.7 358.75,-35.85 355.81,-35.95 352.87,-36 349.92,-36 346.98,-35.95 344.04,-35.85 341.1,-35.7 338.17,-35.51 335.26,-35.26 332.35,-34.97 329.46,-34.64 326.58,-34.25 323.73,-33.82 320.91,-33.35 318.12,-32.84 315.36,-32.29 312.64,-31.69 309.97,-31.06 307.36,-30.39 304.81,-29.69 302.33,-28.96 299.93,-28.2 297.61,-27.41 295.39,-26.59 293.27,-25.75 291.26,-24.89 289.38,-24.01 287.63,-23.11 286.02,-22.2 284.57,-21.28 283.28,-20.35 282.16,-19.41 281.22,-18.47 280.47,-17.53 279.91,-16.59 279.56,-15.65 279.43,-14.72 279.51,-13.8 279.82,-12.89 280.35,-11.99 281.12,-11.11 282.12,-10.25 283.35,-9.41 284.83,-8.59 286.53,-7.8 288.47,-7.04 290.64,-6.31 293.04,-5.61 295.65,-4.94 298.47,-4.31 301.5,-3.71 304.72,-3.16 308.13,-2.65 311.7,-2.18 315.44,-1.75 319.31,-1.36 323.32,-1.03 327.44,-0.74 331.66,-0.49 335.96,-0.3 340.33,-0.15 344.74,-0.05 349.17,0 353.62,0 358.05,-0.05"/>
<text text-anchor="middle" x="351.39" y="-14.3" font-family="Times,serif" font-size="14.00">Cette idée...</text>
</g>
<!-- Ip2&#45;&gt;CI1 -->
<g id="edge8" class="edge">
<title>Ip2&#45;&gt;CI1</title>
<path fill="none" stroke="orange" stroke-width="5" d="M326.53,-118.67C336.45,-76.74 340.3,-60.63 344.07,-45.86"/>
<polygon fill="orange" stroke="orange" stroke-width="5" points="348.33,-46.87 346.6,-36.1 339.86,-44.68 348.33,-46.87"/>
</g>
<!-- CI2 -->
<g id="node10" class="node">
<title>CI2</title>
<polygon fill="lightgrey" stroke="black" points="447.02,-73.53 454.32,-73.63 461.54,-73.77 468.66,-73.97 475.64,-74.21 482.46,-74.51 489.09,-74.84 495.51,-75.23 501.69,-75.66 507.6,-76.13 513.24,-76.64 518.57,-77.19 523.58,-77.79 528.25,-78.42 532.58,-79.08 536.54,-79.79 540.13,-80.52 543.34,-81.28 546.17,-82.07 548.6,-82.89 550.65,-83.73 552.3,-84.59 553.57,-85.47 554.46,-86.37 554.96,-87.28 555.1,-88.2 554.87,-89.13 554.3,-90.07 553.38,-91.01 552.14,-91.95 550.58,-92.89 548.73,-93.83 546.59,-94.76 544.18,-95.68 541.53,-96.59 538.63,-97.49 535.52,-98.37 532.2,-99.23 528.69,-100.07 525.01,-100.89 521.18,-101.68 517.2,-102.44 513.09,-103.17 508.87,-103.87 504.55,-104.54 500.13,-105.17 495.64,-105.76 491.08,-106.32 486.45,-106.83 481.78,-107.3 477.06,-107.73 472.3,-108.12 467.52,-108.45 462.71,-108.74 457.88,-108.99 453.03,-109.18 448.17,-109.33 443.31,-109.43 438.44,-109.48 433.56,-109.48 428.69,-109.43 423.83,-109.33 418.97,-109.18 414.12,-108.99 409.29,-108.74 404.48,-108.45 399.7,-108.12 394.94,-107.73 390.22,-107.3 385.55,-106.83 380.93,-106.32 376.36,-105.76 371.87,-105.17 367.45,-104.54 363.13,-103.87 358.91,-103.17 354.8,-102.44 350.82,-101.68 346.99,-100.89 343.31,-100.07 339.8,-99.23 336.48,-98.37 333.37,-97.49 330.47,-96.59 327.82,-95.68 325.41,-94.76 323.27,-93.83 321.42,-92.89 319.86,-91.95 318.62,-91.01 317.7,-90.07 317.13,-89.13 316.9,-88.2 317.04,-87.28 317.54,-86.37 318.43,-85.47 319.7,-84.59 321.35,-83.73 323.4,-82.89 325.83,-82.07 328.66,-81.28 331.87,-80.52 335.46,-79.79 339.42,-79.08 343.75,-78.42 348.42,-77.79 353.43,-77.19 358.76,-76.64 364.4,-76.13 370.31,-75.66 376.49,-75.23 382.91,-74.84 389.54,-74.51 396.36,-74.21 403.34,-73.97 410.46,-73.77 417.68,-73.63 424.98,-73.53 432.32,-73.48 439.68,-73.48 447.02,-73.53"/>
<text text-anchor="middle" x="436" y="-87.78" font-family="Times,serif" font-size="14.00">...et celle la sont liées</text>
</g>
<!-- Ip2&#45;&gt;CI2 -->
<g id="edge9" class="edge">
<title>Ip2&#45;&gt;CI2</title>
<path fill="none" stroke="orange" stroke-width="5" d="M348.4,-119.06C353.31,-115.8 357.72,-112.92 361.76,-110.39"/>
<polygon fill="orange" stroke="orange" stroke-width="5" points="364.25,-113.99 370.53,-105.07 359.71,-106.51 364.25,-113.99"/>
</g>
<!-- CI1&#45;&gt;CI2 -->
<g id="edge10" class="edge">
<title>CI1&#45;&gt;CI2</title>
<path fill="none" stroke="orange" stroke-width="5" d="M389.56,-32.03C401.23,-38.36 408.54,-46.8 419.69,-64.44"/>
<polygon fill="orange" stroke="orange" stroke-width="5" points="416.13,-67.01 425.1,-73.22 423.58,-62.42 416.13,-67.01"/>
</g>
</g>
</svg>
