<?xml version="1.0" encoding="iso-8859-1" standalone="no"?> 
<?xml-stylesheet href="latex-vEDHNy.css" type="text/css"?> 
<svg xmlns="http://www.w3.org/2000/svg" xmlns:xlink="http://www.w3.org/1999/xlink" width="361.64838pt" height="315.81482pt" viewBox="-184.99088 -157.90741 361.64838 315.81482 "> 
<g transform="translate(0, 157.90741 ) scale(1,-1) translate(0,157.90741 )"> 
                                                           <g stroke="#000" fill="#000">
 <g stroke-width="0.4">
 <path d=" M -141.80373 0.0 L 141.80373 0.0  " fill="none"/>
 <g transform="matrix(-1.0,0.0,0.0,-1.0,-141.80373,0.0)">
 <g stroke-width="0.31999">
 <g stroke-dasharray="none" stroke-dashoffset="0.0">
 <g stroke-linecap="round">
 <g stroke-linejoin="round">
 <path d=" M -1.19998 1.59998 C -1.09998 0.99998 0.0 0.09999 0.29999 0.0 C 0.0 -0.09999 -1.09998 -0.99998 -1.19998 -1.59998  " fill="none"/>
 </g>
 </g>
 </g>
 </g>
  </g>
 <g transform="translate(141.80373,0.0)">
 <g stroke-width="0.31999">
 <g stroke-dasharray="none" stroke-dashoffset="0.0">
 <g stroke-linecap="round">
 <g stroke-linejoin="round">
 <path d=" M -1.19998 1.59998 C -1.09998 0.99998 0.0 0.09999 0.29999 0.0 C 0.0 -0.09999 -1.09998 -0.99998 -1.19998 -1.59998  " fill="none"/>
 </g>
 </g>
 </g>
 </g>
  </g>
 <g transform="translate(-181.6579,-3.47221)">
 <g fill="#000">
 <text style="stroke:none" transform="scale(1,-1) translate(17.9306,0)" text-anchor="middle"  font-size="10"> 
<g fill="#000">
 <g stroke="none"> informel</g> </g>
 </text> 
</g>
 </g>
 <g transform="matrix(0.96593,0.25882,-0.25882,0.96593,-30.13672,-11.11191)">
 <g fill="#000">
 <text style="stroke:none" transform="scale(1,-1) translate(31.98578,0)" text-anchor="middle"  font-size="10"> 
<g fill="#000">
 <g stroke="none"> <tspan font-family="cmr" font-size="12">Coop</tspan><tspan font-family="cmr" font-size="12">ération</tspan></g> </g>
 </text> 
</g>
 </g>
 <g transform="translate(145.79669,-3.47221)">
 <g fill="#000">
 <text style="stroke:none" transform="scale(1,-1) translate(13.76392,0)" text-anchor="middle"  font-size="10"> 
<g fill="#000">
 <g stroke="none"> formel </g> </g>
 </text> 
</g>
 </g>
 <path d=" M 0.0 -141.80373 L 0.0 141.80373  " fill="none"/>
 <g transform="matrix(0.0,-1.0,1.0,0.0,0.0,-141.80373)">
 <g stroke-width="0.31999">
 <g stroke-dasharray="none" stroke-dashoffset="0.0">
 <g stroke-linecap="round">
 <g stroke-linejoin="round">
 <path d=" M -1.19998 1.59998 C -1.09998 0.99998 0.0 0.09999 0.29999 0.0 C 0.0 -0.09999 -1.09998 -0.99998 -1.19998 -1.59998  " fill="none"/>
 </g>
 </g>
 </g>
 </g>
  </g>
 <g transform="matrix(0.0,1.0,-1.0,0.0,0.0,141.80373)">
 <g stroke-width="0.31999">
 <g stroke-dasharray="none" stroke-dashoffset="0.0">
 <g stroke-linecap="round">
 <g stroke-linejoin="round">
 <path d=" M -1.19998 1.59998 C -1.09998 0.99998 0.0 0.09999 0.29999 0.0 C 0.0 -0.09999 -1.09998 -0.99998 -1.19998 -1.59998  " fill="none"/>
 </g>
 </g>
 </g>
 </g>
  </g>
 <g transform="translate(-26.11116,-152.63)">
 <g fill="#000">
 <text style="stroke:none" transform="scale(1,-1) translate(26.11116,0)" text-anchor="middle"  font-size="10"> 
<g fill="#000">
 <g stroke="none"> Dissymétrie </g> </g>
 </text> 
</g>
 </g>
 <g transform="translate(-19.73616,147.74112)">
 <g fill="#000">
 <text style="stroke:none" transform="scale(1,-1) translate(19.73616,0)" text-anchor="middle"  font-size="10"> 
<g fill="#000">
 <g stroke="none"> Symétrie </g> </g>
 </text> 
</g>
 </g>
 <g fill="#ffb3b3">
 <g fill="#ffb3b3">
 <path d=" M 14.42636 14.42636 h 113.811 v 113.811 h -113.811 Z  " stroke="none"/>
 </g>
 <g transform="translate(32.97069,68.83186)">
 <g fill="#000">
 <text style="stroke:none" transform="scale(1,-1) translate(38.36118,0)" text-anchor="middle"  font-size="10"> 
<g fill="#000">
 <g stroke="none"> Travail en groupe</g> </g>
 </text> 
</g>
 </g>
 </g>
 <g fill="#b3ffb3">
 <g fill="#b3ffb3">
 <path d=" M 14.42636 -128.23737 h 113.811 v 113.811 h -113.811 Z  " stroke="none"/>
 </g>
 <g transform="translate(54.51239,-74.74852)">
 <g fill="#000">
 <text style="stroke:none" transform="scale(1,-1) translate(16.81947,0)" text-anchor="middle"  font-size="10"> 
<g fill="#000">
 <g stroke="none"> Tutorat </g> </g>
 </text> 
</g>
 </g>
 </g>
 <g fill="#b3b3ff">
 <g fill="#b3b3ff">
 <path d=" M -128.23737 -128.23737 h 113.811 v 113.811 h -113.811 Z  " stroke="none"/>
 </g>
 <g transform="translate(-81.47076,-74.80408)">
 <g fill="#000">
 <text style="stroke:none" transform="scale(1,-1) translate(10.1389,0)" text-anchor="middle"  font-size="10"> 
<g fill="#000">
 <g stroke="none"> Aide </g> </g>
 </text> 
</g>
 </g>
 </g>
 <g fill="#f0dccc">
 <g fill="#f0dccc">
 <path d=" M -128.23737 14.42636 h 113.811 v 113.811 h -113.811 Z  " stroke="none"/>
 </g>
 <g transform="translate(-90.16524,67.85965)">
 <g fill="#000">
 <text style="stroke:none" transform="scale(1,-1) translate(18.83337,0)" text-anchor="middle"  font-size="10"> 
<g fill="#000">
 <g stroke="none"> Entraide </g> </g>
 </text> 
</g>
 </g>
 </g>
 </g>
 </g>
 
                                                                                                            </g> 
</svg> 
