<?xml version="1.0" encoding="iso-8859-1" standalone="no"?> 
<?xml-stylesheet href="latex-EYtsAi.css" type="text/css"?> 
<svg xmlns="http://www.w3.org/2000/svg" xmlns:xlink="http://www.w3.org/1999/xlink" width="284.92743pt" height="284.92743pt" viewBox="-142.46371 -142.46371 284.92743 284.92743 "> 
<g transform="translate(0, 142.46371 ) scale(1,-1) translate(0,142.46371 )"> 
                                               <g stroke="#000" fill="#000">
 <g stroke-width="0.4">
 <path d=" M -142.26372 0.0 L 141.80373 0.0  " fill="none"/>
 <g transform="translate(141.80373,0.0)">
 <g stroke-width="0.31999">
 <g stroke-dasharray="none" stroke-dashoffset="0.0">
 <g stroke-linecap="round">
 <g stroke-linejoin="round">
 <path d=" M -1.19998 1.59998 C -1.09998 0.99998 0.0 0.09999 0.29999 0.0 C 0.0 -0.09999 -1.09998 -0.99998 -1.19998 -1.59998  " fill="none"/>
 </g>
 </g>
 </g>
 </g>
  </g>
 <path d=" M 0.0 -142.26372 L 0.0 141.80373  " fill="none"/>
 <g transform="matrix(0.0,1.0,-1.0,0.0,0.0,141.80373)">
 <g stroke-width="0.31999">
 <g stroke-dasharray="none" stroke-dashoffset="0.0">
 <g stroke-linecap="round">
 <g stroke-linejoin="round">
 <path d=" M -1.19998 1.59998 C -1.09998 0.99998 0.0 0.09999 0.29999 0.0 C 0.0 -0.09999 -1.09998 -0.99998 -1.19998 -1.59998  " fill="none"/>
 </g>
 </g>
 </g>
 </g>
  </g>
 <g fill="#ffb3b3">
 <g fill="#ffb3b3">
 <path d=" M 14.42636 14.42636 h 120.47696 v 122.42142 h -120.47696 Z  " stroke="none"/>
 </g>
 <g transform="translate(17.75934,19.70378)">
 <g fill="#000">
 <text style="stroke:none" transform="scale(1,-1) translate(56.9055,0)" text-anchor="middle"  font-size="10"> 
<g fill="#000">
 <g stroke="none"> Travail en groupe           </g> </g>
 </text> 
</g>
 </g>
 </g>
 <g fill="#b3ffb3">
 <g fill="#b3ffb3">
 <path d=" M 14.42636 -134.90332 h 120.47696 v 120.47696 h -120.47696 Z  " stroke="none"/>
 </g>
 <g transform="translate(17.75934,-131.57034)">
 <g fill="#000">
 <text style="stroke:none" transform="scale(1,-1) translate(56.9055,0)" text-anchor="middle"  font-size="10"> 
<g fill="#000">
 <g stroke="none"> Tutorat</g> </g>
 </text> 
</g>
 </g>
 </g>
 <g fill="#b3b3ff">
 <g fill="#b3b3ff">
 <path d=" M -134.90332 -134.90332 h 120.47696 v 120.47696 h -120.47696 Z  " stroke="none"/>
 </g>
 <g transform="translate(-131.57034,-131.57034)">
 <g fill="#000">
 <text style="stroke:none" transform="scale(1,-1) translate(56.9055,0)" text-anchor="middle"  font-size="10"> 
<g fill="#000">
 <g stroke="none"> Aide</g> </g>
 </text> 
</g>
 </g>
 </g>
 <g fill="#ffffb3">
 <g fill="#ffffb3">
 <path d=" M -134.90332 14.42636 h 120.47696 v 120.47696 h -120.47696 Z  " stroke="none"/>
 </g>
 <g transform="translate(-131.57034,17.75934)">
 <g fill="#000">
 <text style="stroke:none" transform="scale(1,-1) translate(56.9055,0)" text-anchor="middle"  font-size="10"> 
<g fill="#000">
 <g stroke="none"> Entraide</g> </g>
 </text> 
</g>
 </g>
 </g>
 </g>
 </g>
 
                                                                                     </g> 
</svg> 
