<?xml version="1.0" encoding="UTF-8" standalone="no"?>
<!DOCTYPE svg PUBLIC "-//W3C//DTD SVG 1.1//EN"
 "http://www.w3.org/Graphics/SVG/1.1/DTD/svg11.dtd">
<!-- Generated by graphviz version 2.43.0 (0)
 -->
<!-- Title: etats Pages: 1 -->
<svg width="494pt" height="145pt"
 viewBox="0.00 0.00 494.16 145.00" xmlns="http://www.w3.org/2000/svg" xmlns:xlink="http://www.w3.org/1999/xlink">
<g id="graph0" class="graph" transform="scale(1 1) rotate(0) translate(4 141)">
<title>etats</title>
<!-- S -->
<g id="node1" class="node">
<title>S</title>
<polygon fill="none" stroke="black" points="44.6,-49.05 47.09,-49.15 49.56,-49.3 51.99,-49.49 54.37,-49.74 56.7,-50.03 58.97,-50.36 61.16,-50.75 63.27,-51.18 65.29,-51.65 67.21,-52.16 69.04,-52.71 70.75,-53.31 72.34,-53.94 73.82,-54.61 75.17,-55.31 76.4,-56.04 77.5,-56.8 78.46,-57.59 79.29,-58.41 79.99,-59.25 80.56,-60.11 80.99,-60.99 81.29,-61.89 81.46,-62.8 81.51,-63.72 81.43,-64.65 81.24,-65.59 80.92,-66.53 80.5,-67.47 79.97,-68.41 79.34,-69.35 78.61,-70.28 77.78,-71.2 76.88,-72.11 75.89,-73.01 74.82,-73.89 73.69,-74.75 72.49,-75.59 71.24,-76.41 69.93,-77.2 68.57,-77.96 67.16,-78.69 65.72,-79.39 64.25,-80.06 62.74,-80.69 61.2,-81.29 59.65,-81.84 58.07,-82.35 56.47,-82.82 54.86,-83.25 53.24,-83.64 51.6,-83.97 49.96,-84.26 48.31,-84.51 46.65,-84.7 44.99,-84.85 43.33,-84.95 41.67,-85 40,-85 38.34,-84.95 36.68,-84.85 35.02,-84.7 33.37,-84.51 31.72,-84.26 30.07,-83.97 28.44,-83.64 26.81,-83.25 25.2,-82.82 23.61,-82.35 22.03,-81.84 20.47,-81.29 18.93,-80.69 17.43,-80.06 15.95,-79.39 14.51,-78.69 13.11,-77.96 11.75,-77.2 10.44,-76.41 9.18,-75.59 7.98,-74.75 6.85,-73.89 5.79,-73.01 4.8,-72.11 3.89,-71.2 3.07,-70.28 2.34,-69.35 1.7,-68.41 1.17,-67.47 0.75,-66.53 0.44,-65.59 0.24,-64.65 0.16,-63.72 0.21,-62.8 0.38,-61.89 0.68,-60.99 1.12,-60.11 1.68,-59.25 2.38,-58.41 3.21,-57.59 4.18,-56.8 5.27,-56.04 6.5,-55.31 7.85,-54.61 9.33,-53.94 10.93,-53.31 12.64,-52.71 14.46,-52.16 16.38,-51.65 18.4,-51.18 20.51,-50.75 22.71,-50.36 24.97,-50.03 27.3,-49.74 29.68,-49.49 32.11,-49.3 34.58,-49.15 37.07,-49.05 39.58,-49 42.09,-49 44.6,-49.05"/>
<text text-anchor="middle" x="40.84" y="-63.3" font-family="Times,serif" font-size="14.00">solide</text>
</g>
<!-- L -->
<g id="node2" class="node">
<title>L</title>
<polygon fill="none" stroke="black" points="260.34,-94.05 263.09,-94.15 265.82,-94.3 268.51,-94.49 271.14,-94.74 273.72,-95.03 276.22,-95.36 278.65,-95.75 280.98,-96.18 283.22,-96.65 285.34,-97.16 287.36,-97.71 289.25,-98.31 291.01,-98.94 292.65,-99.61 294.14,-100.31 295.5,-101.04 296.71,-101.8 297.78,-102.59 298.7,-103.41 299.47,-104.25 300.1,-105.11 300.58,-105.99 300.91,-106.89 301.1,-107.8 301.15,-108.72 301.07,-109.65 300.85,-110.59 300.5,-111.53 300.03,-112.47 299.45,-113.41 298.75,-114.35 297.94,-115.28 297.03,-116.2 296.03,-117.11 294.93,-118.01 293.76,-118.89 292.5,-119.75 291.18,-120.59 289.79,-121.41 288.34,-122.2 286.84,-122.96 285.29,-123.69 283.69,-124.39 282.06,-125.06 280.39,-125.69 278.7,-126.29 276.97,-126.84 275.23,-127.35 273.46,-127.82 271.68,-128.25 269.88,-128.64 268.08,-128.97 266.26,-129.26 264.44,-129.51 262.61,-129.7 260.77,-129.85 258.93,-129.95 257.09,-130 255.25,-130 253.41,-129.95 251.58,-129.85 249.74,-129.7 247.91,-129.51 246.09,-129.26 244.27,-128.97 242.46,-128.64 240.67,-128.25 238.89,-127.82 237.12,-127.35 235.37,-126.84 233.65,-126.29 231.95,-125.69 230.29,-125.06 228.65,-124.39 227.06,-123.69 225.51,-122.96 224.01,-122.2 222.56,-121.41 221.17,-120.59 219.84,-119.75 218.59,-118.89 217.41,-118.01 216.32,-117.11 215.32,-116.2 214.41,-115.28 213.6,-114.35 212.9,-113.41 212.31,-112.47 211.84,-111.53 211.5,-110.59 211.28,-109.65 211.19,-108.72 211.25,-107.8 211.44,-106.89 211.77,-105.99 212.25,-105.11 212.88,-104.25 213.65,-103.41 214.57,-102.59 215.63,-101.8 216.85,-101.04 218.2,-100.31 219.7,-99.61 221.33,-98.94 223.1,-98.31 224.99,-97.71 227,-97.16 229.13,-96.65 231.37,-96.18 233.7,-95.75 236.12,-95.36 238.63,-95.03 241.2,-94.74 243.84,-94.49 246.53,-94.3 249.26,-94.15 252.01,-94.05 254.78,-94 257.56,-94 260.34,-94.05"/>
<text text-anchor="middle" x="256.17" y="-108.3" font-family="Times,serif" font-size="14.00">liquide</text>
</g>
<!-- S&#45;&gt;L -->
<g id="edge1" class="edge">
<title>S&#45;&gt;L</title>
<path fill="none" stroke="black" d="M28.16,-83.7C28.16,-98.57 28.16,-118 28.16,-118 28.16,-118 207.24,-118 207.24,-118"/>
<polygon fill="black" stroke="black" points="207.24,-121.5 217.24,-118 207.24,-114.5 207.24,-121.5"/>
<text text-anchor="middle" x="145.17" y="-125.8" font-family="Times,serif" font-size="14.00">fusion</text>
</g>
<!-- G -->
<g id="node3" class="node">
<title>G</title>
<polygon fill="none" stroke="black" points="460.1,-49.05 461.88,-49.15 463.63,-49.3 465.37,-49.49 467.06,-49.74 468.73,-50.03 470.34,-50.36 471.9,-50.75 473.41,-51.18 474.85,-51.65 476.22,-52.16 477.51,-52.71 478.73,-53.31 479.87,-53.94 480.92,-54.61 481.89,-55.31 482.76,-56.04 483.54,-56.8 484.23,-57.59 484.82,-58.41 485.32,-59.25 485.73,-60.11 486.03,-60.99 486.25,-61.89 486.37,-62.8 486.41,-63.72 486.35,-64.65 486.21,-65.59 485.99,-66.53 485.69,-67.47 485.31,-68.41 484.86,-69.35 484.34,-70.28 483.75,-71.2 483.1,-72.11 482.4,-73.01 481.64,-73.89 480.83,-74.75 479.98,-75.59 479.08,-76.41 478.15,-77.2 477.18,-77.96 476.18,-78.69 475.15,-79.39 474.1,-80.06 473.03,-80.69 471.93,-81.29 470.82,-81.84 469.7,-82.35 468.56,-82.82 467.41,-83.25 466.25,-83.64 465.09,-83.97 463.92,-84.26 462.74,-84.51 461.56,-84.7 460.38,-84.85 459.2,-84.95 458.01,-85 456.82,-85 455.64,-84.95 454.45,-84.85 453.27,-84.7 452.09,-84.51 450.92,-84.26 449.75,-83.97 448.58,-83.64 447.42,-83.25 446.27,-82.82 445.14,-82.35 444.01,-81.84 442.9,-81.29 441.81,-80.69 440.73,-80.06 439.68,-79.39 438.65,-78.69 437.65,-77.96 436.68,-77.2 435.75,-76.41 434.86,-75.59 434,-74.75 433.19,-73.89 432.44,-73.01 431.73,-72.11 431.08,-71.2 430.5,-70.28 429.98,-69.35 429.53,-68.41 429.15,-67.47 428.85,-66.53 428.62,-65.59 428.48,-64.65 428.43,-63.72 428.46,-62.8 428.58,-61.89 428.8,-60.99 429.11,-60.11 429.51,-59.25 430.01,-58.41 430.6,-57.59 431.29,-56.8 432.07,-56.04 432.95,-55.31 433.91,-54.61 434.96,-53.94 436.1,-53.31 437.32,-52.71 438.62,-52.16 439.99,-51.65 441.43,-51.18 442.93,-50.75 444.49,-50.36 446.11,-50.03 447.77,-49.74 449.47,-49.49 451.2,-49.3 452.96,-49.15 454.73,-49.05 456.52,-49 458.31,-49 460.1,-49.05"/>
<text text-anchor="middle" x="457.42" y="-63.3" font-family="Times,serif" font-size="14.00">gaz</text>
</g>
<!-- S&#45;&gt;G -->
<g id="edge6" class="edge">
<title>S&#45;&gt;G</title>
<path fill="none" stroke="black" d="M81.16,-61C81.16,-61 418.54,-61 418.54,-61"/>
<polygon fill="black" stroke="black" points="418.54,-64.5 428.54,-61 418.54,-57.5 418.54,-64.5"/>
<text text-anchor="middle" x="256.17" y="-54.8" font-family="Times,serif" font-size="14.00">sublimation</text>
</g>
<!-- L&#45;&gt;S -->
<g id="edge4" class="edge">
<title>L&#45;&gt;S</title>
<path fill="none" stroke="black" d="M211.56,-106C152.34,-106 55.16,-106 55.16,-106 55.16,-106 55.16,-93.31 55.16,-93.31"/>
<polygon fill="black" stroke="black" points="58.66,-93.31 55.16,-83.31 51.66,-93.31 58.66,-93.31"/>
<text text-anchor="middle" x="145.17" y="-87.8" font-family="Times,serif" font-size="14.00">solidification</text>
</g>
<!-- L&#45;&gt;G -->
<g id="edge2" class="edge">
<title>L&#45;&gt;G</title>
<path fill="none" stroke="black" d="M300.7,-106C357.42,-106 448.16,-106 448.16,-106 448.16,-106 448.16,-93.77 448.16,-93.77"/>
<polygon fill="black" stroke="black" points="451.66,-93.77 448.16,-83.77 444.66,-93.77 451.66,-93.77"/>
<text text-anchor="middle" x="366.17" y="-125.8" font-family="Times,serif" font-size="14.00">vaporisation</text>
</g>
<!-- G&#45;&gt;S -->
<g id="edge5" class="edge">
<title>G&#45;&gt;S</title>
<path fill="none" stroke="black" d="M432.3,-73C432.3,-73 85.95,-73 85.95,-73"/>
<polygon fill="black" stroke="black" points="85.95,-69.5 75.95,-73 85.95,-76.5 85.95,-69.5"/>
<text text-anchor="middle" x="256.17" y="-3.8" font-family="Times,serif" font-size="14.00">condensation</text>
</g>
<!-- G&#45;&gt;L -->
<g id="edge3" class="edge">
<title>G&#45;&gt;L</title>
<path fill="none" stroke="black" d="M467.16,-83.42C467.16,-98.33 467.16,-118 467.16,-118 467.16,-118 305.36,-118 305.36,-118"/>
<polygon fill="black" stroke="black" points="305.36,-114.5 295.36,-118 305.36,-121.5 305.36,-114.5"/>
<text text-anchor="middle" x="366.17" y="-87.8" font-family="Times,serif" font-size="14.00">liquéfaction</text>
</g>
</g>
</svg>
