<?xml version="1.0" encoding="iso-8859-1" standalone="no"?> 
<?xml-stylesheet href="latex-f53eIk.css" type="text/css"?> 
<svg xmlns="http://www.w3.org/2000/svg" xmlns:xlink="http://www.w3.org/1999/xlink" width="341.83292pt" height="20.31682pt" viewBox="-0.2 -14.42636 341.83292 20.31682 "> 
<g transform="translate(0, 5.89046 ) scale(1,-1) translate(0,14.42636 )"> 
    <g stroke="#000" fill="#000">
 <g stroke-width="0.4">
 <g fill="#f00">
 <path d=" M 0.0 0.0 M 0.0 0.0 L 0.0 5.69046 L 14.22636 5.69046 L 14.22636 0.0 Z M 14.22636 5.69046  " />
 </g>
 <g fill="#f00">
 <path d=" M 28.45274 0.0 M 28.45274 0.0 L 28.45274 5.69046 L 42.67911 5.69046 L 42.67911 0.0 Z M 42.67911 5.69046  " />
 </g>
 <g fill="#f00">
 <path d=" M 85.35823 0.0 M 85.35823 0.0 L 85.35823 5.69046 L 99.5846 5.69046 L 99.5846 0.0 Z M 99.5846 5.69046  " />
 </g>
 <g fill="#f00">
 <path d=" M 170.71646 0.0 M 170.71646 0.0 L 170.71646 5.69046 L 184.94283 5.69046 L 184.94283 0.0 Z M 184.94283 5.69046  " />
 </g>
 <g fill="#f00">
 <path d=" M 312.98018 0.0 M 312.98018 0.0 L 312.98018 5.69046 L 327.20654 5.69046 L 327.20654 0.0 Z M 327.20654 5.69046  " />
 </g>
 <path d=" M 0.0 -14.22636 L 340.97293 -14.22636  " fill="none"/>
 <g transform="translate(340.97293,-14.22636)">
 <g stroke-width="0.31999">
 <g stroke-dasharray="none" stroke-dashoffset="0.0">
 <g stroke-linecap="round">
 <g stroke-linejoin="round">
 <path d=" M -1.19998 1.59998 C -1.09998 0.99998 0.0 0.09999 0.29999 0.0 C 0.0 -0.09999 -1.09998 -0.99998 -1.19998 -1.59998  " fill="none"/>
 </g>
 </g>
 </g>
 </g>
  </g>
 </g>
 </g>
 
                                                                                                       </g> 
</svg> 
