<?xml version="1.0" encoding="UTF-8" standalone="no"?>
<!DOCTYPE svg PUBLIC "-//W3C//DTD SVG 1.1//EN"
 "http://www.w3.org/Graphics/SVG/1.1/DTD/svg11.dtd">
<!-- Generated by graphviz version 2.43.0 (0)
 -->
<!-- Title: mindmap Pages: 1 -->
<svg width="1219pt" height="1167pt"
 viewBox="0.00 0.00 1219.11 1167.21" xmlns="http://www.w3.org/2000/svg" xmlns:xlink="http://www.w3.org/1999/xlink">
<g id="graph0" class="graph" transform="scale(1 1) rotate(0) translate(4 1163.21)">
<title>mindmap</title>
<polygon fill="white" stroke="transparent" points="-4,4 -4,-1163.21 1215.11,-1163.21 1215.11,4 -4,4"/>
<g id="clust1" class="cluster">
<title>clusterG</title>
<polygon fill="white" stroke="white" points="0,-503.7 0,-1159.21 826.29,-1159.21 826.29,-503.7 0,-503.7"/>
</g>
<g id="clust3" class="cluster">
<title>clusterT</title>
<polygon fill="white" stroke="white" points="467.12,0 467.12,-708.27 1211.11,-708.27 1211.11,0 467.12,0"/>
</g>
<g id="clust6" class="cluster">
<title>clusterRel</title>
<polygon fill="white" stroke="white" points="293.68,-416.44 293.68,-668.42 826.29,-668.42 826.29,-416.44 293.68,-416.44"/>
</g>
<!-- M -->
<g id="node1" class="node">
<title>M</title>
<g id="a_node1"><a xlink:href="#" xlink:title="Les mouvements">
<polygon fill="coral" stroke="coral" stroke-width="2" points="826.29,-668.42 548.29,-668.42 548.29,-627.42 826.29,-627.42 826.29,-668.42"/>
<text text-anchor="middle" x="687.29" y="-640.42" font-family="Comfortaa" font-size="30.00">Les mouvements</text>
</a>
</g>
</g>
<!-- G -->
<g id="node2" class="node">
<title>G</title>
<g id="a_node2"><a xlink:title="Ce qui se mesure">
<polygon fill="mintcream" stroke="limegreen" stroke-width="2" points="521.61,-757.07 528.56,-757.16 535.45,-757.31 542.23,-757.51 548.89,-757.75 555.39,-758.04 561.71,-758.38 567.83,-758.76 573.72,-759.19 579.36,-759.66 584.73,-760.18 589.81,-760.73 594.58,-761.32 599.04,-761.95 603.16,-762.62 606.94,-763.32 610.36,-764.05 613.42,-764.82 616.11,-765.61 618.43,-766.42 620.38,-767.26 621.96,-768.13 623.17,-769.01 624.01,-769.9 624.5,-770.81 624.63,-771.73 624.41,-772.67 623.86,-773.6 622.99,-774.54 621.81,-775.49 620.32,-776.43 618.56,-777.37 616.52,-778.3 614.22,-779.22 611.69,-780.13 608.93,-781.03 605.96,-781.91 602.8,-782.77 599.46,-783.61 595.95,-784.42 592.29,-785.21 588.5,-785.98 584.59,-786.71 580.56,-787.41 576.44,-788.08 572.23,-788.71 567.95,-789.3 563.6,-789.86 559.19,-790.37 554.74,-790.84 550.24,-791.27 545.71,-791.65 541.15,-791.99 536.56,-792.28 531.96,-792.52 527.34,-792.72 522.71,-792.87 518.07,-792.97 513.43,-793.02 508.78,-793.02 504.14,-792.97 499.5,-792.87 494.87,-792.72 490.25,-792.52 485.64,-792.28 481.06,-791.99 476.5,-791.65 471.97,-791.27 467.47,-790.84 463.01,-790.37 458.61,-789.86 454.26,-789.3 449.97,-788.71 445.76,-788.08 441.64,-787.41 437.62,-786.71 433.7,-785.98 429.91,-785.21 426.26,-784.42 422.75,-783.61 419.41,-782.77 416.24,-781.91 413.28,-781.03 410.52,-780.13 407.98,-779.22 405.69,-778.3 403.65,-777.37 401.88,-776.43 400.4,-775.49 399.21,-774.54 398.34,-773.6 397.79,-772.67 397.58,-771.73 397.71,-770.81 398.19,-769.9 399.03,-769.01 400.24,-768.13 401.82,-767.26 403.77,-766.42 406.09,-765.61 408.79,-764.82 411.85,-764.05 415.27,-763.32 419.04,-762.62 423.17,-761.95 427.62,-761.32 432.4,-760.73 437.48,-760.18 442.85,-759.66 448.49,-759.19 454.38,-758.76 460.5,-758.38 466.82,-758.04 473.32,-757.75 479.98,-757.51 486.76,-757.31 493.64,-757.16 500.6,-757.07 507.6,-757.02 514.61,-757.02 521.61,-757.07"/>
<text text-anchor="middle" x="511.1" y="-771.32" font-family="Comfortaa" font-size="14.00">Grandeurs physique</text>
</a>
</g>
</g>
<!-- M&#45;&gt;G -->
<g id="edge1" class="edge">
<title>M&#45;&gt;G</title>
<path fill="none" stroke="limegreen" stroke-width="5" d="M669.77,-668.66C625.27,-721.21 605.81,-742.24 579.32,-754.89"/>
<polygon fill="limegreen" stroke="limegreen" stroke-width="5" points="577.48,-750.92 570.03,-758.89 580.94,-758.96 577.48,-750.92"/>
</g>
<!-- T -->
<g id="node9" class="node">
<title>T</title>
<polygon fill="peachpuff" stroke="orange" stroke-width="2" points="741.67,-423.95 745.66,-424.05 749.61,-424.2 753.5,-424.4 757.32,-424.64 761.05,-424.93 764.68,-425.27 768.18,-425.65 771.56,-426.08 774.8,-426.55 777.88,-427.07 780.79,-427.62 783.53,-428.21 786.09,-428.84 788.45,-429.51 790.62,-430.21 792.58,-430.94 794.34,-431.71 795.88,-432.5 797.22,-433.31 798.33,-434.15 799.24,-435.01 799.93,-435.89 800.42,-436.79 800.69,-437.7 800.77,-438.62 800.65,-439.55 800.33,-440.49 799.83,-441.43 799.15,-442.38 798.3,-443.32 797.29,-444.26 796.12,-445.19 794.8,-446.11 793.35,-447.02 791.76,-447.92 790.06,-448.8 788.25,-449.66 786.33,-450.5 784.32,-451.31 782.22,-452.1 780.04,-452.87 777.8,-453.6 775.49,-454.3 773.13,-454.97 770.71,-455.6 768.25,-456.19 765.76,-456.74 763.23,-457.26 760.68,-457.73 758.1,-458.16 755.5,-458.54 752.88,-458.88 750.25,-459.17 747.61,-459.41 744.96,-459.61 742.3,-459.76 739.64,-459.86 736.98,-459.91 734.31,-459.91 731.65,-459.86 728.99,-459.76 726.33,-459.61 723.68,-459.41 721.04,-459.17 718.41,-458.88 715.79,-458.54 713.19,-458.16 710.61,-457.73 708.06,-457.26 705.53,-456.74 703.03,-456.19 700.58,-455.6 698.16,-454.97 695.8,-454.3 693.49,-453.6 691.24,-452.87 689.07,-452.1 686.97,-451.31 684.96,-450.5 683.04,-449.66 681.23,-448.8 679.53,-447.92 677.94,-447.02 676.49,-446.11 675.17,-445.19 674,-444.26 672.99,-443.32 672.14,-442.38 671.46,-441.43 670.96,-440.49 670.64,-439.55 670.52,-438.62 670.6,-437.7 670.87,-436.79 671.36,-435.89 672.05,-435.01 672.95,-434.15 674.07,-433.31 675.41,-432.5 676.95,-431.71 678.71,-430.94 680.67,-430.21 682.84,-429.51 685.2,-428.84 687.76,-428.21 690.5,-427.62 693.41,-427.07 696.49,-426.55 699.73,-426.08 703.1,-425.65 706.61,-425.27 710.24,-424.93 713.97,-424.64 717.79,-424.4 721.68,-424.2 725.63,-424.05 729.62,-423.95 733.63,-423.91 737.66,-423.91 741.67,-423.95"/>
<text text-anchor="middle" x="735.64" y="-438.21" font-family="Comfortaa" font-size="14.00">Trajectoire</text>
</g>
<!-- M&#45;&gt;T -->
<g id="edge9" class="edge">
<title>M&#45;&gt;T</title>
<path fill="none" stroke="orange" stroke-width="5" d="M698.78,-627.14C744.92,-543.51 750.04,-528.84 740.6,-470.44"/>
<polygon fill="orange" stroke="orange" stroke-width="5" points="744.86,-469.4 738.89,-460.26 736.23,-470.85 744.86,-469.4"/>
</g>
<!-- rel -->
<g id="node18" class="node">
<title>rel</title>
<g id="a_node18"><a xlink:title="La trajectoire peut être différente">
<polygon fill="lightsteelblue" stroke="darkslategray" stroke-width="2" points="559.07,-583.46 562.58,-583.56 566.06,-583.71 569.49,-583.9 572.86,-584.15 576.14,-584.44 579.34,-584.78 582.43,-585.16 585.41,-585.59 588.26,-586.06 590.98,-586.57 593.55,-587.13 595.96,-587.72 598.21,-588.35 600.3,-589.02 602.21,-589.72 603.94,-590.45 605.48,-591.21 606.85,-592 608.02,-592.82 609.01,-593.66 609.8,-594.52 610.42,-595.4 610.84,-596.3 611.09,-597.21 611.15,-598.13 611.04,-599.06 610.77,-600 610.32,-600.94 609.73,-601.88 608.98,-602.83 608.08,-603.76 607.05,-604.69 605.89,-605.62 604.61,-606.53 603.22,-607.42 601.71,-608.3 600.12,-609.16 598.43,-610 596.65,-610.82 594.8,-611.61 592.89,-612.37 590.91,-613.11 588.87,-613.81 586.79,-614.47 584.66,-615.1 582.5,-615.7 580.3,-616.25 578.07,-616.77 575.82,-617.24 573.54,-617.66 571.25,-618.05 568.94,-618.39 566.63,-618.68 564.3,-618.92 561.96,-619.12 559.62,-619.26 557.28,-619.36 554.93,-619.41 552.58,-619.41 550.23,-619.36 547.89,-619.26 545.55,-619.12 543.21,-618.92 540.88,-618.68 538.57,-618.39 536.26,-618.05 533.97,-617.66 531.69,-617.24 529.44,-616.77 527.21,-616.25 525.01,-615.7 522.85,-615.1 520.72,-614.47 518.64,-613.81 516.6,-613.11 514.62,-612.37 512.71,-611.61 510.86,-610.82 509.08,-610 507.4,-609.16 505.8,-608.3 504.29,-607.42 502.9,-606.53 501.62,-605.62 500.46,-604.69 499.43,-603.76 498.53,-602.83 497.78,-601.88 497.19,-600.94 496.74,-600 496.47,-599.06 496.36,-598.13 496.42,-597.21 496.67,-596.3 497.09,-595.4 497.71,-594.52 498.5,-593.66 499.49,-592.82 500.66,-592 502.03,-591.21 503.57,-590.45 505.3,-589.72 507.21,-589.02 509.3,-588.35 511.55,-587.72 513.96,-587.13 516.53,-586.57 519.25,-586.06 522.1,-585.59 525.08,-585.16 528.17,-584.78 531.37,-584.44 534.65,-584.15 538.02,-583.9 541.45,-583.71 544.93,-583.56 548.44,-583.46 551.98,-583.41 555.53,-583.41 559.07,-583.46"/>
<text text-anchor="middle" x="553.76" y="-597.71" font-family="Comfortaa" font-size="14.00">Relativité</text>
</a>
</g>
</g>
<!-- M&#45;&gt;rel -->
<g id="edge18" class="edge">
<title>M&#45;&gt;rel</title>
<path fill="none" stroke="darkslategray" stroke-width="5" d="M593.67,-627.4C591.21,-625.88 588.64,-624.25 585.93,-622.52"/>
<polygon fill="darkslategray" stroke="darkslategray" stroke-width="5" points="588.17,-618.75 577.4,-617 583.42,-626.1 588.17,-618.75"/>
</g>
<!-- D -->
<g id="node5" class="node">
<title>D</title>
<g id="a_node5"><a xlink:title="Mesure avec une règle">
<polygon fill="mintcream" stroke="limegreen" stroke-width="2" points="359.52,-602.22 363.22,-602.37 366.89,-602.59 370.51,-602.88 374.05,-603.24 377.52,-603.67 380.88,-604.18 384.14,-604.75 387.28,-605.38 390.29,-606.08 393.15,-606.85 395.85,-607.67 398.4,-608.55 400.77,-609.49 402.97,-610.48 404.98,-611.52 406.8,-612.61 408.43,-613.75 409.87,-614.92 411.11,-616.13 412.15,-617.38 412.99,-618.66 413.63,-619.97 414.08,-621.3 414.34,-622.66 414.41,-624.03 414.29,-625.41 414,-626.81 413.53,-628.21 412.9,-629.61 412.11,-631.01 411.17,-632.4 410.08,-633.79 408.86,-635.16 407.51,-636.51 406.04,-637.84 404.46,-639.15 402.78,-640.43 400.99,-641.68 399.13,-642.89 397.18,-644.07 395.16,-645.2 393.07,-646.29 390.93,-647.33 388.73,-648.32 386.49,-649.26 384.21,-650.14 381.89,-650.97 379.54,-651.73 377.17,-652.43 374.77,-653.07 372.36,-653.64 369.93,-654.14 367.48,-654.57 365.03,-654.94 362.57,-655.23 360.1,-655.45 357.63,-655.59 355.16,-655.67 352.68,-655.67 350.21,-655.59 347.74,-655.45 345.27,-655.23 342.81,-654.94 340.36,-654.57 337.91,-654.14 335.48,-653.64 333.07,-653.07 330.67,-652.43 328.3,-651.73 325.95,-650.97 323.63,-650.14 321.35,-649.26 319.11,-648.32 316.91,-647.33 314.77,-646.29 312.68,-645.2 310.66,-644.07 308.72,-642.89 306.85,-641.68 305.07,-640.43 303.38,-639.15 301.8,-637.84 300.33,-636.51 298.98,-635.16 297.76,-633.79 296.67,-632.4 295.73,-631.01 294.94,-629.61 294.31,-628.21 293.84,-626.81 293.55,-625.41 293.44,-624.03 293.51,-622.66 293.76,-621.3 294.21,-619.97 294.86,-618.66 295.7,-617.38 296.74,-616.13 297.97,-614.92 299.41,-613.75 301.04,-612.61 302.86,-611.52 304.87,-610.48 307.07,-609.49 309.44,-608.55 311.99,-607.67 314.69,-606.85 317.56,-606.08 320.56,-605.38 323.7,-604.75 326.96,-604.18 330.33,-603.67 333.79,-603.24 337.34,-602.88 340.95,-602.59 344.62,-602.37 348.32,-602.22 352.05,-602.15 355.79,-602.15 359.52,-602.22"/>
<text text-anchor="middle" x="353.92" y="-632.71" font-family="Comfortaa" font-size="14.00">Distance</text>
<text text-anchor="middle" x="353.92" y="-617.71" font-family="Comfortaa" font-size="14.00">(en m)</text>
</a>
</g>
</g>
<!-- G&#45;&gt;D -->
<g id="edge2" class="edge">
<title>G&#45;&gt;D</title>
<path fill="none" stroke="limegreen" stroke-width="5" d="M470.97,-757.77C408.57,-730.22 395,-717.76 369.92,-664.31"/>
<polygon fill="limegreen" stroke="limegreen" stroke-width="5" points="373.78,-662.24 365.62,-654.99 365.84,-665.91 373.78,-662.24"/>
</g>
<!-- dt -->
<g id="node6" class="node">
<title>dt</title>
<g id="a_node6"><a xlink:title="Mesure avec un chronomètre">
<polygon fill="mintcream" stroke="limegreen" stroke-width="2" points="412.61,-919.75 415.32,-919.9 418.01,-920.12 420.66,-920.41 423.26,-920.77 425.8,-921.21 428.27,-921.71 430.66,-922.28 432.97,-922.91 435.17,-923.61 437.27,-924.38 439.25,-925.2 441.12,-926.08 442.86,-927.02 444.47,-928.01 445.95,-929.05 447.28,-930.14 448.48,-931.28 449.53,-932.45 450.44,-933.67 451.2,-934.91 451.82,-936.19 452.29,-937.5 452.62,-938.84 452.81,-940.19 452.86,-941.56 452.77,-942.94 452.56,-944.34 452.22,-945.74 451.76,-947.14 451.18,-948.54 450.49,-949.93 449.69,-951.32 448.79,-952.69 447.8,-954.04 446.73,-955.37 445.57,-956.68 444.33,-957.96 443.02,-959.21 441.65,-960.42 440.22,-961.6 438.74,-962.73 437.21,-963.82 435.64,-964.86 434.03,-965.86 432.39,-966.79 430.71,-967.67 429.01,-968.5 427.29,-969.26 425.55,-969.96 423.79,-970.6 422.02,-971.17 420.24,-971.67 418.45,-972.1 416.65,-972.47 414.84,-972.76 413.04,-972.98 411.22,-973.12 409.41,-973.2 407.59,-973.2 405.78,-973.12 403.97,-972.98 402.16,-972.76 400.35,-972.47 398.55,-972.1 396.76,-971.67 394.98,-971.17 393.21,-970.6 391.45,-969.96 389.71,-969.26 387.99,-968.5 386.29,-967.67 384.62,-966.79 382.97,-965.86 381.36,-964.86 379.79,-963.82 378.26,-962.73 376.78,-961.6 375.35,-960.42 373.98,-959.21 372.67,-957.96 371.44,-956.68 370.28,-955.37 369.2,-954.04 368.21,-952.69 367.31,-951.32 366.52,-949.93 365.83,-948.54 365.25,-947.14 364.78,-945.74 364.44,-944.34 364.23,-942.94 364.14,-941.56 364.2,-940.19 364.38,-938.84 364.71,-937.5 365.19,-936.19 365.8,-934.91 366.56,-933.67 367.47,-932.45 368.52,-931.28 369.72,-930.14 371.06,-929.05 372.53,-928.01 374.14,-927.02 375.88,-926.08 377.75,-925.2 379.74,-924.38 381.83,-923.61 384.04,-922.91 386.34,-922.28 388.73,-921.71 391.2,-921.21 393.74,-920.77 396.34,-920.41 398.99,-920.12 401.68,-919.9 404.4,-919.75 407.13,-919.68 409.87,-919.68 412.61,-919.75"/>
<text text-anchor="middle" x="408.5" y="-950.24" font-family="Comfortaa" font-size="14.00">Durée</text>
<text text-anchor="middle" x="408.5" y="-935.24" font-family="Comfortaa" font-size="14.00">(en s)</text>
</a>
</g>
</g>
<!-- G&#45;&gt;dt -->
<g id="edge3" class="edge">
<title>G&#45;&gt;dt</title>
<path fill="none" stroke="limegreen" stroke-width="5" d="M500.64,-793.2C458.77,-866 445.63,-888.66 430.57,-912.43"/>
<polygon fill="limegreen" stroke="limegreen" stroke-width="5" points="426.81,-910.19 425.11,-920.97 434.18,-914.91 426.81,-910.19"/>
</g>
<!-- V -->
<g id="node3" class="node">
<title>V</title>
<g id="a_node3"><a xlink:title="unité de la distance / unité de la durée">
<polygon fill="mintcream" stroke="limegreen" stroke-width="2" points="257.62,-790.04 261.05,-790.19 264.44,-790.41 267.78,-790.7 271.06,-791.06 274.27,-791.49 277.38,-791.99 280.4,-792.56 283.3,-793.2 286.08,-793.9 288.73,-794.67 291.23,-795.49 293.59,-796.37 295.78,-797.31 297.81,-798.3 299.67,-799.34 301.36,-800.43 302.87,-801.56 304.2,-802.74 305.34,-803.95 306.3,-805.2 307.08,-806.48 307.68,-807.79 308.09,-809.12 308.33,-810.48 308.39,-811.85 308.29,-813.23 308.02,-814.63 307.59,-816.02 307,-817.43 306.27,-818.83 305.4,-820.22 304.4,-821.6 303.27,-822.97 302.02,-824.33 300.66,-825.66 299.19,-826.97 297.63,-828.25 295.99,-829.5 294.26,-830.71 292.46,-831.89 290.59,-833.02 288.66,-834.11 286.68,-835.15 284.64,-836.14 282.57,-837.08 280.46,-837.96 278.32,-838.79 276.14,-839.55 273.95,-840.25 271.73,-840.89 269.5,-841.46 267.25,-841.96 264.99,-842.39 262.72,-842.75 260.45,-843.05 258.16,-843.26 255.88,-843.41 253.59,-843.48 251.3,-843.48 249.01,-843.41 246.73,-843.26 244.44,-843.05 242.17,-842.75 239.9,-842.39 237.64,-841.96 235.39,-841.46 233.16,-840.89 230.94,-840.25 228.74,-839.55 226.57,-838.79 224.43,-837.96 222.32,-837.08 220.24,-836.14 218.21,-835.15 216.23,-834.11 214.3,-833.02 212.43,-831.89 210.63,-830.71 208.9,-829.5 207.25,-828.25 205.69,-826.97 204.23,-825.66 202.87,-824.33 201.62,-822.97 200.49,-821.6 199.49,-820.22 198.62,-818.83 197.89,-817.43 197.3,-816.02 196.87,-814.63 196.6,-813.23 196.5,-811.85 196.56,-810.48 196.8,-809.12 197.21,-807.79 197.81,-806.48 198.59,-805.2 199.55,-803.95 200.69,-802.74 202.02,-801.56 203.53,-800.43 205.21,-799.34 207.08,-798.3 209.11,-797.31 211.3,-796.37 213.66,-795.49 216.16,-794.67 218.81,-793.9 221.59,-793.2 224.49,-792.56 227.5,-791.99 230.62,-791.49 233.82,-791.06 237.1,-790.7 240.45,-790.41 243.84,-790.19 247.27,-790.04 250.72,-789.97 254.17,-789.97 257.62,-790.04"/>
<text text-anchor="middle" x="252.44" y="-820.53" font-family="Comfortaa" font-size="14.00">Vitesse</text>
<text text-anchor="middle" x="252.44" y="-805.53" font-family="Comfortaa" font-size="14.00">(en m/s)</text>
</a>
</g>
</g>
<!-- calV -->
<g id="node4" class="node">
<title>calV</title>
<g id="a_node4"><a xlink:title="d = distance ; t = durée">
<polygon fill="mintcream" stroke="limegreen" stroke-width="2" points="73.22,-856.33 77.33,-856.47 81.39,-856.69 85.4,-856.99 89.33,-857.35 93.17,-857.78 96.9,-858.28 100.52,-858.85 103.99,-859.49 107.32,-860.19 110.5,-860.95 113.5,-861.78 116.32,-862.66 118.95,-863.6 121.38,-864.59 123.61,-865.63 125.63,-866.72 127.44,-867.85 129.03,-869.03 130.4,-870.24 131.55,-871.49 132.48,-872.77 133.2,-874.08 133.7,-875.41 133.98,-876.77 134.06,-878.14 133.93,-879.52 133.61,-880.91 133.09,-882.31 132.39,-883.71 131.52,-885.11 130.47,-886.51 129.27,-887.89 127.91,-889.26 126.42,-890.62 124.79,-891.95 123.03,-893.26 121.17,-894.54 119.19,-895.79 117.12,-897 114.96,-898.18 112.72,-899.31 110.41,-900.4 108.04,-901.44 105.6,-902.43 103.12,-903.37 100.59,-904.25 98.02,-905.07 95.42,-905.84 92.79,-906.54 90.13,-907.17 87.45,-907.74 84.76,-908.25 82.05,-908.68 79.33,-909.04 76.61,-909.33 73.87,-909.55 71.13,-909.7 68.39,-909.77 65.65,-909.77 62.91,-909.7 60.17,-909.55 57.43,-909.33 54.7,-909.04 51.99,-908.68 49.28,-908.25 46.58,-907.74 43.91,-907.17 41.25,-906.54 38.62,-905.84 36.02,-905.07 33.45,-904.25 30.92,-903.37 28.44,-902.43 26,-901.44 23.63,-900.4 21.31,-899.31 19.07,-898.18 16.92,-897 14.85,-895.79 12.87,-894.54 11,-893.26 9.25,-891.95 7.62,-890.62 6.12,-889.26 4.77,-887.89 3.57,-886.51 2.52,-885.11 1.65,-883.71 0.95,-882.31 0.43,-880.91 0.11,-879.52 -0.02,-878.14 0.06,-876.77 0.34,-875.41 0.84,-874.08 1.55,-872.77 2.49,-871.49 3.64,-870.24 5.01,-869.03 6.6,-867.85 8.41,-866.72 10.43,-865.63 12.66,-864.59 15.09,-863.6 17.72,-862.66 20.54,-861.78 23.54,-860.95 26.71,-860.19 30.04,-859.49 33.52,-858.85 37.14,-858.28 40.87,-857.78 44.71,-857.35 48.64,-856.99 52.64,-856.69 56.71,-856.47 60.82,-856.33 64.95,-856.26 69.09,-856.26 73.22,-856.33"/>
<text text-anchor="middle" x="67.02" y="-886.81" font-family="Comfortaa" font-size="14.00">Se calcule</text>
<text text-anchor="middle" x="67.02" y="-871.81" font-family="Comfortaa" font-size="14.00">v = d / t</text>
</a>
</g>
</g>
<!-- V&#45;&gt;calV -->
<g id="edge6" class="edge">
<title>V&#45;&gt;calV</title>
<path fill="none" stroke="limegreen" stroke-width="5" d="M214.09,-832.96C177.27,-848.51 154.69,-857.83 137.15,-864.22"/>
<polygon fill="limegreen" stroke="limegreen" stroke-width="5" points="135.32,-860.22 127.34,-867.66 138.22,-868.48 135.32,-860.22"/>
</g>
<!-- D&#45;&gt;V -->
<g id="edge4" class="edge">
<title>D&#45;&gt;V</title>
<path fill="none" stroke="limegreen" stroke-width="5" d="M334.35,-653.52C279.41,-722.8 267.15,-740.98 258.96,-779.51"/>
<polygon fill="limegreen" stroke="limegreen" stroke-width="5" points="254.58,-779.13 256.95,-789.79 263.17,-780.81 254.58,-779.13"/>
</g>
<!-- mD -->
<g id="node7" class="node">
<title>mD</title>
<polygon fill="mintcream" stroke="limegreen" stroke-width="2" points="189.59,-503.75 197.15,-503.85 204.63,-503.99 212,-504.19 219.24,-504.43 226.31,-504.73 233.18,-505.06 239.83,-505.45 246.23,-505.88 252.36,-506.35 258.2,-506.86 263.72,-507.41 268.91,-508.01 273.76,-508.64 278.24,-509.3 282.34,-510.01 286.06,-510.74 289.39,-511.5 292.32,-512.29 294.84,-513.11 296.96,-513.95 298.68,-514.81 299.99,-515.69 300.91,-516.59 301.43,-517.5 301.57,-518.42 301.34,-519.35 300.74,-520.29 299.79,-521.23 298.51,-522.17 296.89,-523.11 294.97,-524.05 292.76,-524.98 290.26,-525.9 287.51,-526.81 284.51,-527.71 281.28,-528.59 277.84,-529.45 274.21,-530.29 270.4,-531.11 266.42,-531.9 262.3,-532.66 258.05,-533.39 253.67,-534.09 249.19,-534.76 244.62,-535.39 239.96,-535.98 235.23,-536.54 230.44,-537.05 225.6,-537.52 220.71,-537.95 215.78,-538.34 210.83,-538.67 205.84,-538.96 200.84,-539.21 195.81,-539.4 190.78,-539.55 185.74,-539.65 180.69,-539.7 175.64,-539.7 170.6,-539.65 165.55,-539.55 160.52,-539.4 155.5,-539.21 150.49,-538.96 145.51,-538.67 140.55,-538.34 135.62,-537.95 130.73,-537.52 125.89,-537.05 121.1,-536.54 116.37,-535.98 111.72,-535.39 107.14,-534.76 102.66,-534.09 98.29,-533.39 94.03,-532.66 89.91,-531.9 85.94,-531.11 82.12,-530.29 78.49,-529.45 75.05,-528.59 71.83,-527.71 68.83,-526.81 66.07,-525.9 63.58,-524.98 61.36,-524.05 59.44,-523.11 57.83,-522.17 56.54,-521.23 55.59,-520.29 55,-519.35 54.76,-518.42 54.9,-517.5 55.43,-516.59 56.35,-515.69 57.66,-514.81 59.37,-513.95 61.49,-513.11 64.02,-512.29 66.95,-511.5 70.27,-510.74 73.99,-510.01 78.1,-509.3 82.58,-508.64 87.42,-508.01 92.61,-507.41 98.14,-506.86 103.97,-506.35 110.1,-505.88 116.51,-505.45 123.16,-505.06 130.03,-504.73 137.1,-504.43 144.33,-504.19 151.7,-503.99 159.19,-503.85 166.75,-503.75 174.36,-503.7 181.98,-503.7 189.59,-503.75"/>
<text text-anchor="middle" x="178.17" y="-518" font-family="Comfortaa" font-size="14.00">Mesure avec une règle</text>
</g>
<!-- D&#45;&gt;mD -->
<g id="edge7" class="edge">
<title>D&#45;&gt;mD</title>
<path fill="none" stroke="limegreen" stroke-width="5" d="M307.21,-609.23C242.42,-581.62 224.68,-571.66 201.03,-547.04"/>
<polygon fill="limegreen" stroke="limegreen" stroke-width="5" points="204.18,-544 194.16,-539.68 197.79,-549.98 204.18,-544"/>
</g>
<!-- dt&#45;&gt;V -->
<g id="edge5" class="edge">
<title>dt&#45;&gt;V</title>
<path fill="none" stroke="limegreen" stroke-width="5" d="M367.13,-932.48C312.64,-913.17 299.13,-901.44 271.04,-851.09"/>
<polygon fill="limegreen" stroke="limegreen" stroke-width="5" points="274.86,-848.96 266.2,-842.31 267.2,-853.18 274.86,-848.96"/>
</g>
<!-- mdt -->
<g id="node8" class="node">
<title>mdt</title>
<polygon fill="mintcream" stroke="limegreen" stroke-width="2" points="438.44,-1123.26 448.15,-1123.35 457.76,-1123.5 467.23,-1123.7 476.52,-1123.94 485.6,-1124.23 494.43,-1124.57 502.97,-1124.95 511.19,-1125.38 519.06,-1125.85 526.56,-1126.37 533.66,-1126.92 540.33,-1127.52 546.55,-1128.15 552.3,-1128.81 557.57,-1129.51 562.35,-1130.25 566.62,-1131.01 570.38,-1131.8 573.63,-1132.62 576.35,-1133.46 578.55,-1134.32 580.24,-1135.2 581.42,-1136.09 582.09,-1137 582.27,-1137.93 581.97,-1138.86 581.21,-1139.79 579.99,-1140.74 578.33,-1141.68 576.26,-1142.62 573.8,-1143.56 570.95,-1144.49 567.75,-1145.41 564.21,-1146.32 560.36,-1147.22 556.21,-1148.1 551.79,-1148.96 547.13,-1149.8 542.23,-1150.62 537.13,-1151.41 531.83,-1152.17 526.37,-1152.9 520.75,-1153.6 514.99,-1154.27 509.12,-1154.9 503.14,-1155.49 497.07,-1156.05 490.91,-1156.56 484.69,-1157.03 478.41,-1157.46 472.08,-1157.84 465.72,-1158.18 459.31,-1158.47 452.88,-1158.72 446.44,-1158.91 439.97,-1159.06 433.49,-1159.16 427.01,-1159.21 420.53,-1159.21 414.04,-1159.16 407.57,-1159.06 401.1,-1158.91 394.65,-1158.72 388.22,-1158.47 381.82,-1158.18 375.45,-1157.84 369.13,-1157.46 362.85,-1157.03 356.62,-1156.56 350.47,-1156.05 344.4,-1155.49 338.42,-1154.9 332.54,-1154.27 326.79,-1153.6 321.17,-1152.9 315.71,-1152.17 310.41,-1151.41 305.31,-1150.62 300.41,-1149.8 295.74,-1148.96 291.33,-1148.1 287.18,-1147.22 283.33,-1146.32 279.79,-1145.41 276.59,-1144.49 273.74,-1143.56 271.27,-1142.62 269.2,-1141.68 267.55,-1140.74 266.33,-1139.79 265.56,-1138.86 265.27,-1137.93 265.45,-1137 266.12,-1136.09 267.3,-1135.2 268.99,-1134.32 271.19,-1133.46 273.91,-1132.62 277.15,-1131.8 280.91,-1131.01 285.19,-1130.25 289.96,-1129.51 295.24,-1128.81 300.99,-1128.15 307.21,-1127.52 313.88,-1126.92 320.98,-1126.37 328.47,-1125.85 336.35,-1125.38 344.57,-1124.95 353.11,-1124.57 361.94,-1124.23 371.02,-1123.94 380.31,-1123.7 389.78,-1123.5 399.39,-1123.35 409.1,-1123.26 418.87,-1123.21 428.66,-1123.21 438.44,-1123.26"/>
<text text-anchor="middle" x="423.77" y="-1137.51" font-family="Comfortaa" font-size="14.00">Mesure avec un chronomètre</text>
</g>
<!-- dt&#45;&gt;mdt -->
<g id="edge8" class="edge">
<title>dt&#45;&gt;mdt</title>
<path fill="none" stroke="limegreen" stroke-width="5" d="M407.07,-973.38C402.55,-1060.04 402.68,-1079.17 413.95,-1113.53"/>
<polygon fill="limegreen" stroke="limegreen" stroke-width="5" points="409.87,-1115.12 417.24,-1123.16 418.15,-1112.29 409.87,-1115.12"/>
</g>
<!-- qCv -->
<g id="node10" class="node">
<title>qCv</title>
<polygon fill="peachpuff" stroke="orange" stroke-width="2" points="728.26,-201.13 736.24,-201.22 744.13,-201.37 751.92,-201.57 759.55,-201.81 767.01,-202.1 774.27,-202.44 781.28,-202.82 788.04,-203.25 794.51,-203.72 800.67,-204.24 806.5,-204.79 811.98,-205.38 817.1,-206.02 821.82,-206.68 826.16,-207.38 830.08,-208.12 833.59,-208.88 836.68,-209.67 839.35,-210.48 841.58,-211.32 843.4,-212.19 844.78,-213.07 845.75,-213.96 846.3,-214.87 846.45,-215.8 846.21,-216.73 845.58,-217.66 844.57,-218.61 843.22,-219.55 841.51,-220.49 839.49,-221.43 837.15,-222.36 834.52,-223.28 831.61,-224.19 828.44,-225.09 825.04,-225.97 821.41,-226.83 817.57,-227.67 813.55,-228.48 809.36,-229.28 805,-230.04 800.51,-230.77 795.9,-231.47 791.17,-232.14 786.34,-232.77 781.43,-233.36 776.44,-233.92 771.38,-234.43 766.27,-234.9 761.11,-235.33 755.91,-235.71 750.67,-236.05 745.41,-236.34 740.13,-236.59 734.83,-236.78 729.52,-236.93 724.2,-237.03 718.87,-237.08 713.54,-237.08 708.21,-237.03 702.89,-236.93 697.58,-236.78 692.28,-236.59 687,-236.34 681.74,-236.05 676.5,-235.71 671.3,-235.33 666.14,-234.9 661.03,-234.43 655.97,-233.92 650.98,-233.36 646.07,-232.77 641.24,-232.14 636.51,-231.47 631.9,-230.77 627.41,-230.04 623.05,-229.28 618.86,-228.48 614.84,-227.67 611,-226.83 607.37,-225.97 603.97,-225.09 600.8,-224.19 597.89,-223.28 595.26,-222.36 592.92,-221.43 590.89,-220.49 589.19,-219.55 587.83,-218.61 586.83,-217.66 586.2,-216.73 585.96,-215.8 586.11,-214.87 586.66,-213.96 587.63,-213.07 589.01,-212.19 590.83,-211.32 593.06,-210.48 595.73,-209.67 598.82,-208.88 602.33,-208.12 606.25,-207.38 610.59,-206.68 615.31,-206.02 620.43,-205.38 625.91,-204.79 631.74,-204.24 637.9,-203.72 644.37,-203.25 651.13,-202.82 658.14,-202.44 665.4,-202.1 672.86,-201.81 680.49,-201.57 688.28,-201.37 696.17,-201.22 704.15,-201.13 712.18,-201.08 720.23,-201.08 728.26,-201.13"/>
<text text-anchor="middle" x="716.2" y="-215.38" font-family="Comfortaa" font-size="14.00">Comment la visualiser ?</text>
</g>
<!-- T&#45;&gt;qCv -->
<g id="edge10" class="edge">
<title>T&#45;&gt;qCv</title>
<path fill="none" stroke="orange" stroke-width="5" d="M736.82,-423.58C744.01,-310.89 744.29,-291.29 727.39,-246.92"/>
<polygon fill="orange" stroke="orange" stroke-width="5" points="731.36,-245.07 723.65,-237.36 723.22,-248.26 731.36,-245.07"/>
</g>
<!-- qQt -->
<g id="node14" class="node">
<title>qQt</title>
<polygon fill="peachpuff" stroke="orange" stroke-width="2" points="960.85,-486.11 965.66,-486.21 970.41,-486.35 975.1,-486.55 979.7,-486.79 984.19,-487.09 988.56,-487.42 992.78,-487.81 996.85,-488.24 1000.75,-488.71 1004.46,-489.22 1007.97,-489.77 1011.27,-490.37 1014.35,-491 1017.19,-491.66 1019.8,-492.37 1022.17,-493.1 1024.28,-493.86 1026.14,-494.65 1027.74,-495.47 1029.09,-496.31 1030.18,-497.17 1031.02,-498.05 1031.6,-498.95 1031.93,-499.86 1032.02,-500.78 1031.87,-501.71 1031.49,-502.65 1030.89,-503.59 1030.07,-504.53 1029.05,-505.47 1027.83,-506.41 1026.42,-507.34 1024.84,-508.26 1023.08,-509.17 1021.18,-510.07 1019.13,-510.95 1016.94,-511.81 1014.63,-512.65 1012.21,-513.47 1009.68,-514.26 1007.06,-515.02 1004.36,-515.75 1001.58,-516.45 998.73,-517.12 995.83,-517.75 992.87,-518.34 989.86,-518.9 986.82,-519.41 983.74,-519.88 980.63,-520.31 977.5,-520.69 974.35,-521.03 971.18,-521.32 968,-521.57 964.81,-521.76 961.61,-521.91 958.41,-522.01 955.2,-522.06 951.99,-522.06 948.78,-522.01 945.58,-521.91 942.38,-521.76 939.19,-521.57 936.01,-521.32 932.84,-521.03 929.69,-520.69 926.56,-520.31 923.45,-519.88 920.37,-519.41 917.33,-518.9 914.32,-518.34 911.37,-517.75 908.46,-517.12 905.61,-516.45 902.83,-515.75 900.13,-515.02 897.51,-514.26 894.98,-513.47 892.56,-512.65 890.25,-511.81 888.07,-510.95 886.01,-510.07 884.11,-509.17 882.36,-508.26 880.77,-507.34 879.36,-506.41 878.14,-505.47 877.12,-504.53 876.3,-503.59 875.7,-502.65 875.32,-501.71 875.17,-500.78 875.26,-499.86 875.59,-498.95 876.18,-498.05 877.01,-497.17 878.1,-496.31 879.45,-495.47 881.05,-494.65 882.91,-493.86 885.03,-493.1 887.39,-492.37 890,-491.66 892.85,-491 895.93,-490.37 899.22,-489.77 902.74,-489.22 906.44,-488.71 910.34,-488.24 914.41,-487.81 918.64,-487.42 923,-487.09 927.49,-486.79 932.09,-486.55 936.78,-486.35 941.53,-486.21 946.34,-486.11 951.17,-486.06 956.02,-486.06 960.85,-486.11"/>
<text text-anchor="middle" x="953.6" y="-500.36" font-family="Comfortaa" font-size="14.00">Quels types ?</text>
</g>
<!-- T&#45;&gt;qQt -->
<g id="edge14" class="edge">
<title>T&#45;&gt;qQt</title>
<path fill="none" stroke="orange" stroke-width="5" d="M793.7,-446.92C866.51,-453.68 887.99,-458.98 920.83,-480.71"/>
<polygon fill="orange" stroke="orange" stroke-width="5" points="918.73,-484.58 929.46,-486.6 923.66,-477.35 918.73,-484.58"/>
</g>
<!-- cp -->
<g id="node11" class="node">
<title>cp</title>
<polygon fill="peachpuff" stroke="orange" stroke-width="2" points="726.59,-0.05 733.96,-0.15 741.26,-0.3 748.45,-0.49 755.51,-0.74 762.4,-1.03 769.1,-1.36 775.59,-1.75 781.83,-2.18 787.81,-2.65 793.51,-3.16 798.9,-3.71 803.96,-4.31 808.68,-4.94 813.05,-5.61 817.06,-6.31 820.69,-7.04 823.93,-7.8 826.79,-8.59 829.25,-9.41 831.32,-10.25 832.99,-11.11 834.27,-11.99 835.16,-12.89 835.68,-13.8 835.81,-14.72 835.59,-15.65 835,-16.59 834.08,-17.53 832.82,-18.47 831.25,-19.41 829.38,-20.35 827.22,-21.28 824.78,-22.2 822.1,-23.11 819.17,-24.01 816.02,-24.89 812.67,-25.75 809.13,-26.59 805.41,-27.41 801.53,-28.2 797.51,-28.96 793.36,-29.69 789.09,-30.39 784.72,-31.06 780.26,-31.69 775.72,-32.29 771.11,-32.84 766.44,-33.35 761.71,-33.82 756.94,-34.25 752.14,-34.64 747.3,-34.97 742.44,-35.26 737.56,-35.51 732.66,-35.7 727.75,-35.85 722.83,-35.95 717.91,-36 712.99,-36 708.06,-35.95 703.14,-35.85 698.23,-35.7 693.34,-35.51 688.45,-35.26 683.59,-34.97 678.76,-34.64 673.95,-34.25 669.18,-33.82 664.46,-33.35 659.79,-32.84 655.17,-32.29 650.63,-31.69 646.17,-31.06 641.8,-30.39 637.53,-29.69 633.38,-28.96 629.36,-28.2 625.49,-27.41 621.77,-26.59 618.22,-25.75 614.87,-24.89 611.72,-24.01 608.8,-23.11 606.11,-22.2 603.68,-21.28 601.52,-20.35 599.64,-19.41 598.07,-18.47 596.82,-17.53 595.89,-16.59 595.31,-15.65 595.08,-14.72 595.22,-13.8 595.73,-12.89 596.62,-11.99 597.91,-11.11 599.58,-10.25 601.65,-9.41 604.11,-8.59 606.96,-7.8 610.21,-7.04 613.84,-6.31 617.84,-5.61 622.21,-4.94 626.93,-4.31 632,-3.71 637.39,-3.16 643.08,-2.65 649.06,-2.18 655.3,-1.75 661.79,-1.36 668.49,-1.03 675.39,-0.74 682.44,-0.49 689.64,-0.3 696.93,-0.15 704.31,-0.05 711.73,0 719.17,0 726.59,-0.05"/>
<text text-anchor="middle" x="715.45" y="-14.3" font-family="Comfortaa" font-size="14.00">Chronophotographie</text>
</g>
<!-- qCv&#45;&gt;cp -->
<g id="edge11" class="edge">
<title>qCv&#45;&gt;cp</title>
<path fill="none" stroke="orange" stroke-width="5" d="M717.38,-200.71C723.71,-101.88 724.61,-81.72 719.71,-46.03"/>
<polygon fill="orange" stroke="orange" stroke-width="5" points="724.03,-45.29 718.26,-36.02 715.37,-46.54 724.03,-45.29"/>
</g>
<!-- pv -->
<g id="node12" class="node">
<title>pv</title>
<polygon fill="peachpuff" stroke="orange" stroke-width="2" points="561.64,-66.36 566.95,-66.46 572.19,-66.6 577.36,-66.8 582.44,-67.04 587.39,-67.33 592.21,-67.67 596.88,-68.06 601.37,-68.48 605.66,-68.95 609.76,-69.47 613.63,-70.02 617.27,-70.62 620.67,-71.25 623.81,-71.91 626.69,-72.61 629.3,-73.35 631.63,-74.11 633.68,-74.9 635.45,-75.72 636.94,-76.56 638.14,-77.42 639.06,-78.3 639.71,-79.19 640.07,-80.1 640.17,-81.03 640.01,-81.96 639.59,-82.89 638.93,-83.84 638.02,-84.78 636.89,-85.72 635.55,-86.66 633.99,-87.59 632.24,-88.51 630.31,-89.42 628.21,-90.32 625.95,-91.2 623.53,-92.06 620.99,-92.9 618.31,-93.72 615.53,-94.51 612.64,-95.27 609.65,-96 606.58,-96.7 603.44,-97.37 600.24,-98 596.97,-98.59 593.65,-99.15 590.3,-99.66 586.9,-100.13 583.47,-100.56 580.02,-100.94 576.54,-101.28 573.04,-101.57 569.53,-101.82 566.01,-102.01 562.48,-102.16 558.95,-102.26 555.41,-102.31 551.87,-102.31 548.33,-102.26 544.79,-102.16 541.26,-102.01 537.74,-101.82 534.23,-101.57 530.74,-101.28 527.26,-100.94 523.8,-100.56 520.38,-100.13 516.98,-99.66 513.62,-99.15 510.3,-98.59 507.04,-98 503.83,-97.37 500.69,-96.7 497.62,-96 494.64,-95.27 491.75,-94.51 488.96,-93.72 486.29,-92.9 483.74,-92.06 481.33,-91.2 479.07,-90.32 476.96,-89.42 475.03,-88.51 473.28,-87.59 471.73,-86.66 470.38,-85.72 469.25,-84.78 468.35,-83.84 467.68,-82.89 467.26,-81.96 467.1,-81.03 467.2,-80.1 467.57,-79.19 468.21,-78.3 469.13,-77.42 470.33,-76.56 471.82,-75.72 473.59,-74.9 475.64,-74.11 477.98,-73.35 480.58,-72.61 483.46,-71.91 486.61,-71.25 490,-70.62 493.64,-70.02 497.52,-69.47 501.61,-68.95 505.91,-68.48 510.4,-68.06 515.06,-67.67 519.88,-67.33 524.84,-67.04 529.91,-66.8 535.08,-66.6 540.33,-66.46 545.63,-66.36 550.96,-66.31 556.31,-66.31 561.64,-66.36"/>
<text text-anchor="middle" x="553.64" y="-80.61" font-family="Comfortaa" font-size="14.00">Pointage vidéo</text>
</g>
<!-- qCv&#45;&gt;pv -->
<g id="edge12" class="edge">
<title>qCv&#45;&gt;pv</title>
<path fill="none" stroke="orange" stroke-width="5" d="M703.2,-200.93C656.69,-136.16 640.79,-116.56 607.32,-102.19"/>
<polygon fill="orange" stroke="orange" stroke-width="5" points="608.8,-98.07 597.89,-98.44 605.57,-106.2 608.8,-98.07"/>
</g>
<!-- tr -->
<g id="node13" class="node">
<title>tr</title>
<polygon fill="peachpuff" stroke="orange" stroke-width="2" points="883.42,-77.69 886.12,-77.79 888.79,-77.93 891.43,-78.13 894.01,-78.37 896.54,-78.67 898.99,-79 901.37,-79.39 903.66,-79.82 905.85,-80.29 907.93,-80.8 909.91,-81.35 911.76,-81.95 913.49,-82.58 915.09,-83.24 916.56,-83.95 917.89,-84.68 919.08,-85.44 920.13,-86.23 921.03,-87.05 921.78,-87.89 922.4,-88.75 922.87,-89.63 923.19,-90.53 923.38,-91.44 923.43,-92.36 923.35,-93.29 923.14,-94.23 922.8,-95.17 922.34,-96.11 921.76,-97.05 921.07,-97.99 920.28,-98.92 919.39,-99.84 918.41,-100.75 917.34,-101.65 916.18,-102.53 914.95,-103.39 913.66,-104.23 912.29,-105.05 910.87,-105.84 909.4,-106.6 907.88,-107.33 906.32,-108.03 904.72,-108.7 903.08,-109.33 901.42,-109.92 899.73,-110.48 898.02,-110.99 896.29,-111.46 894.54,-111.89 892.78,-112.27 891.01,-112.61 889.23,-112.9 887.44,-113.15 885.64,-113.34 883.84,-113.49 882.04,-113.59 880.24,-113.64 878.44,-113.64 876.63,-113.59 874.83,-113.49 873.03,-113.34 871.24,-113.15 869.45,-112.9 867.67,-112.61 865.9,-112.27 864.14,-111.89 862.39,-111.46 860.66,-110.99 858.95,-110.48 857.26,-109.92 855.59,-109.33 853.96,-108.7 852.36,-108.03 850.79,-107.33 849.27,-106.6 847.8,-105.84 846.38,-105.05 845.02,-104.23 843.72,-103.39 842.49,-102.53 841.34,-101.65 840.27,-100.75 839.28,-99.84 838.39,-98.92 837.6,-97.99 836.91,-97.05 836.34,-96.11 835.88,-95.17 835.54,-94.23 835.32,-93.29 835.24,-92.36 835.29,-91.44 835.48,-90.53 835.81,-89.63 836.28,-88.75 836.89,-87.89 837.65,-87.05 838.55,-86.23 839.59,-85.44 840.78,-84.68 842.11,-83.95 843.58,-83.24 845.18,-82.58 846.91,-81.95 848.77,-81.35 850.74,-80.8 852.83,-80.29 855.02,-79.82 857.3,-79.39 859.68,-79 862.14,-78.67 864.66,-78.37 867.25,-78.13 869.88,-77.93 872.56,-77.79 875.26,-77.69 877.98,-77.64 880.7,-77.64 883.42,-77.69"/>
<text text-anchor="middle" x="879.34" y="-91.94" font-family="Comfortaa" font-size="14.00">Traces</text>
</g>
<!-- qCv&#45;&gt;tr -->
<g id="edge13" class="edge">
<title>qCv&#45;&gt;tr</title>
<path fill="none" stroke="orange" stroke-width="5" d="M734.07,-201.14C793.51,-141.55 811.39,-124.94 840.66,-111.24"/>
<polygon fill="orange" stroke="orange" stroke-width="5" points="842.78,-115.08 850.16,-107.04 839.25,-107.08 842.78,-115.08"/>
</g>
<!-- circ -->
<g id="node15" class="node">
<title>circ</title>
<polygon fill="peachpuff" stroke="orange" stroke-width="2" points="1060.18,-672.32 1063.83,-672.42 1067.44,-672.57 1071,-672.76 1074.49,-673.01 1077.9,-673.3 1081.22,-673.64 1084.43,-674.02 1087.51,-674.45 1090.47,-674.92 1093.29,-675.43 1095.96,-675.99 1098.46,-676.58 1100.8,-677.21 1102.96,-677.88 1104.94,-678.58 1106.74,-679.31 1108.34,-680.07 1109.75,-680.86 1110.97,-681.68 1111.99,-682.52 1112.82,-683.38 1113.46,-684.26 1113.9,-685.16 1114.15,-686.07 1114.22,-686.99 1114.11,-687.92 1113.82,-688.86 1113.36,-689.8 1112.74,-690.74 1111.96,-691.68 1111.04,-692.62 1109.97,-693.55 1108.76,-694.47 1107.43,-695.38 1105.99,-696.28 1104.43,-697.16 1102.77,-698.02 1101.02,-698.86 1099.18,-699.68 1097.26,-700.47 1095.27,-701.23 1093.22,-701.97 1091.11,-702.67 1088.94,-703.33 1086.74,-703.96 1084.49,-704.56 1082.21,-705.11 1079.9,-705.62 1077.56,-706.1 1075.2,-706.52 1072.82,-706.91 1070.43,-707.24 1068.03,-707.54 1065.61,-707.78 1063.19,-707.98 1060.76,-708.12 1058.32,-708.22 1055.89,-708.27 1053.45,-708.27 1051.02,-708.22 1048.58,-708.12 1046.16,-707.98 1043.73,-707.78 1041.32,-707.54 1038.91,-707.24 1036.52,-706.91 1034.14,-706.52 1031.78,-706.1 1029.45,-705.62 1027.13,-705.11 1024.85,-704.56 1022.61,-703.96 1020.4,-703.33 1018.24,-702.67 1016.13,-701.97 1014.07,-701.23 1012.08,-700.47 1010.16,-699.68 1008.33,-698.86 1006.57,-698.02 1004.91,-697.16 1003.36,-696.28 1001.91,-695.38 1000.58,-694.47 999.38,-693.55 998.31,-692.62 997.38,-691.68 996.6,-690.74 995.98,-689.8 995.52,-688.86 995.23,-687.92 995.12,-686.99 995.19,-686.07 995.44,-685.16 995.89,-684.26 996.52,-683.38 997.35,-682.52 998.37,-681.68 999.59,-680.86 1001,-680.07 1002.61,-679.31 1004.4,-678.58 1006.38,-677.88 1008.54,-677.21 1010.88,-676.58 1013.39,-675.99 1016.05,-675.43 1018.87,-674.92 1021.83,-674.45 1024.92,-674.02 1028.13,-673.64 1031.44,-673.3 1034.85,-673.01 1038.34,-672.76 1041.9,-672.57 1045.51,-672.42 1049.16,-672.32 1052.83,-672.27 1056.51,-672.27 1060.18,-672.32"/>
<text text-anchor="middle" x="1054.67" y="-686.57" font-family="Comfortaa" font-size="14.00">Circulaire</text>
</g>
<!-- qQt&#45;&gt;circ -->
<g id="edge15" class="edge">
<title>qQt&#45;&gt;circ</title>
<path fill="none" stroke="orange" stroke-width="5" d="M970.9,-521.78C1037.2,-589.87 1045.75,-602.61 1052.01,-662.15"/>
<polygon fill="orange" stroke="orange" stroke-width="5" points="1047.66,-662.61 1053.01,-672.12 1056.37,-661.74 1047.66,-662.61"/>
</g>
<!-- rect -->
<g id="node16" class="node">
<title>rect</title>
<polygon fill="peachpuff" stroke="orange" stroke-width="2" points="1156.48,-527.86 1160.18,-527.96 1163.85,-528.11 1167.46,-528.3 1171,-528.55 1174.46,-528.84 1177.83,-529.18 1181.09,-529.56 1184.22,-529.99 1187.22,-530.46 1190.08,-530.97 1192.79,-531.53 1195.33,-532.12 1197.7,-532.75 1199.9,-533.42 1201.91,-534.12 1203.73,-534.85 1205.36,-535.61 1206.79,-536.4 1208.03,-537.22 1209.07,-538.06 1209.91,-538.92 1210.55,-539.8 1211,-540.7 1211.26,-541.61 1211.32,-542.53 1211.21,-543.46 1210.92,-544.4 1210.45,-545.34 1209.82,-546.28 1209.03,-547.23 1208.09,-548.16 1207.01,-549.09 1205.79,-550.02 1204.44,-550.93 1202.97,-551.82 1201.39,-552.7 1199.7,-553.56 1197.92,-554.4 1196.06,-555.22 1194.11,-556.01 1192.09,-556.77 1190.01,-557.51 1187.87,-558.21 1185.67,-558.87 1183.43,-559.5 1181.15,-560.1 1178.84,-560.65 1176.49,-561.17 1174.12,-561.64 1171.72,-562.06 1169.31,-562.45 1166.88,-562.79 1164.44,-563.08 1161.99,-563.32 1159.53,-563.52 1157.07,-563.66 1154.6,-563.76 1152.13,-563.81 1149.65,-563.81 1147.18,-563.76 1144.71,-563.66 1142.25,-563.52 1139.79,-563.32 1137.34,-563.08 1134.9,-562.79 1132.47,-562.45 1130.06,-562.06 1127.66,-561.64 1125.29,-561.17 1122.94,-560.65 1120.63,-560.1 1118.35,-559.5 1116.11,-558.87 1113.91,-558.21 1111.77,-557.51 1109.69,-556.77 1107.67,-556.01 1105.72,-555.22 1103.86,-554.4 1102.08,-553.56 1100.39,-552.7 1098.81,-551.82 1097.34,-550.93 1095.99,-550.02 1094.77,-549.09 1093.69,-548.16 1092.75,-547.23 1091.96,-546.28 1091.33,-545.34 1090.86,-544.4 1090.57,-543.46 1090.46,-542.53 1090.52,-541.61 1090.78,-540.7 1091.23,-539.8 1091.87,-538.92 1092.71,-538.06 1093.75,-537.22 1094.99,-536.4 1096.42,-535.61 1098.05,-534.85 1099.87,-534.12 1101.88,-533.42 1104.08,-532.75 1106.45,-532.12 1108.99,-531.53 1111.7,-530.97 1114.56,-530.46 1117.56,-529.99 1120.69,-529.56 1123.95,-529.18 1127.32,-528.84 1130.78,-528.55 1134.32,-528.3 1137.93,-528.11 1141.59,-527.96 1145.3,-527.86 1149.02,-527.81 1152.76,-527.81 1156.48,-527.86"/>
<text text-anchor="middle" x="1150.89" y="-542.11" font-family="Comfortaa" font-size="14.00">Rectiligne</text>
</g>
<!-- qQt&#45;&gt;rect -->
<g id="edge16" class="edge">
<title>qQt&#45;&gt;rect</title>
<path fill="none" stroke="orange" stroke-width="5" d="M1017.73,-511.57C1063.17,-517.12 1084.76,-520.75 1104.79,-527.17"/>
<polygon fill="orange" stroke="orange" stroke-width="5" points="1103.39,-531.32 1114.27,-530.45 1106.25,-523.05 1103.39,-531.32"/>
</g>
<!-- quel -->
<g id="node17" class="node">
<title>quel</title>
<polygon fill="peachpuff" stroke="orange" stroke-width="2" points="1114.03,-351.39 1118.57,-351.49 1123.06,-351.63 1127.49,-351.83 1131.84,-352.07 1136.08,-352.37 1140.21,-352.7 1144.2,-353.09 1148.05,-353.51 1151.73,-353.99 1155.24,-354.5 1158.55,-355.05 1161.67,-355.65 1164.58,-356.28 1167.27,-356.94 1169.74,-357.64 1171.97,-358.38 1173.97,-359.14 1175.73,-359.93 1177.24,-360.75 1178.52,-361.59 1179.55,-362.45 1180.34,-363.33 1180.89,-364.22 1181.2,-365.14 1181.29,-366.06 1181.15,-366.99 1180.79,-367.93 1180.22,-368.87 1179.45,-369.81 1178.48,-370.75 1177.32,-371.69 1175.99,-372.62 1174.5,-373.54 1172.84,-374.45 1171.04,-375.35 1169.1,-376.23 1167.04,-377.09 1164.85,-377.93 1162.56,-378.75 1160.18,-379.54 1157.7,-380.3 1155.15,-381.03 1152.52,-381.73 1149.83,-382.4 1147.08,-383.03 1144.28,-383.62 1141.44,-384.18 1138.57,-384.69 1135.66,-385.16 1132.72,-385.59 1129.76,-385.97 1126.78,-386.31 1123.79,-386.6 1120.78,-386.85 1117.77,-387.04 1114.74,-387.19 1111.72,-387.29 1108.68,-387.34 1105.65,-387.34 1102.62,-387.29 1099.59,-387.19 1096.57,-387.04 1093.55,-386.85 1090.55,-386.6 1087.55,-386.31 1084.57,-385.97 1081.62,-385.59 1078.68,-385.16 1075.77,-384.69 1072.89,-384.18 1070.05,-383.62 1067.26,-383.03 1064.51,-382.4 1061.82,-381.73 1059.19,-381.03 1056.64,-380.3 1054.16,-379.54 1051.77,-378.75 1049.48,-377.93 1047.3,-377.09 1045.24,-376.23 1043.3,-375.35 1041.5,-374.45 1039.84,-373.54 1038.34,-372.62 1037.01,-371.69 1035.86,-370.75 1034.89,-369.81 1034.12,-368.87 1033.55,-367.93 1033.19,-366.99 1033.05,-366.06 1033.13,-365.14 1033.45,-364.22 1034,-363.33 1034.79,-362.45 1035.82,-361.59 1037.09,-360.75 1038.61,-359.93 1040.37,-359.14 1042.36,-358.38 1044.6,-357.64 1047.06,-356.94 1049.75,-356.28 1052.66,-355.65 1055.78,-355.05 1059.1,-354.5 1062.61,-353.99 1066.29,-353.51 1070.13,-353.09 1074.13,-352.7 1078.26,-352.37 1082.5,-352.07 1086.85,-351.83 1091.27,-351.63 1095.77,-351.49 1100.31,-351.39 1104.88,-351.34 1109.46,-351.34 1114.03,-351.39"/>
<text text-anchor="middle" x="1107.17" y="-365.64" font-family="Comfortaa" font-size="14.00">Quelconque</text>
</g>
<!-- qQt&#45;&gt;quel -->
<g id="edge17" class="edge">
<title>qQt&#45;&gt;quel</title>
<path fill="none" stroke="orange" stroke-width="5" d="M978.63,-486.63C1050.53,-436.46 1067.16,-423.6 1088.44,-395.48"/>
<polygon fill="orange" stroke="orange" stroke-width="5" points="1092.21,-397.75 1094.62,-387.1 1085.16,-392.56 1092.21,-397.75"/>
</g>
<!-- dep -->
<g id="node19" class="node">
<title>dep</title>
<g id="a_node19"><a xlink:title="Quel point de référence">
<polygon fill="lightsteelblue" stroke="darkslategray" stroke-width="2" points="527.03,-451.32 535.22,-451.42 543.33,-451.56 551.31,-451.76 559.15,-452 566.81,-452.29 574.25,-452.63 581.45,-453.02 588.39,-453.44 595.03,-453.92 601.35,-454.43 607.33,-454.98 612.96,-455.58 618.2,-456.21 623.06,-456.87 627.5,-457.57 631.53,-458.31 635.14,-459.07 638.31,-459.86 641.04,-460.68 643.34,-461.52 645.19,-462.38 646.62,-463.26 647.61,-464.15 648.18,-465.06 648.33,-465.99 648.08,-466.92 647.43,-467.86 646.41,-468.8 645.01,-469.74 643.26,-470.68 641.18,-471.62 638.78,-472.55 636.08,-473.47 633.1,-474.38 629.85,-475.28 626.35,-476.16 622.63,-477.02 618.69,-477.86 614.57,-478.68 610.26,-479.47 605.8,-480.23 601.19,-480.96 596.45,-481.66 591.6,-482.33 586.64,-482.96 581.6,-483.55 576.48,-484.11 571.29,-484.62 566.04,-485.09 560.75,-485.52 555.41,-485.9 550.04,-486.24 544.64,-486.53 539.22,-486.78 533.78,-486.97 528.33,-487.12 522.86,-487.22 517.4,-487.27 511.93,-487.27 506.46,-487.22 501,-487.12 495.55,-486.97 490.11,-486.78 484.69,-486.53 479.29,-486.24 473.92,-485.9 468.58,-485.52 463.29,-485.09 458.04,-484.62 452.85,-484.11 447.73,-483.55 442.69,-482.96 437.73,-482.33 432.88,-481.66 428.14,-480.96 423.53,-480.23 419.07,-479.47 414.76,-478.68 410.63,-477.86 406.7,-477.02 402.97,-476.16 399.48,-475.28 396.23,-474.38 393.24,-473.47 390.54,-472.55 388.14,-471.62 386.06,-470.68 384.32,-469.74 382.92,-468.8 381.89,-467.86 381.25,-466.92 380.99,-465.99 381.15,-465.06 381.72,-464.15 382.71,-463.26 384.13,-462.38 385.99,-461.52 388.29,-460.68 391.02,-459.86 394.19,-459.07 397.79,-458.31 401.82,-457.57 406.27,-456.87 411.12,-456.21 416.37,-455.58 421.99,-454.98 427.98,-454.43 434.3,-453.92 440.94,-453.44 447.87,-453.02 455.08,-452.63 462.52,-452.29 470.18,-452 478.01,-451.76 486,-451.56 494.1,-451.42 502.29,-451.32 510.53,-451.27 518.79,-451.27 527.03,-451.32"/>
<text text-anchor="middle" x="514.66" y="-465.57" font-family="Comfortaa" font-size="14.00">Dépend de l&#39;observateur</text>
</a>
</g>
</g>
<!-- rel&#45;&gt;dep -->
<g id="edge19" class="edge">
<title>rel&#45;&gt;dep</title>
<path fill="none" stroke="darkslategray" stroke-width="5" d="M544.24,-583.53C518.88,-535.7 512.93,-521.97 513.08,-497.43"/>
<polygon fill="darkslategray" stroke="darkslategray" stroke-width="5" points="517.46,-497.54 513.42,-487.4 508.71,-497.25 517.46,-497.54"/>
</g>
<!-- dep&#45;&gt;D -->
<g id="edge20" class="edge">
<title>dep&#45;&gt;D</title>
<path fill="none" stroke="darkslategray" stroke-width="5" d="M484.5,-486.66C406,-532.2 390.35,-544.93 368.92,-593.04"/>
<polygon fill="darkslategray" stroke="darkslategray" stroke-width="5" points="364.81,-591.53 364.84,-602.45 372.83,-595.02 364.81,-591.53"/>
</g>
<!-- dep&#45;&gt;T -->
<g id="edge21" class="edge">
<title>dep&#45;&gt;T</title>
<path fill="none" stroke="darkslategray" stroke-width="5" d="M550.65,-451.72C611.52,-422.52 633.31,-416.44 677.01,-425.93"/>
<polygon fill="darkslategray" stroke="darkslategray" stroke-width="5" points="676.28,-430.25 687.01,-428.27 678.27,-421.73 676.28,-430.25"/>
</g>
</g>
</svg>
