<?xml version="1.0" encoding="UTF-8" standalone="no"?>
<!DOCTYPE svg PUBLIC "-//W3C//DTD SVG 1.1//EN"
 "http://www.w3.org/Graphics/SVG/1.1/DTD/svg11.dtd">
<!-- Generated by graphviz version 2.43.0 (0)
 -->
<!-- Title: incertitudes Pages: 1 -->
<svg width="739pt" height="120pt"
 viewBox="0.00 0.00 738.60 120.00" xmlns="http://www.w3.org/2000/svg" xmlns:xlink="http://www.w3.org/1999/xlink">
<g id="graph0" class="graph" transform="scale(1 1) rotate(0) translate(4 116)">
<title>incertitudes</title>
<polygon fill="white" stroke="transparent" points="-4,4 -4,-116 734.6,-116 734.6,4 -4,4"/>
<!-- E -->
<g id="node1" class="node">
<title>E</title>
<polygon fill="coral" stroke="black" points="178,-55 0,-55 0,-19 178,-19 178,-55"/>
<text text-anchor="middle" x="89" y="-33.3" font-family="Times,serif" font-size="14.00">Estimation incertitude</text>
</g>
<!-- MD -->
<g id="node2" class="node">
<title>MD</title>
<ellipse fill="black" stroke="black" cx="338.8" cy="-56" rx="1.8" ry="1.8"/>
</g>
<!-- E&#45;&#45;MD -->
<g id="edge1" class="edge">
<title>E&#45;&#45;MD</title>
<path fill="none" stroke="black" d="M178.13,-54.6C244.82,-54.6 326.38,-54.6 337.52,-54.6"/>
<text text-anchor="middle" x="257.5" y="-59.8" font-family="Times,serif" font-size="14.00">Mesure directe</text>
</g>
<!-- MI -->
<g id="node3" class="node">
<title>MI</title>
<ellipse fill="black" stroke="black" cx="338.8" cy="-18" rx="1.8" ry="1.8"/>
</g>
<!-- E&#45;&#45;MI -->
<g id="edge7" class="edge">
<title>E&#45;&#45;MI</title>
<path fill="none" stroke="black" d="M178.13,-19.4C244.82,-19.4 326.38,-19.4 337.52,-19.4"/>
<text text-anchor="middle" x="257.5" y="-21.8" font-family="Times,serif" font-size="14.00">Mesure indirecte</text>
</g>
<!-- UM -->
<g id="node4" class="node">
<title>UM</title>
<g id="a_node4"><a xlink:title="Une mesure">
<ellipse fill="black" stroke="black" cx="568.6" cy="-94" rx="1.8" ry="1.8"/>
</a>
</g>
</g>
<!-- MD&#45;&#45;UM -->
<g id="edge3" class="edge">
<title>MD&#45;&#45;UM</title>
<path fill="none" stroke="black" d="M339.6,-57.63C339.6,-64.91 339.6,-94 339.6,-94 339.6,-94 544.24,-94 566.62,-94"/>
<text text-anchor="middle" x="425.1" y="-97.8" font-family="Times,serif" font-size="14.00">Une seule mesure</text>
</g>
<!-- PM -->
<g id="node5" class="node">
<title>PM</title>
<ellipse fill="black" stroke="black" cx="568.6" cy="-56" rx="1.8" ry="1.8"/>
</g>
<!-- MD&#45;&#45;PM -->
<g id="edge2" class="edge">
<title>MD&#45;&#45;PM</title>
<path fill="none" stroke="black" d="M340.79,-56C361.84,-56 543.65,-56 566.29,-56"/>
<text text-anchor="middle" x="425.1" y="-59.8" font-family="Times,serif" font-size="14.00">Plusieurs mesures</text>
</g>
<!-- TC -->
<g id="node8" class="node">
<title>TC</title>
<polygon fill="lightgrey" stroke="black" points="627.6,-36 509.6,-36 509.6,0 627.6,0 627.6,-36"/>
<text text-anchor="middle" x="568.6" y="-14.3" font-family="Times,serif" font-size="14.00">Type composé</text>
</g>
<!-- MI&#45;&#45;TC -->
<g id="edge8" class="edge">
<title>MI&#45;&#45;TC</title>
<path fill="none" stroke="black" d="M340.79,-18C355.35,-18 446.82,-18 509.33,-18"/>
</g>
<!-- TB -->
<g id="node7" class="node">
<title>TB</title>
<polygon fill="lightgrey" stroke="black" points="730.6,-112 664.6,-112 664.6,-76 730.6,-76 730.6,-112"/>
<text text-anchor="middle" x="697.6" y="-90.3" font-family="Times,serif" font-size="14.00">Type B</text>
</g>
<!-- UM&#45;&#45;TB -->
<g id="edge4" class="edge">
<title>UM&#45;&#45;TB</title>
<path fill="none" stroke="black" d="M570.42,-94C580.5,-94 630.14,-94 664.33,-94"/>
</g>
<!-- TA -->
<g id="node6" class="node">
<title>TA</title>
<polygon fill="lightgrey" stroke="black" points="730.1,-58 665.1,-58 665.1,-22 730.1,-22 730.1,-58"/>
<text text-anchor="middle" x="697.6" y="-36.3" font-family="Times,serif" font-size="14.00">Type A</text>
</g>
<!-- PM&#45;&#45;TA -->
<g id="edge5" class="edge">
<title>PM&#45;&#45;TA</title>
<path fill="none" stroke="black" d="M570.42,-56C580.56,-56 630.74,-56 664.96,-56"/>
</g>
<!-- PM&#45;&#45;TB -->
<g id="edge6" class="edge">
<title>PM&#45;&#45;TB</title>
<path fill="none" stroke="black" d="M568.6,-57.84C568.6,-64.1 568.6,-84.1 568.6,-84.1 568.6,-84.1 626.16,-84.1 664.38,-84.1"/>
</g>
</g>
</svg>
