<?xml version="1.0" encoding="UTF-8" standalone="no"?>
<!DOCTYPE svg PUBLIC "-//W3C//DTD SVG 1.1//EN"
 "http://www.w3.org/Graphics/SVG/1.1/DTD/svg11.dtd">
<!-- Generated by graphviz version 2.43.0 (0)
 -->
<!-- Title: myGraph Pages: 1 -->
<svg width="498pt" height="136pt"
 viewBox="0.00 0.00 498.22 136.00" xmlns="http://www.w3.org/2000/svg" xmlns:xlink="http://www.w3.org/1999/xlink">
<g id="graph0" class="graph" transform="scale(1 1) rotate(0) translate(4 132)">
<title>myGraph</title>
<polygon fill="white" stroke="transparent" points="-4,4 -4,-132 494.22,-132 494.22,4 -4,4"/>
<g id="clust1" class="cluster">
<title>clusterV1</title>
<polygon fill="none" stroke="black" points="8,-8 8,-60 482.22,-60 482.22,-8 8,-8"/>
</g>
<g id="clust2" class="cluster">
<title>clusterV2</title>
<polygon fill="none" stroke="black" points="30.84,-68 30.84,-120 469.07,-120 469.07,-68 30.84,-68"/>
</g>
<!-- veO -->
<g id="node1" class="node">
<title>veO</title>
<polygon fill="coral" stroke="coral" points="94.64,-16.05 99.05,-16.15 103.42,-16.3 107.72,-16.49 111.94,-16.74 116.06,-17.03 120.06,-17.36 123.94,-17.75 127.68,-18.18 131.25,-18.65 134.66,-19.16 137.88,-19.71 140.9,-20.31 143.73,-20.94 146.34,-21.61 148.74,-22.31 150.9,-23.04 152.84,-23.8 154.55,-24.59 156.02,-25.41 157.26,-26.25 158.26,-27.11 159.03,-27.99 159.56,-28.89 159.87,-29.8 159.95,-30.72 159.81,-31.65 159.47,-32.59 158.91,-33.53 158.16,-34.47 157.22,-35.41 156.1,-36.35 154.81,-37.28 153.36,-38.2 151.75,-39.11 150,-40.01 148.12,-40.89 146.11,-41.75 143.99,-42.59 141.77,-43.41 139.45,-44.2 137.05,-44.96 134.57,-45.69 132.02,-46.39 129.4,-47.06 126.74,-47.69 124.02,-48.29 121.26,-48.84 118.47,-49.35 115.64,-49.82 112.79,-50.25 109.92,-50.64 107.03,-50.97 104.12,-51.26 101.2,-51.51 98.27,-51.7 95.34,-51.85 92.4,-51.95 89.46,-52 86.51,-52 83.57,-51.95 80.63,-51.85 77.69,-51.7 74.76,-51.51 71.84,-51.26 68.94,-50.97 66.05,-50.64 63.17,-50.25 60.32,-49.82 57.5,-49.35 54.7,-48.84 51.95,-48.29 49.23,-47.69 46.56,-47.06 43.95,-46.39 41.4,-45.69 38.92,-44.96 36.51,-44.2 34.2,-43.41 31.97,-42.59 29.85,-41.75 27.85,-40.89 25.97,-40.01 24.22,-39.11 22.61,-38.2 21.16,-37.28 19.87,-36.35 18.74,-35.41 17.8,-34.47 17.05,-33.53 16.5,-32.59 16.15,-31.65 16.02,-30.72 16.1,-29.8 16.41,-28.89 16.94,-27.99 17.71,-27.11 18.71,-26.25 19.94,-25.41 21.41,-24.59 23.12,-23.8 25.06,-23.04 27.23,-22.31 29.62,-21.61 32.24,-20.94 35.06,-20.31 38.09,-19.71 41.31,-19.16 44.72,-18.65 48.29,-18.18 52.02,-17.75 55.9,-17.36 59.91,-17.03 64.03,-16.74 68.25,-16.49 72.55,-16.3 76.91,-16.15 81.32,-16.05 85.76,-16 90.21,-16 94.64,-16.05"/>
<text text-anchor="middle" x="87.98" y="-30.3" font-family="Times,serif" font-size="14.00">Observation</text>
</g>
<!-- veF -->
<g id="node2" class="node">
<title>veF</title>
<polygon fill="coral" stroke="coral" points="271.28,-16.05 273.48,-16.15 275.67,-16.3 277.82,-16.49 279.93,-16.74 281.99,-17.03 283.99,-17.36 285.93,-17.75 287.8,-18.18 289.58,-18.65 291.29,-19.16 292.9,-19.71 294.41,-20.31 295.82,-20.94 297.13,-21.61 298.33,-22.31 299.41,-23.04 300.38,-23.8 301.23,-24.59 301.97,-25.41 302.59,-26.25 303.09,-27.11 303.47,-27.99 303.74,-28.89 303.89,-29.8 303.93,-30.72 303.87,-31.65 303.69,-32.59 303.41,-33.53 303.04,-34.47 302.57,-35.41 302.01,-36.35 301.36,-37.28 300.64,-38.2 299.83,-39.11 298.96,-40.01 298.02,-40.89 297.01,-41.75 295.95,-42.59 294.84,-43.41 293.68,-44.2 292.48,-44.96 291.24,-45.69 289.97,-46.39 288.66,-47.06 287.33,-47.69 285.97,-48.29 284.59,-48.84 283.19,-49.35 281.78,-49.82 280.36,-50.25 278.92,-50.64 277.47,-50.97 276.02,-51.26 274.56,-51.51 273.1,-51.7 271.63,-51.85 270.16,-51.95 268.69,-52 267.21,-52 265.74,-51.95 264.27,-51.85 262.8,-51.7 261.34,-51.51 259.88,-51.26 258.43,-50.97 256.98,-50.64 255.54,-50.25 254.12,-49.82 252.71,-49.35 251.31,-48.84 249.93,-48.29 248.57,-47.69 247.24,-47.06 245.93,-46.39 244.66,-45.69 243.42,-44.96 242.22,-44.2 241.06,-43.41 239.95,-42.59 238.89,-41.75 237.88,-40.89 236.94,-40.01 236.07,-39.11 235.26,-38.2 234.54,-37.28 233.89,-36.35 233.33,-35.41 232.86,-34.47 232.49,-33.53 232.21,-32.59 232.03,-31.65 231.97,-30.72 232.01,-29.8 232.16,-28.89 232.43,-27.99 232.81,-27.11 233.31,-26.25 233.93,-25.41 234.67,-24.59 235.52,-23.8 236.49,-23.04 237.57,-22.31 238.77,-21.61 240.08,-20.94 241.49,-20.31 243,-19.71 244.61,-19.16 246.32,-18.65 248.1,-18.18 249.97,-17.75 251.91,-17.36 253.91,-17.03 255.97,-16.74 258.08,-16.49 260.23,-16.3 262.42,-16.15 264.62,-16.05 266.84,-16 269.06,-16 271.28,-16.05"/>
<text text-anchor="middle" x="267.95" y="-30.3" font-family="Times,serif" font-size="14.00">Faits</text>
</g>
<!-- veO&#45;&gt;veF -->
<g id="edge1" class="edge">
<title>veO&#45;&gt;veF</title>
<path fill="none" stroke="black" d="M150.98,-23C167.36,-22.81 187.89,-24.66 221.91,-28.56"/>
<polygon fill="black" stroke="black" points="221.54,-32.04 231.87,-29.72 222.34,-25.09 221.54,-32.04"/>
</g>
<!-- veT -->
<g id="node3" class="node">
<title>veT</title>
<polygon fill="coral" stroke="coral" points="429.64,-16.05 432.66,-16.15 435.64,-16.3 438.59,-16.49 441.48,-16.74 444.3,-17.03 447.05,-17.36 449.7,-17.75 452.26,-18.18 454.71,-18.65 457.04,-19.16 459.24,-19.71 461.32,-20.31 463.25,-20.94 465.04,-21.61 466.68,-22.31 468.17,-23.04 469.5,-23.8 470.66,-24.59 471.67,-25.41 472.52,-26.25 473.2,-27.11 473.73,-27.99 474.1,-28.89 474.3,-29.8 474.36,-30.72 474.27,-31.65 474.03,-32.59 473.65,-33.53 473.14,-34.47 472.49,-35.41 471.73,-36.35 470.84,-37.28 469.84,-38.2 468.74,-39.11 467.55,-40.01 466.26,-40.89 464.88,-41.75 463.43,-42.59 461.91,-43.41 460.32,-44.2 458.68,-44.96 456.98,-45.69 455.23,-46.39 453.44,-47.06 451.61,-47.69 449.76,-48.29 447.87,-48.84 445.95,-49.35 444.02,-49.82 442.07,-50.25 440.1,-50.64 438.12,-50.97 436.13,-51.26 434.13,-51.51 432.12,-51.7 430.11,-51.85 428.1,-51.95 426.08,-52 424.07,-52 422.05,-51.95 420.04,-51.85 418.03,-51.7 416.02,-51.51 414.02,-51.26 412.03,-50.97 410.05,-50.64 408.08,-50.25 406.13,-49.82 404.2,-49.35 402.28,-48.84 400.4,-48.29 398.54,-47.69 396.71,-47.06 394.92,-46.39 393.17,-45.69 391.47,-44.96 389.83,-44.2 388.24,-43.41 386.72,-42.59 385.27,-41.75 383.89,-40.89 382.61,-40.01 381.41,-39.11 380.31,-38.2 379.31,-37.28 378.43,-36.35 377.66,-35.41 377.02,-34.47 376.5,-33.53 376.12,-32.59 375.88,-31.65 375.79,-30.72 375.85,-29.8 376.06,-28.89 376.42,-27.99 376.95,-27.11 377.63,-26.25 378.48,-25.41 379.49,-24.59 380.66,-23.8 381.98,-23.04 383.47,-22.31 385.11,-21.61 386.9,-20.94 388.83,-20.31 390.91,-19.71 393.11,-19.16 395.44,-18.65 397.89,-18.18 400.45,-17.75 403.11,-17.36 405.85,-17.03 408.67,-16.74 411.56,-16.49 414.51,-16.3 417.5,-16.15 420.52,-16.05 423.55,-16 426.6,-16 429.64,-16.05"/>
<text text-anchor="middle" x="425.08" y="-30.3" font-family="Times,serif" font-size="14.00">Théorie</text>
</g>
<!-- veF&#45;&gt;veT -->
<g id="edge2" class="edge">
<title>veF&#45;&gt;veT</title>
<path fill="none" stroke="black" d="M303.92,-31.07C333.43,-28.73 351.94,-27.48 366.27,-27.33"/>
<polygon fill="black" stroke="black" points="366.5,-30.83 376.53,-27.43 366.57,-23.83 366.5,-30.83"/>
</g>
<!-- vtT -->
<g id="node4" class="node">
<title>vtT</title>
<polygon fill="limegreen" stroke="limegreen" points="92.54,-76.05 95.56,-76.15 98.55,-76.3 101.5,-76.49 104.39,-76.74 107.21,-77.03 109.95,-77.36 112.61,-77.75 115.17,-78.18 117.61,-78.65 119.95,-79.16 122.15,-79.71 124.23,-80.31 126.16,-80.94 127.95,-81.61 129.59,-82.31 131.07,-83.04 132.4,-83.8 133.57,-84.59 134.58,-85.41 135.43,-86.25 136.11,-87.11 136.64,-87.99 137,-88.89 137.21,-89.8 137.27,-90.72 137.18,-91.65 136.94,-92.59 136.56,-93.53 136.04,-94.47 135.4,-95.41 134.63,-96.35 133.75,-97.28 132.75,-98.2 131.65,-99.11 130.45,-100.01 129.17,-100.89 127.79,-101.75 126.34,-102.59 124.82,-103.41 123.23,-104.2 121.58,-104.96 119.89,-105.69 118.14,-106.39 116.35,-107.06 114.52,-107.69 112.66,-108.29 110.77,-108.84 108.86,-109.35 106.93,-109.82 104.97,-110.25 103.01,-110.64 101.03,-110.97 99.04,-111.26 97.04,-111.51 95.03,-111.7 93.02,-111.85 91.01,-111.95 88.99,-112 86.98,-112 84.96,-111.95 82.95,-111.85 80.94,-111.7 78.93,-111.51 76.93,-111.26 74.94,-110.97 72.96,-110.64 70.99,-110.25 69.04,-109.82 67.11,-109.35 65.19,-108.84 63.3,-108.29 61.44,-107.69 59.62,-107.06 57.83,-106.39 56.08,-105.69 54.38,-104.96 52.74,-104.2 51.15,-103.41 49.63,-102.59 48.17,-101.75 46.8,-100.89 45.51,-100.01 44.31,-99.11 43.21,-98.2 42.22,-97.28 41.33,-96.35 40.57,-95.41 39.92,-94.47 39.41,-93.53 39.03,-92.59 38.79,-91.65 38.7,-90.72 38.75,-89.8 38.96,-88.89 39.33,-87.99 39.85,-87.11 40.54,-86.25 41.39,-85.41 42.39,-84.59 43.56,-83.8 44.89,-83.04 46.38,-82.31 48.02,-81.61 49.81,-80.94 51.74,-80.31 53.81,-79.71 56.02,-79.16 58.35,-78.65 60.8,-78.18 63.36,-77.75 66.01,-77.36 68.76,-77.03 71.58,-76.74 74.47,-76.49 77.41,-76.3 80.4,-76.15 83.42,-76.05 86.46,-76 89.51,-76 92.54,-76.05"/>
<text text-anchor="middle" x="87.98" y="-90.3" font-family="Times,serif" font-size="14.00">Théorie</text>
</g>
<!-- vtO -->
<g id="node6" class="node">
<title>vtO</title>
<polygon fill="limegreen" stroke="limegreen" points="274.61,-76.05 279.02,-76.15 283.38,-76.3 287.68,-76.49 291.9,-76.74 296.02,-77.03 300.03,-77.36 303.91,-77.75 307.64,-78.18 311.22,-78.65 314.62,-79.16 317.84,-79.71 320.87,-80.31 323.7,-80.94 326.31,-81.61 328.7,-82.31 330.87,-83.04 332.81,-83.8 334.52,-84.59 335.99,-85.41 337.23,-86.25 338.23,-87.11 338.99,-87.99 339.53,-88.89 339.83,-89.8 339.92,-90.72 339.78,-91.65 339.43,-92.59 338.88,-93.53 338.13,-94.47 337.19,-95.41 336.07,-96.35 334.78,-97.28 333.32,-98.2 331.72,-99.11 329.97,-100.01 328.08,-100.89 326.08,-101.75 323.96,-102.59 321.74,-103.41 319.42,-104.2 317.02,-104.96 314.53,-105.69 311.98,-106.39 309.37,-107.06 306.7,-107.69 303.99,-108.29 301.23,-108.84 298.44,-109.35 295.61,-109.82 292.76,-110.25 289.89,-110.64 287,-110.97 284.09,-111.26 281.17,-111.51 278.24,-111.7 275.31,-111.85 272.37,-111.95 269.42,-112 266.48,-112 263.53,-111.95 260.59,-111.85 257.66,-111.7 254.73,-111.51 251.81,-111.26 248.9,-110.97 246.01,-110.64 243.14,-110.25 240.29,-109.82 237.46,-109.35 234.67,-108.84 231.91,-108.29 229.2,-107.69 226.53,-107.06 223.92,-106.39 221.37,-105.69 218.88,-104.96 216.48,-104.2 214.16,-103.41 211.94,-102.59 209.82,-101.75 207.82,-100.89 205.93,-100.01 204.18,-99.11 202.58,-98.2 201.12,-97.28 199.83,-96.35 198.71,-95.41 197.77,-94.47 197.02,-93.53 196.47,-92.59 196.12,-91.65 195.98,-90.72 196.07,-89.8 196.37,-88.89 196.91,-87.99 197.67,-87.11 198.67,-86.25 199.91,-85.41 201.38,-84.59 203.09,-83.8 205.03,-83.04 207.2,-82.31 209.59,-81.61 212.2,-80.94 215.03,-80.31 218.06,-79.71 221.28,-79.16 224.68,-78.65 228.26,-78.18 231.99,-77.75 235.87,-77.36 239.88,-77.03 244,-76.74 248.22,-76.49 252.52,-76.3 256.88,-76.15 261.29,-76.05 265.73,-76 270.17,-76 274.61,-76.05"/>
<text text-anchor="middle" x="267.95" y="-90.3" font-family="Times,serif" font-size="14.00">Observation</text>
</g>
<!-- vtT&#45;&gt;vtO -->
<g id="edge3" class="edge">
<title>vtT&#45;&gt;vtO</title>
<path fill="none" stroke="black" d="M126.17,-102.83C145.05,-105.97 162.26,-105.72 197.8,-102.08"/>
<polygon fill="black" stroke="black" points="198.21,-105.56 207.78,-101.02 197.47,-98.6 198.21,-105.56"/>
</g>
<!-- vtF -->
<g id="node5" class="node">
<title>vtF</title>
<polygon fill="limegreen" stroke="limegreen" points="428.41,-76.05 430.61,-76.15 432.79,-76.3 434.94,-76.49 437.05,-76.74 439.11,-77.03 441.12,-77.36 443.06,-77.75 444.92,-78.18 446.71,-78.65 448.41,-79.16 450.02,-79.71 451.54,-80.31 452.95,-80.94 454.26,-81.61 455.45,-82.31 456.54,-83.04 457.51,-83.8 458.36,-84.59 459.1,-85.41 459.71,-86.25 460.21,-87.11 460.6,-87.99 460.86,-88.89 461.02,-89.8 461.06,-90.72 460.99,-91.65 460.82,-92.59 460.54,-93.53 460.17,-94.47 459.7,-95.41 459.13,-96.35 458.49,-97.28 457.76,-98.2 456.96,-99.11 456.08,-100.01 455.14,-100.89 454.14,-101.75 453.08,-102.59 451.97,-103.41 450.81,-104.2 449.61,-104.96 448.37,-105.69 447.09,-106.39 445.79,-107.06 444.45,-107.69 443.09,-108.29 441.72,-108.84 440.32,-109.35 438.91,-109.82 437.48,-110.25 436.04,-110.64 434.6,-110.97 433.15,-111.26 431.69,-111.51 430.22,-111.7 428.75,-111.85 427.28,-111.95 425.81,-112 424.34,-112 422.87,-111.95 421.4,-111.85 419.93,-111.7 418.47,-111.51 417.01,-111.26 415.55,-110.97 414.11,-110.64 412.67,-110.25 411.25,-109.82 409.83,-109.35 408.44,-108.84 407.06,-108.29 405.7,-107.69 404.37,-107.06 403.06,-106.39 401.78,-105.69 400.54,-104.96 399.34,-104.2 398.18,-103.41 397.07,-102.59 396.01,-101.75 395.01,-100.89 394.07,-100.01 393.19,-99.11 392.39,-98.2 391.66,-97.28 391.02,-96.35 390.46,-95.41 389.99,-94.47 389.61,-93.53 389.33,-92.59 389.16,-91.65 389.09,-90.72 389.13,-89.8 389.29,-88.89 389.55,-87.99 389.94,-87.11 390.44,-86.25 391.06,-85.41 391.79,-84.59 392.65,-83.8 393.62,-83.04 394.7,-82.31 395.9,-81.61 397.2,-80.94 398.62,-80.31 400.13,-79.71 401.74,-79.16 403.44,-78.65 405.23,-78.18 407.1,-77.75 409.04,-77.36 411.04,-77.03 413.1,-76.74 415.21,-76.49 417.36,-76.3 419.54,-76.15 421.75,-76.05 423.96,-76 426.19,-76 428.41,-76.05"/>
<text text-anchor="middle" x="425.08" y="-90.3" font-family="Times,serif" font-size="14.00">Faits</text>
</g>
<!-- vtO&#45;&gt;vtF -->
<g id="edge4" class="edge">
<title>vtO&#45;&gt;vtF</title>
<path fill="none" stroke="black" d="M331.92,-99.04C355.94,-100.7 370.19,-101.11 383.02,-100.25"/>
<polygon fill="black" stroke="black" points="383.54,-103.72 393.17,-99.29 382.89,-96.75 383.54,-103.72"/>
</g>
</g>
</svg>
