<?xml version="1.0" encoding="UTF-8" standalone="no"?>
<!DOCTYPE svg PUBLIC "-//W3C//DTD SVG 1.1//EN"
 "http://www.w3.org/Graphics/SVG/1.1/DTD/svg11.dtd">
<!-- Generated by graphviz version 2.43.0 (0)
 -->
<!-- Title: inductivisme Pages: 1 -->
<svg width="815pt" height="44pt"
 viewBox="0.00 0.00 814.86 44.00" xmlns="http://www.w3.org/2000/svg" xmlns:xlink="http://www.w3.org/1999/xlink">
<g id="graph0" class="graph" transform="scale(1 1) rotate(0) translate(4 40)">
<title>inductivisme</title>
<polygon fill="white" stroke="transparent" points="-4,4 -4,-40 810.86,-40 810.86,4 -4,4"/>
<!-- LT -->
<g id="node1" class="node">
<title>LT</title>
<polygon fill="lightgrey" stroke="black" points="344.77,-0.05 350.2,-0.15 355.58,-0.3 360.88,-0.49 366.08,-0.74 371.16,-1.03 376.1,-1.36 380.88,-1.75 385.48,-2.18 389.88,-2.65 394.08,-3.16 398.05,-3.71 401.78,-4.31 405.26,-4.94 408.48,-5.61 411.43,-6.31 414.1,-7.04 416.5,-7.8 418.6,-8.59 420.41,-9.41 421.94,-10.25 423.17,-11.11 424.11,-11.99 424.77,-12.89 425.15,-13.8 425.25,-14.72 425.08,-15.65 424.65,-16.59 423.97,-17.53 423.05,-18.47 421.89,-19.41 420.51,-20.35 418.92,-21.28 417.12,-22.2 415.14,-23.11 412.99,-24.01 410.67,-24.89 408.2,-25.75 405.59,-26.59 402.85,-27.41 399.99,-28.2 397.03,-28.96 393.97,-29.69 390.83,-30.39 387.61,-31.06 384.32,-31.69 380.97,-32.29 377.57,-32.84 374.13,-33.35 370.65,-33.82 367.14,-34.25 363.6,-34.64 360.03,-34.97 356.45,-35.26 352.85,-35.51 349.24,-35.7 345.63,-35.85 342,-35.95 338.38,-36 334.75,-36 331.12,-35.95 327.5,-35.85 323.88,-35.7 320.27,-35.51 316.67,-35.26 313.09,-34.97 309.53,-34.64 305.99,-34.25 302.47,-33.82 298.99,-33.35 295.55,-32.84 292.15,-32.29 288.8,-31.69 285.52,-31.06 282.3,-30.39 279.15,-29.69 276.1,-28.96 273.13,-28.2 270.28,-27.41 267.54,-26.59 264.93,-25.75 262.45,-24.89 260.13,-24.01 257.98,-23.11 256,-22.2 254.21,-21.28 252.61,-20.35 251.23,-19.41 250.08,-18.47 249.15,-17.53 248.47,-16.59 248.04,-15.65 247.87,-14.72 247.97,-13.8 248.35,-12.89 249.01,-11.99 249.95,-11.11 251.19,-10.25 252.71,-9.41 254.52,-8.59 256.63,-7.8 259.02,-7.04 261.69,-6.31 264.64,-5.61 267.86,-4.94 271.34,-4.31 275.07,-3.71 279.04,-3.16 283.24,-2.65 287.65,-2.18 292.25,-1.75 297.03,-1.36 301.96,-1.03 307.04,-0.74 312.24,-0.49 317.54,-0.3 322.92,-0.15 328.35,-0.05 333.82,0 339.3,0 344.77,-0.05"/>
<text text-anchor="middle" x="336.56" y="-14.3" font-family="Times,serif" font-size="14.00">Lois et théories</text>
</g>
<!-- PE -->
<g id="node2" class="node">
<title>PE</title>
<polygon fill="lightgrey" stroke="black" points="683.11,-0.05 691.46,-0.15 699.72,-0.3 707.86,-0.49 715.84,-0.74 723.64,-1.03 731.23,-1.36 738.57,-1.75 745.63,-2.18 752.4,-2.65 758.84,-3.16 764.94,-3.71 770.67,-4.31 776.02,-4.94 780.96,-5.61 785.49,-6.31 789.6,-7.04 793.27,-7.8 796.5,-8.59 799.29,-9.41 801.63,-10.25 803.52,-11.11 804.97,-11.99 805.98,-12.89 806.56,-13.8 806.72,-14.72 806.46,-15.65 805.8,-16.59 804.75,-17.53 803.33,-18.47 801.55,-19.41 799.43,-20.35 796.99,-21.28 794.23,-22.2 791.19,-23.11 787.88,-24.01 784.32,-24.89 780.53,-25.75 776.52,-26.59 772.31,-27.41 767.92,-28.2 763.37,-28.96 758.68,-29.69 753.85,-30.39 748.9,-31.06 743.85,-31.69 738.71,-32.29 733.5,-32.84 728.21,-33.35 722.86,-33.82 717.47,-34.25 712.03,-34.64 706.56,-34.97 701.05,-35.26 695.53,-35.51 689.99,-35.7 684.43,-35.85 678.87,-35.95 673.3,-36 667.72,-36 662.15,-35.95 656.59,-35.85 651.03,-35.7 645.49,-35.51 639.96,-35.26 634.46,-34.97 628.99,-34.64 623.55,-34.25 618.16,-33.82 612.81,-33.35 607.52,-32.84 602.3,-32.29 597.17,-31.69 592.12,-31.06 587.17,-30.39 582.34,-29.69 577.65,-28.96 573.1,-28.2 568.71,-27.41 564.5,-26.59 560.49,-25.75 556.7,-24.89 553.14,-24.01 549.83,-23.11 546.79,-22.2 544.03,-21.28 541.59,-20.35 539.47,-19.41 537.69,-18.47 536.27,-17.53 535.22,-16.59 534.56,-15.65 534.3,-14.72 534.46,-13.8 535.04,-12.89 536.05,-11.99 537.5,-11.11 539.39,-10.25 541.73,-9.41 544.52,-8.59 547.75,-7.8 551.42,-7.04 555.53,-6.31 560.06,-5.61 565,-4.94 570.35,-4.31 576.08,-3.71 582.18,-3.16 588.62,-2.65 595.39,-2.18 602.45,-1.75 609.79,-1.36 617.38,-1.03 625.18,-0.74 633.16,-0.49 641.3,-0.3 649.56,-0.15 657.91,-0.05 666.3,0 674.72,0 683.11,-0.05"/>
<text text-anchor="middle" x="670.51" y="-14.3" font-family="Times,serif" font-size="14.00">Prédictions et exlications</text>
</g>
<!-- LT&#45;&gt;PE -->
<g id="edge2" class="edge">
<title>LT&#45;&gt;PE</title>
<path fill="none" stroke="black" d="M423.52,-18C468.23,-18 500.63,-18 526.39,-18"/>
<polygon fill="black" stroke="black" points="526.68,-21.5 536.68,-18 526.68,-14.5 526.68,-21.5"/>
<text text-anchor="middle" x="479.66" y="-21.8" font-family="Times,serif" font-size="14.00">Déduction</text>
</g>
<!-- Observation -->
<g id="node3" class="node">
<title>Observation</title>
<polygon fill="lightgrey" stroke="black" points="78.64,-0.05 83.05,-0.15 87.42,-0.3 91.72,-0.49 95.94,-0.74 100.06,-1.03 104.06,-1.36 107.94,-1.75 111.68,-2.18 115.25,-2.65 118.66,-3.16 121.88,-3.71 124.9,-4.31 127.73,-4.94 130.34,-5.61 132.74,-6.31 134.9,-7.04 136.84,-7.8 138.55,-8.59 140.02,-9.41 141.26,-10.25 142.26,-11.11 143.03,-11.99 143.56,-12.89 143.87,-13.8 143.95,-14.72 143.81,-15.65 143.47,-16.59 142.91,-17.53 142.16,-18.47 141.22,-19.41 140.1,-20.35 138.81,-21.28 137.36,-22.2 135.75,-23.11 134,-24.01 132.12,-24.89 130.11,-25.75 127.99,-26.59 125.77,-27.41 123.45,-28.2 121.05,-28.96 118.57,-29.69 116.02,-30.39 113.4,-31.06 110.74,-31.69 108.02,-32.29 105.26,-32.84 102.47,-33.35 99.64,-33.82 96.79,-34.25 93.92,-34.64 91.03,-34.97 88.12,-35.26 85.2,-35.51 82.27,-35.7 79.34,-35.85 76.4,-35.95 73.46,-36 70.51,-36 67.57,-35.95 64.63,-35.85 61.69,-35.7 58.76,-35.51 55.84,-35.26 52.94,-34.97 50.05,-34.64 47.17,-34.25 44.32,-33.82 41.5,-33.35 38.7,-32.84 35.95,-32.29 33.23,-31.69 30.56,-31.06 27.95,-30.39 25.4,-29.69 22.92,-28.96 20.51,-28.2 18.2,-27.41 15.97,-26.59 13.85,-25.75 11.85,-24.89 9.97,-24.01 8.22,-23.11 6.61,-22.2 5.16,-21.28 3.87,-20.35 2.74,-19.41 1.8,-18.47 1.05,-17.53 0.5,-16.59 0.15,-15.65 0.02,-14.72 0.1,-13.8 0.41,-12.89 0.94,-11.99 1.71,-11.11 2.71,-10.25 3.94,-9.41 5.41,-8.59 7.12,-7.8 9.06,-7.04 11.23,-6.31 13.62,-5.61 16.24,-4.94 19.06,-4.31 22.09,-3.71 25.31,-3.16 28.72,-2.65 32.29,-2.18 36.02,-1.75 39.9,-1.36 43.91,-1.03 48.03,-0.74 52.25,-0.49 56.55,-0.3 60.91,-0.15 65.32,-0.05 69.76,0 74.21,0 78.64,-0.05"/>
<text text-anchor="middle" x="71.98" y="-14.3" font-family="Times,serif" font-size="14.00">Observation</text>
</g>
<!-- Observation&#45;&gt;LT -->
<g id="edge1" class="edge">
<title>Observation&#45;&gt;LT</title>
<path fill="none" stroke="black" d="M142.75,-18C165.76,-18 192.22,-18 239.27,-18"/>
<polygon fill="black" stroke="black" points="239.29,-21.5 249.29,-18 239.29,-14.5 239.29,-21.5"/>
<text text-anchor="middle" x="195.97" y="-21.8" font-family="Times,serif" font-size="14.00">Induction</text>
</g>
</g>
</svg>
